<svg xmlns="http://www.w3.org/2000/svg" viewBox="0 0 250 180">
  <circle cx="50" cy="30" r="25"/> <!-- Head -->
  <ellipse cx="75" cy="60" rx="45" ry="30"/> <!-- Body -->
  <circle cx="25" cy="10" r="8"/> <!-- Left ear -->
  <circle cx="100" cy="10" r="8"/> <!-- Right ear -->
  <polygon points="35,20 70,0 90,20 80,40 60,60"/> <!-- Left arm -->
  <polygon transform="scale(-1,1) translate(-140,0)" points="35,20 70,0 90,20 80,40 60,60"/> <!-- Right arm -->
  <polygon points="130,90 170,80 210,90 200,120 180,150 160,140"/> <!-- Left leg -->
  <polygon transform="translate(40,40)" points="130,90 170,80 210,90 200,120 180,150 160,140"/> <!-- Right leg -->
  <rect x="190" y="80" width="20" height="40"/> <!-- Tail -->
</svg>