<svg xmlns="http://www.w3.org/2000/svg" viewBox="0 0 400 500">

<!-- Body and Head -->
<ellipse cx="200" cy="300" rx="150" ry="70" fill="brown" />
<circle cx="240" cy="260" r="60" fill="tan" />

<!-- Ears -->
<polygon points="180,50 220,50 200,10" style="fill:brown;" transform="rotate(45)" />
<polygon points="260,50 300,50 280,10" style="fill:brown;" transform="rotate(-45)" />

<!-- Legs and Tail -->
<rect x="160" y="370" width="80" height="80" fill="brown" rx="40" ry="40" transform="rotate(45)" />
<rect x="240" y="370" width="80" height="80" fill="brown" rx="40" ry="40" transform="rotate(-45)" />
<rect x="290" y="330" width="60" height="120" fill="brown" rx="30" ry="30" transform="rotate(225)" />

<!-- Feet -->
<ellipse cx="170" cy="450" rx="40" ry="20" fill="brown" />
<ellipse cx="310" cy="450" rx="40" ry="20" fill="brown" />

<!-- Nose and Eyes -->
<circle cx="240" cy="230" r="10" fill="black" />
<circle cx="225" cy="220" r="5" fill="white" />
<circle cx="255" cy="220" r="5" fill="white" />

<!-- Pouch -->
<ellipse cx="240" cy="380" rx="40" ry="20" fill="tan" />

</svg>