<svg width="400" height="800" xmlns="http://www.w3.org/2000/svg">
  <!-- Body & Head -->
  <ellipse cx="200" cy="300" rx="150" ry="80" fill="#FDB927"/>
  <circle cx="220" cy="260" r="40" fill="#FDB927"/>

  <!-- Ears -->
  <circle cx="180" cy="230" r="25" fill="#FDB927"/>
  <circle cx="240" cy="230" r="25" fill="#FDB927"/>

  <!-- Legs & Tail -->
  <rect x="160" y="400" width="80" height="200" rx="20" fill="#FDB927"/>
  <rect x="220" y="400" width="80" height="200" rx="20" fill="#FDB927"/>
  <polygon points="160,500 240,500 200,600" fill="#FDB927"/>
  <polyline points="180,580 200,630 220,580" fill="#FDB927"/>

  <!-- Feet -->
  <ellipse cx="160" cy="600" rx="30" ry="50" fill="#FDB927"/>
  <ellipse cx="240" cy="600" rx="30" ry="50" fill="#FDB927"/>
  <ellipse cx="200" cy="680" rx="40" ry="70" fill="#FDB927"/>

  <!-- Face Details -->
  <circle cx="210" cy="240" r="8" fill="black"/>
  <circle cx="230" cy="240" r="8" fill="black"/>
  <polygon points="215,220 225,220 220,200" fill="#FDB927"/>
</svg>