<svg width="800" height="400" xmlns="http://www.w3.org/2000/svg">
  <path d="M50 200 A100 50 0 0 1 200 200 Q300 100 400 200 T600 200" fill="brown"/>
  <path d="M50 180 C100 150 200 100 300 180 H400 Q450 250 400 180 T300 180" fill="brown"/>
  <rect x="250" y="220" width="50" height="100" fill="brown"/>
  <polygon points="450,300 500,350 550,300" fill="brown"/>
  <path d="M500 350 Q550 400 600 350 T650 300" stroke="black"/>
  <polygon points="150,280 100,330 50,280" fill="brown"/>
  <path d="M100 330 Q50 380 0 330 T-50 280" stroke="black"/>
  <ellipse cx="650" cy="250" rx="50" ry="100" fill="brown"/>
</svg>