<svg xmlns="http://www.w3.org/2000/svg" viewBox="-10 0 500 500">
    <!-- Head -->
    <path d="M250,40 A180,180 0 0 1 250,360 Q270,300 250,250" fill="#F39C12"/>
    <!-- Ears -->
    <path d="M180,40 Q200,80 250,40 Q280,80 220,40 A10,10 0 0 1 230,50" fill="#F39C12"/>
    <!-- Body -->
    <path d="M250,250 Q260,300 280,320 Q300,340 270,360 A180,180 0 1 1 250,290" fill="#8B4513"/>
    <!-- Pouch -->
    <path d="M250,330 Q230,350 270,360 Q290,340 270,320" fill="#FFD6E5"/>
    <!-- Tail & Legs -->
    <path d="M250,360 Q230,400 270,380 Q310,420 290,400 Q330,380 310,360" fill="#3D9970"/>
</svg>