<svg width="500" height="600" xmlns="http://www.w3.org/2000/svg">
  <ellipse cx="200" cy="250" rx="150" ry="80" fill="brown"/>
  <ellipse cx="220" cy="200" rx="60" ry="40" fill="saddlebrown"/>
  <polygon points="190,70 250,70 220,140" fill="saddlebrown"/>
  <polygon points="230,70 290,70 260,140" fill="saddlebrown"/>
  <rect x="180" y="350" width="30" height="100" fill="brown"/>
  <rect x="230" y="350" width="30" height="100" fill="brown"/>
  <rect x="170" y="450" width="60" height="50" fill="brown"/>
  <rect x="240" y="450" width="60" height="50" fill="brown"/>
  <rect x="185" y="500" width="20" height="30" fill="brown"/>
  <rect x="245" y="500" width="20" height="30" fill="brown"/>
  <polyline points="210,450 215,460 220,455 225,465 230,458" fill="brown"/>
  <ellipse cx="210" cy="330" rx="40" ry="30" fill="tan"/>
</svg>