<svg xmlns="http://www.w3.org/2000/svg" viewBox="-50 -50 100 100">
  <defs>
    <linearGradient id="greenGradient" x1="0%" y1="0%" x2="100%" y2="100%">
      <stop offset="0%" style="stop-color:rgb(89,176,79);stop-opacity:1"/>
      <stop offset="100%" style="stop-color:rgb(54,134,41);stop-opacity:1"/>
    </linearGradient>
    <linearGradient id="brownGradient" x1="0%" y1="0%" x2="100%" y2="100%">
      <stop offset="0%" style="stop-color:rgb(165,131,97);stop-opacity:1"/>
      <stop offset="100%" style="stop-color:rgb(88,68,41);stop-opacity:1"/>
    </linearGradient>
  </defs>
```

2. **Design kangaroo shapes**: Create the main body using circles and ellipses, with the head being slightly larger than the body. Add intricate polygons for the legs and ears to give them a distinct look.

```xml
<circle cx="0" cy="0" r="15" fill="url(#greenGradient)"/>
<ellipse cx="0" cy="7" rx="12" ry="8" fill="url(#greenGradient)"/>

<polygon points="-4,-3 4,-3 -6,9 6,9" fill="url(#brownGradient)" transform="rotate(45,0,0)"/>
<polygon points="-7,0 7,0 -10,8 10,8" fill="url(#brownGradient)" transform="rotate(-45,0,0)"/>

<ellipse cx="2" cy="12" rx="3" ry="6" fill="url(#greenGradient)"/>
```

3. **Create interconnected networks**: Arrange the kangaroo shapes in interconnected patterns to form vibrant networks. For instance, create clusters of kangaroos connected by their legs or ears.

```xml
<g transform="translate(-50,-20)">
  <!-- Kangaroo 1 -->
  <use href="#kangaroo" x="0" y="0"/>
  <!-- Kangaroo 2 -->
  <use href="#kangaroo" x="40" y="0" transform="rotate(30,50,0)"/>
  <!-- Kangaroo 3 -->
  <use href="#kangaroo" x="20" y="30" transform="rotate(-30,50,0)"/>
</g>
```

4. **Transplant into an SVG ecosystem**: Surround the kangaroo networks with other SVG elements like leaves or flowers to create a complete digital garden.

```xml
<g id="kangarooNetwork">
  <!-- Kangaroo network from above -->
</g>

<!-- Add leaves and flowers -->
<path d="M-40 -10 Q-30,-20 -20,-10" stroke="#6f9d58" fill="none"/>
<circle cx="-20" cy="-15" r="5" fill="#ffa502"/>

<!-- Repeat the process to create more networks -->
```

By combining these techniques, I'll cultivate a lush SVG ecosystem teeming with interconnected kangaroo networks that showcase vibrant patterns and colors.</svg>