<svg width="200" height="200" xmlns="http://www.w3.org/2000/svg">

  <!-- Background -->
  <rect x="0" y="0" width="100%" height="100%" fill="#FFF5E6"/>

  <!-- Lion's body (circle with rounded corners) -->
  <path d="M40,80 Q90,20 150,80 Q90,140 40,80" fill="#F7941E"/>

  <!-- Lion's mane (paths for intricate patterns) -->
  <path d="M50,60 A30,30 0 1,0 200,60 30,30 0 1,0 50,60" fill="#FFD700"/>
  <path d="M40,80 Q90,90 140,80 Q90,70 40,80"/>

  <!-- Lion's eyes (circles) -->
  <circle cx="70" cy="65" r="5" fill="#FFF"/>
  <circle cx="130" cy="65" r="5" fill="#FFF"/>
  <path d="M65,60 Q85,45 125,45 Q105,60 135,60" stroke="#000"/>

  <!-- Lion's mouth (path for intricate pattern) -->
  <path d="M70,90 Q100,110 130,90 Q100,70 70,90" fill="#F7941E"/>
  <path d="M85,90 Q105,100 125,90 Q105,80 85,90"/>

</svg>