<svg width="600" height="400" xmlns="http://www.w3.org/2000/svg">

  <!-- Grass -->
  <rect x="10" y="10" width="580" height="380" fill="#9acd32"/>

  <!-- Pathways and Lion statues -->
  <g stroke-width="2">
    <!-- Pathway 1 (Left side) -->
    <path d="M40,60 h30 a15,15 0 0,0 -15,-15 v-80 z" fill="#8bcd8b"/>
    <circle cx="70" cy="220" r="50" fill="#ffa500"/>
    <!-- Pathway 2 -->
    <path d="M140,60 h30 a15,15 0 0,0 -15,-15 v-80 z" fill="#8bcd8b"/>
    <circle cx="170" cy="220" r="50" fill="#ffa500"/>
    <!-- Pathway 3 -->
    <path d="M240,60 h30 a15,15 0 0,0 -15,-15 v-80 z" fill="#8bcd8b"/>
    <circle cx="270" cy="220" r="50" fill="#ffa500"/>
    <!-- Pathway 4 (Right side) -->
    <path d="M340,60 h30 a15,15 0 0,0 -15,-15 v-80 z" fill="#8bcd8b"/>
    <circle cx="370" cy="220" r="50" fill="#ffa500"/>
    <!-- Center Lion -->
    <circle cx="450" cy="220" r="50" fill="#ffa500"/>
  </g>

</svg>