<svg xmlns="http://www.w3.org/2000/svg" viewBox="0 0 50 50">

  <!-- Gold lion head -->
  <path d="M25,10 A15,15 0 0 1 25,40 A15,15 0 0 1 7.5,40 A15,15 0 0 1 25,10"
        fill="#FFD700" stroke="#8B6508" stroke-width="2"/>

  <!-- Gemstone eyes -->
  <circle cx="21" cy="30" r="3" fill="#4CAF50"/>
  <circle cx="29" cy="30" r="3" fill="#FFC107"/>

  <!-- Gold mane -->
  <path d="M25,10 Q38,15 38,26 Q25,33 12,26 Q12,15 25,10"
        fill="none" stroke="#FFD700" stroke-width="2"/>

  <!-- Gemstone mane accents -->
  <path d="M38,18 L40,20 L38,22 Z" fill="#673AB7"/>
  <path d="M12,18 L10,20 L12,22 Z" fill="#FFC107"/>

  <!-- Gold ring setting -->
  <circle cx="25" cy="45" r="15" stroke="#FFD700" stroke-width="2"/>
  <path d="M25,45 A15,15 0 0 0 25,60 A15,15 0 0 0 25,45"
        fill="none" stroke="#FFD700" stroke-width="2"/>

</svg>