<svg width="300" height="400" viewBox="0 0 300 400" xmlns="http://www.w3.org/2000/svg">

<!-- Body -->
<rect x="125" y="160" width="50" height="170" fill="#FFB973"/>
<path d="M175,160 Q187.5,140 200,160 Q212.5,180 225,160" stroke="#000000"/>

<!-- Head -->
<ellipse cx="150" cy="130" rx="50" ry="70" fill="transparent"/>
<circle cx="140" cy="120" r="10" fill="#6D2C18"/>
<circle cx="160" cy="120" r="10" fill="#6D2C18"/>
<path d="M150,90 L150,80 L140,70 z" fill="#6D2C18"/>
<path d="M130,140 Q150,130 170,140" stroke="#6D2C18"/>

<!-- Legs -->
<rect x="90" y="230" width="40" height="80" fill="#FFB973"/>
<ellipse cx="95" cy="280" rx="20" ry="30"/>
<rect x="160" y="230" width="40" height="80" fill="#FFB973"/>
<ellipse cx="165" cy="280" rx="20" ry="30"/>
<rect x="220" y="230" width="40" height="80" fill="#FFB973"/>
<ellipse cx="225" cy="280" rx="20" ry="30"/>

<!-- Tail -->
<path d="M150,220 Q160,240 170,220" stroke="#FFA500"/>

<!-- Mane -->
<g fill="#FFFFFF">
  <circle cx="140" cy="90" r="5"/>
  <circle cx="150" cy="85" r="5"/>
  ...
</g>

</svg>