<svg width="500" height="500" xmlns="http://www.w3.org/2000/svg">

  <!-- Body -->
  <path fill="#F8D7AA" d="M100 200 Q150 150, 200 200 Q250 250, 300 200 L400 200 Q350 250, 300 300 Z"/>

  <!-- Head -->
  <path fill="#F8D7AA" d="M150 100 Q180 60, 220 100 L300 100 Q330 140, 300 190 Z"/>

  <!-- Ears -->
  <path fill="#F8D7AA" d="M130 70 Q160 40, 200 70 L230 70 Q260 40, 290 70"/>
  <path fill="#F8D7AA" d="M180 50 Q210 20, 240 50"/>

  <!-- Eyes -->
  <circle cx="180" cy="130" r="20" fill="#FFFFFF"/>
  <circle cx="260" cy="130" r="20" fill="#FFFFFF"/>
  <path stroke="#000000" stroke-width="5" fill="transparent" d="M185 120 a5,5 0 1,0 10,0 a5,5 0 1,0 -10,0"/>

  <!-- Mane -->
  <g stroke="#FFB6C1" stroke-width="3" fill="transparent">
    <path d="M90 80 Q120 40, 170 80"/>
    <path d="M120 50 Q150 30, 200 50"/>
    <path d="M160 40 Q200 30, 240 40"/>
    <path d="M200 80 Q240 100, 290 80"/>
  </g>

</svg>