<svg width="500" height="500" xmlns="http://www.w3.org/2000/svg">

  <!-- Background -->
  <rect x="0" y="0" width="100%" height="100%" fill="#f4a460"/>

  <!-- Lion's Head -->
  <circle cx="250" cy="200" r="150" fill="#e39371"/>
  <path d="M200 100 Q250 50, 300 100 L300 200 Z" stroke="#fff" fill="orange" opacity="0.8"/>
  <circle cx="250" cy="75" r="40" fill="#e96a3c"/>

  <!-- Lion's Mane -->
  <path d="M170 150 Q220 100, 270 150 L280 200 Z" stroke="#fff" fill="#f3b29d"/>
  <path d="M160 140 Q210 90, 260 140 L270 190 Z" stroke="#fff" fill="#e8a588"/>

  <!-- Lion's Eyes -->
  <circle cx="235" cy="80" r="15" fill="#fff"/>
  <circle cx="265" cy="80" r="15" fill="#fff"/>
  <circle cx="235" cy="80" r="5" fill="#000"/>
  <circle cx="265" cy="80" r="5" fill="#000"/>

  <!-- Lion's Mouth -->
  <path d="M210 170 Q240 190, 270 170 Z" stroke="#fff" fill="#e39371"/>
  <path d="M210 185 Q240 205, 270 185 Z" stroke="#fff" fill="#e39371"/>

</svg>