<svg xmlns="http://www.w3.org/2000/svg" viewBox="-50 -50 100 100">
  <!-- Body -->
  <rect id="body" x="-40" y="-40" width="80" height="60" fill="#f39c12" stroke="#7a3b0e" stroke-width="2"/>

  <!-- Head -->
  <polygon id="head" points="-20,-50 20,-50 0,-20" fill="url(#body)" stroke="#7a3b0e" stroke-width="2"/>

  <!-- Legs -->
  <rect id="leg1" x="-45" y="0" width="5" height="40" fill="url(#body)" stroke="#7a3b0e" stroke-width="2"/>
  <rect id="leg2" x="35" y="0" width="5" height="40" fill="url(#body)" stroke="#7a3b0e" stroke-width="2"/>
  <rect id="leg3" x="-45" y="40" width="5" height="40" fill="url(#body)" stroke="#7a3b0e" stroke-width="2"/>
  <rect id="leg4" x="35" y="40" width="5" height="40" fill="url(#body)" stroke="#7a3b0e" stroke-width="2"/>

  <!-- Tail -->
  <path id="tail" d="M-15 -20 Q0,-40 15,-20" fill="url(#body)" stroke="#7a3b0e" stroke-width="2"/>

  <!-- Mane -->
  <circle cx="-10" cy="-30" r="10" fill="orange"/>
  <circle cx="10" cy="-30" r="10" fill="orange"/>
  <path id="maneLines" d="M-40,-25 Q-10,-45 10,-45 Q40,-25" stroke="#ffa502" stroke-width="3"/>

  <!-- Eyes -->
  <circle cx="-10" cy="-40" r="5" fill="#fff"/>
  <circle cx="10" cy="-40" r="5" fill="#fff"/>
  <circle cx="-10" cy="-40" r="2.5" fill="#000"/>
  <circle cx="10" cy="-40" r="2.5" fill="#000"/>

  <!-- Nose -->
  <polygon points="-5,-35 5,-35 0,-25" fill="#6a1d0f"/>

  <!-- Mouth -->
  <path d="M-15,-45 Q0,-50 15,-45" stroke="#ffa502" stroke-width="3"/>

  <!-- Defining gradients for the body -->
  <defs>
    <linearGradient id="bodyGradient" x1="0%" y1="0%" x2="0%" y2="100%">
      <stop offset="0%" style="stop-color:#f39c12; stop-opacity:1"/>
      <stop offset="100%" style="stop-color:#b5651d; stop-opacity:1"/>
    </linearGradient>
  </defs>
</svg>