<svg width="600" height="400" xmlns="http://www.w3.org/2000/svg">

  <!-- Stage Background -->
  <rect x="10" y="10" width="580" height="380" fill="#E9DAC1"/>

  <!-- Lion Silhouette -->
  <g id="lion">
    <!-- Body -->
    <path id="body" d="M200,250 Q220,275 240,250 Q260,225 280,250 Q300,275 320,250"/>

    <!-- Head -->
    <path id="head" d="M250,175 Q230,150 240,125 Q260,150 280,175 Q260,200 250,225"/>

    <!-- Arms -->
    <path id="arm1" d="M230,200 Q200,225 170,200"/>
    <path id="arm2" d="M280,200 Q310,225 340,200"/>

    <!-- Legs -->
    <path id="leg1" d="M240,325 Q210,375 180,325"/>
    <path id="leg2" d="M260,325 Q290,375 320,325"/>

    <!-- Tail -->
    <path id="tail" d="M280,325 Q310,350 340,325"/>
  </g>

  <!-- Mouse Silhouette -->
  <g id="mouse">
    <!-- Body -->
    <path d="M400,275 Q370,250 380,225 Q410,250 420,275"/>

    <!-- Head -->
    <path d="M390,200 Q360,175 370,150 Q380,175 390,200 Q390,225 400,250"/>

    <!-- Arms -->
    <path d="M380,225 Q350,250 320,225"/>
    <path d="M400,225 Q430,250 460,225"/>

    <!-- Legs -->
    <path d="M390,275 Q360,300 330,275"/>
    <path d="M410,275 Q440,300 470,275"/>
  </g>

</svg>