<svg width="500" height="500" xmlns="http://www.w3.org/2000/svg">

  <!-- Outline -->
  <rect x="100" y="50" width="300" height="400" fill="none" stroke="black"/>

  <!-- Body - ellipse for simplicity -->
  <ellipse cx="200" cy="250" rx="150" ry="200" fill="#F9CDAD"/>
  <circle cx="175" cy="300" r="60" fill="#F39863"/>

  <!-- Head -->
  <path d="M180 100 Q250 50, 220 150 Q140 200, 175 250" stroke="black" fill="none"/>

  <!-- Mane - complex element using paths -->
  <path d="M180 250 Q230 270, 260 250 Q290 270, 300 240 Q330 270, 340 250" stroke="black" fill="none"/>

  <!-- Legs -->
  <path d="M180 360 L150 430 L210 430 Z"/>
  <path d="M290 360 L320 430 L350 430 Z"/>

  <!-- Eyes -->
  <circle cx="185" cy="170" r="20" fill="#FFFFFF"/>
  <circle cx="215" cy="170" r="20" fill="#FFFFFF"/>
  <circle cx="185" cy="170" r="10" fill="#000000"/>
  <circle cx="215" cy="170" r="10" fill="#000000"/>

</svg>