<svg width="500" height="500" xmlns="http://www.w3.org/2000/svg">

  <!-- Background -->
  <rect x="0" y="0" width="100%" height="100%" fill="#FFF" />

  <!-- Ground -->
  <rect x="0" y="350" width="100%" height="150" fill="#8B4513" />

  <!-- Sun -->
  <circle cx="450" cy="75" r="75" fill="#FBB92A" />
  <circle cx="450" cy="75" r="60" fill="url(#sunGradient)" />

  <!-- Lion's Body -->
  <path d="M100 300 Q180 250, 250 220 A90 90 0 0 1 420 270 Q360 320, 300 370" fill="#CD7F32" stroke="black" stroke-width="5" />

  <!-- Lion's Face -->
  <circle cx="300" cy="280" r="100" fill="#FFF" />
  <path d="M260 240 Q290 220, 320 240 Q350 220, 320 260 Q290 280, 260 260" fill="#CD7F32" stroke="black" stroke-width="3" />

  <!-- Lion's Mane -->
  <path d="M150 220 Q200 180, 250 200 Q280 160, 330 200 Q370 240, 330 280 Q280 320, 250 300 Q200 340, 150 300" fill="none" stroke="black" stroke-width="5" />

  <!-- Lion's Crown -->
  <path d="M270 200 Q300 160, 330 180 Q360 200, 330 240 Q300 260, 270 240" fill="none" stroke="#FFD700" stroke-width="5" />

</svg>