<svg width="800" height="600" xmlns="http://www.w3.org/2000/svg">

  <!-- Pathways -->
  <path d="M100 200 Q400 50 700 200" stroke="#3d9970" fill="transparent"/>

  <!-- Beds -->
  <circle cx="300" cy="300" r="80" stroke="#3d9970" fill="url(#bedGradient)"/>
  <circle cx="500" cy="400" r="60" stroke="#3d9970" fill="url(#bedGradient)"/>

  <!-- Structures (Lions) -->
  <rect x="200" y="100" width="400" height="300" fill="url(#lionGradient)" rx="50"/>
  <path d="M450,250 Q500,300 550,250" stroke="#3d9970" fill="transparent"/>

  <!-- Plants -->
  <path d="M180,300 A60,60 0 1,0 240,360 A60,60 0 1,0 180,300" stroke="#00993d" fill="transparent"/>
  <path d="M520,360 A40,40 0 1,0 580,420 A40,40 0 1,0 520,360" stroke="#00993d" fill="transparent"/>

  <!-- Details (Leaves) -->
  <path d="M250,370 Q300,400 350,370" stroke="#00993d" fill="transparent"/>
  <path d="M480,430 Q530,460 580,430" stroke="#00993d" fill="transparent"/>

  <!-- Gradients -->
  <defs>
    <linearGradient id="bedGradient" x1="0%" y1="0%" x2="0%" y2="100%">
      <stop offset="0%" style="stop-color:rgb(255,255,255);stop-opacity:1"/>
      <stop offset="100%" style="stop-color:rgb(239,243,227);stop-opacity:1"/>
    </linearGradient>
    <linearGradient id="lionGradient" x1="0%" y1="0%" x2="100%" y2="100%">
      <stop offset="0%" style="stop-color:rgb(255,237,219);stop-opacity:1"/>
      <stop offset="100%" style="stop-color:rgb(204,163,98);stop-opacity:1"/>
    </linearGradient>
  </defs>

</svg>