<svg xmlns="http://www.w3.org/2000/svg" viewBox="0 0 300 300">
  <!-- Body -->
  <path d="M150,170 Q160,140 190,170 Q200,200 150,230 Q100,200 150,170" fill="orange" stroke="black"/>

  <!-- Mane -->
  <defs>
    <radialGradient id="maneGrad" cx="50%" cy="50%" r="50%" fx="50%" fy="50%">
      <stop offset="0%" style="stop-color:beige; stop-opacity:1"/>
      <stop offset="100%" style="stop-color:#D7B195; stop-opacity:0.8"/>
    </radialGradient>
  </defs>
  <path d="M140,130 Q160,120 190,130 Q200,160 140,170 Q120,160 140,130" fill="url(#maneGrad)" stroke="black"/>

  <!-- Head -->
  <ellipse cx="150" cy="120" rx="50" ry="80" fill="orange" stroke="black"/>
  <circle cx="140" cy="90" r="20" fill="white"/>
  <polygon points="130,70 160,70 145,100" fill="white"/>

  <!-- Legs & Tail -->
  <path d="M180,230 L190,260 L185,290 Z" fill="orange"/>
  <polyline points="140,250 120,270 145,290" fill="none" stroke="black"/>
  <path d="M130,260 Q110,280 130,290 Q150,280 130,260" fill="orange"/>

  <!-- Feet -->
  <circle cx="175" cy="290" r="10"/>
  <circle cx="185" cy="290" r="10"/>
</svg>