<svg width="500" height="400" xmlns="http://www.w3.org/2000/svg"
    style="fill: black; stroke: grey; stroke-width: 1px;">
    <!-- Body -->
    <rect id="lionBody" x="70" y="160" width="280" height="140" rx="50"/>
    <!-- Head -->
    <path d="M90,70 Q130,40 210,70 Q250,100 330,70 Z" fill="url(#lionBody)"/>
    <!-- Eyes -->
    <circle cx="120" cy="60" r="10"/>
    <circle cx="280" cy="60" r="10"/>
    <!-- Mane -->
    <path id="mane" d="M90,70 Q150,40 170,80 Q230,120 250,80 Q270,40 330,70 Z"
          fill="url(#lionBody)"/>
    <!-- Tail -->
    <path d="M260,220 Q290,270 320,220 Q350,180 380,220" stroke-linecap="round"/>
    <!-- Legs -->
    <rect x="80" y="240" width="20" height="100" rx="5" transform="rotate(10,90,340)"/>
    <rect x="300" y="240" width="20" height="100" rx="5" transform="rotate(-10,310,340)"/>
</svg>