<svg width="500" height="500" viewBox="-250 -100 500 300" xmlns="http://www.w3.org/2000/svg">

<!-- Body -->
<rect id="body" x="-75" y="-50" width="150" height="200"
      fill="#F39C12" stroke="#8B4513" stroke-width="2"/>

<!-- Head -->
<ellipse id="head" cx="-10" cy="-100" rx="75" ry="60"
         fill="#F39C12" stroke="#8B4513" stroke-width="2"/>

<!-- Eyes -->
<circle id="eye-left" cx="-60" cy="-100" r="15" fill="black"/>
<circle id="eye-right" cx="0" cy="-100" r="15" fill="black"/>

<!-- Mane -->
<path id="mane" d="M -90, -20 A 80,60 0 0,1 70,-20 A 80,60 0 0,1 -90,-20"
      fill="#FFC34D"/>

<!-- Legs -->
<rect id="leg-front-left" x="-150" y="-150" width="20" height="70"
      fill="#F39C12" stroke="#8B4513" stroke-width="2"/>
<rect id="leg-front-right" x="60" y="-150" width="20" height="70"
      fill="#F39C12" stroke="#8B4513" stroke-width="2"/>
<rect id="leg-back-left" x="-150" y="-80" width="20" height="60"
      fill="#F39C12" stroke="#8B4513" stroke-width="2"/>
<rect id="leg-back-right" x="60" y="-80" width="20" height="60"
      fill="#F39C12" stroke="#8B4513" stroke-width="2"/>

<!-- Tail -->
<path id="tail" d="M -30,-10 Q 30,-10 30,70 Q 0,120 -60,70"
      fill="#F39C12" stroke="#8B4513" stroke-width="2"/>

<!-- Nose -->
<path id="nose" d="M -75,-120 Q -30,-80 0,-120 Q 30,-80 75,-120"
      fill="#F39C12"/>

</svg>