<svg xmlns="http://www.w3.org/2000/svg" viewBox="0 0 500 500">

  <!-- Garden layout -->
  <rect x="100" y="0" width="300" height="500" fill="#8DC63C" stroke="#7D9A2B"/>
  <path d="M150,400 v-200 a100,100 0 0 0 -100,100 h400 a100,100 0 0 0 -100,-100 v200 z" fill="#D6E9A7" stroke="#C5D786"/>

  <!-- Lions -->
  <path d="M150,250 a100,100 0 0 1 200,0 a100,100 0 0 1 -200,0" fill="#B98C63"/>
  <path d="M250,175 a50,50 0 0 0 100,0 a50,50 0 0 0 -100,0" fill="#A57F5D"/>
  <path d="M350,250 a100,100 0 0 0 200,0 a100,100 0 0 0 -200,0" fill="#9E764C"/>

  <!-- Plants -->
  <path d="M180,350 q30,-50 60,-20 q30,50 0,100 q-30,50 -60,20 z" fill="#4E9A4D"/>
  <path d="M220,370 q30,-40 60,-10 q30,40 0,80 q-30,40 -60,-10 z" fill="#5CAB5B"/>
  <path d="M300,320 q30,-30 60,0 q30,30 0,60 q-30,30 -60,0 z" fill="#6DC84F"/>

</svg>