<svg width="800" height="600" xmlns="http://www.w3.org/2000/svg">

<!-- Rhythm: Circles -->
<circle cx="150" cy="150" r="75" fill="none" stroke="black"/>
<circle cx="300" cy="150" r="75" fill="none" stroke="black"/>
<circle cx="450" cy="150" r="75" fill="none" stroke="black"/>

<!-- Main lion shapes: Rectangles -->
<rect x="225" y="37.5" width="100" height="150" fill="gold" rx="10"/>
<path d="M225 37.5 L425 37.5 Q425 193.75, 387.5 256.25 Q343.75 256.25, 306.25 206.25 Q268.75 256.25, 225 193.75 Z" fill="orange"/>

<!-- Harmonies: Paths -->

<!-- Trumpet (high pitch): Thin lines -->
<path d="M400 200 L425 175 L450 200" stroke="black" stroke-width="5"/>
<path d="M380 225 L405 200 L430 225" stroke="black" stroke-width="5"/>

<!-- Lion's roar (medium pitch): Thicker lines -->
<path d="M350 275 Q375 250, 400 275 Q425 250, 450 275" stroke="black" stroke-width="10"/>

<!-- Drum beat (low pitch): Large circles -->
<circle cx="275" cy="325" r="25" fill="none" stroke="black"/>
<circle cx="325" cy="325" r="25" fill="none" stroke="black"/>

</svg>