<svg xmlns="http://www.w3.org/2000/svg" viewBox="-150 -150 300 300">
  <!-- Head -->
  <ellipse cx="75" cy="60" rx="75" ry="90" fill="#CD7F32"/>
  <path d="M75,30 Q80,-40 120,-20 A60,60 0 0 0 180,-80 Q160,-100 75,-60" fill="#CD7F32"/>
  <path d="M90,20 L100,-40 L110,-20 Z" fill="#000000"/>

  <!-- Body -->
  <rect x="75" y="20" width="100" height="80" rx="20" fill="#CD7F32"/>
  <path d="M95,100 Q100,120 110,100 Q120,140 135,160 Z" fill="#000000"/>

  <!-- Legs -->
  <rect x="75" y="160" width="20" height="80" fill="#CD7F32"/>
  <path d="M95,240 L105,320 L115,240 Z" fill="#000000"/>
  <rect x="55" y="160" width="20" height="80" fill="#CD7F32"/>
  <path d="M65,240 L75,320 L85,240 Z" fill="#000000"/>

  <!-- Tail -->
  <path d="M135,160 Q145,240 155,190 Q165,260 175,200 Q185,240 195,170" stroke="#000000" fill="transparent"/>

</svg>