<svg xmlns="http://www.w3.org/2000/svg" viewBox="-500 -500 1000 1000">
  <!-- Body -->
  <path d="M-250,-250 Q-150,-250 -75,-100 Q0,50 75,-100 Q-150,-250 -250,-250" fill="goldenrod"/>
  <path d="M-250,-350 L-250,-250 H-150 V-280 H-250 Z" fill="saddlebrown"/>

  <!-- Head -->
  <circle cx="-75" cy="-300" r="50" fill="goldenrod"/>
  <path d="M-75,-350 Q-125,-325 -75,-300 Q-25,-325 -75,-350" stroke="black"/>

  <!-- Eyes -->
  <circle cx="-90" cy="-325" r="5" fill="white"/>
  <circle cx="-60" cy="-325" r="5" fill="white"/>

  <!-- Mane -->
  <path d="M-250,-400 Q-175,-375 -100,-350 T0,-350 T75,-350 Q175,-375 250,-400" stroke="black" fill="transparent"/>

  <!-- Legs -->
  <rect x="-200" y="-200" width="40" height="150" fill="saddlebrown"/>
  <rect x="160" y="-200" width="40" height="150" fill="saddlebrown"/>

  <!-- Tail -->
  <path d="M-125,-375 Q-75,-425 0,-400 T75,-425 Q125,-375 100,-350" stroke="black" fill="transparent"/>
</svg>