<svg width="500" height="200" xmlns="http://www.w3.org/2000/svg">

<!-- Rhythm and beat -->
<rect x="0" y="50" width="100" height="50" fill-opacity="0.2"/>
<rect x="150" y="50" width="100" height="50" fill-opacity="0.2"/>

<!-- Main melody (lion) -->
<path d="M10 10 L40 60 Q70 30 100 10 Z" stroke-width="5" fill-opacity="0"/>
<path d="M200 10 L230 80 Q260 30 300 10 Z" stroke-width="5" fill-opacity="0"/>

<!-- Harmony (strings) -->
<path d="M50 70 Q90 40 130 70 Q170 40 210 70 Z" stroke-width="3" fill-opacity="0"/>
<path d="M260 70 Q300 40 340 70 Q380 40 420 70 Z"/>

<!-- Counterpoint (winds) -->
<path d="M50 110 Q90 140 130 110 Q170 140 210 110 Z" stroke-width="3" fill-opacity="0"/>
<path d="M260 110 Q300 140 340 110 Q380 140 420 110 Z"/>

<!-- Percussion -->
<circle cx="50" cy="50" r="20" fill-opacity="0.5"/>
<circle cx="260" cy="50" r="20" fill-opacity="0.5"/>

<!-- Lion's mane (additional decoration) -->
<path d="M140 30 Q180 5 220 30 Q260 5 300 30 Z" stroke-width="3" fill-opacity="0"/>

</svg>