<svg xmlns="http://www.w3.org/2000/svg" viewBox="-10 0 280 400">

  <!-- Background -->
  <rect width="100%" height="100%" fill="#FFF5E6"/>

  <!-- Body -->
  <rect x="90" y="70" width="100" height="200" rx="50" fill="#FFD700"/>

  <!-- Head -->
  <ellipse cx="150" cy="80" rx="60" ry="80" fill="#FFD700">
    <circle cx="140" cy="90" r="20" fill="#000"/>
    <circle cx="160" cy="90" r="20" fill="#FFFFFF"/>
  </ellipse>
  <polygon points="135,70 150,50 165,70" fill="#FFD700"/>

  <!-- Legs -->
  <rect x="80" y="200" width="40" height="150" rx="20" fill="#FFD700"/>
  <rect x="160" y="200" width="40" height="150" rx="20" fill="#FFD700"/>
  <rect x="200" y="200" width="40" height="150" rx="20" fill="#FFD700"/>
  <rect x="60" y="230" width="40" height="120" rx="20" fill="#FFD700"/>

  <!-- Tail -->
  <polyline points="85,200 95,220 110,210 130,230 160,240" fill="none" stroke="#CD7F32" stroke-width="2"/>

  <!-- Mane -->
  <ellipse cx="180" cy="50" rx="30" ry="40" fill="#CD7F32"/>
  <circle cx="160" cy="40" r="30" fill="#CD7F32"/>
  <circle cx="190" cy="40" r="30" fill="#CD7F32"/>

</svg>