<svg xmlns="http://www.w3.org/2000/svg" viewBox="0 0 500 500">
  <!-- Body -->
  <path d="M100,10 A80,80 90 0 1 1 400,10 A80,80 90 0 1 1 100,260" stroke="black" fill="none"/>

  <!-- Tail -->
  <path d="M350,260 Q450,350 450,450" stroke="black" fill="none"/>

  <!-- Hair -->
  <polygon points="180,70 220,30 290,70" transform="rotate(-45 200 60)" fill="brown"/>
  <polygon points="180,70 220,30 290,70" transform="rotate(45 200 60)" fill="brown"/>

  <!-- Face -->
  <circle cx="200" cy="140" r="80" stroke="black" fill="#ffcccc"/>
  <circle cx="190" cy="130" r="5" stroke="black" fill="white"/> <!-- Left eye -->
  <circle cx="210" cy="130" r="5" stroke="black" fill="white"/> <!-- Right eye -->
  <path d="M200,180 Q190,200 200,220 Q210,200 200,180" stroke="black" fill="none"/> <!-- Mouth -->

  <!-- Fin -->
  <polygon points="350,470 400,500 350,530" fill="#ffcccc"/>
</svg>