<svg xmlns="http://www.w3.org/2000/svg" viewBox="-60 0 120 70">

<!-- Head -->
<rect x="-30" y="-25" width="60" height="25" fill="lightblue"/>
<path d="M-45 -9 a15 15 0 0 0 30 0 a15 15 0 0 0 -30 0" fill="pink"/>
<circle cx="-15" cy="-20" r="3" fill="black"/>
<circle cx="15" cy="-20" r="3" fill="black"/>

<!-- Torso -->
<rect x="0" y="0" width="40" height="35" fill="lightblue"/>

<!-- Tail fin -->
<path d="M0 35 A28.9 28.9 0 0 1 60 70 A28.9 28.9 0 0 1 0 70 A28.9 28.9 0 0 1 0 35" fill="lightblue"/>

<!-- Hair -->
<path d="M-20 -25 a10 10 0 0 0 40 0 a10 10 0 0 0 -40 0" fill="purple"/>

</svg>