<svg xmlns="http://www.w3.org/2000/svg" viewBox="-50 -50 100 100">
  <!-- Background -->
  <rect x="-50" y="-50" width="100" height="100" fill="#FFF"
        style="fill: url(#seashells)"/>

  <!-- Mermaid's tail -->
  <path d="M-20,40 Q-30,-30 -60,-50 Q-70,-30 -80,-5"
        fill="url(#purpleScales)" transform="rotate(90, 0,0)"/>
  <path d="M-20,40 Q-30,-30 -60,-50" fill="#ADD8E6"/>

  <!-- Mermaid's body -->
  <path d="M10,-50 Q20,-30 40,-50 Q50,-30 60,-5"
        fill="url(#blueScales)" transform="rotate(90, 0,0)"/>
  <circle cx="80" cy="-20" r="20" fill="#87CEEB"/>
  <path d="M80,-40 Q90,-30 100,-50" fill="#003D66"/>

  <!-- Mermaid's hair -->
  <polygon points="-60,-10 -50,0 -60,10"
            fill="url(#greenSeaweed)" transform="rotate(45, -60,-10)"/>

  <!-- Patterns -->
  <defs>
    <pattern id="blueScales" patternUnits="userSpaceOnUse" width="20" height="20">
      <path d="M0,10 Q10,0 20,10 Q10,20 0,10"/>
    </pattern>
    <pattern id="purpleScales" patternUnits="userSpaceOnUse" width="20" height="20">
      <path d="M0,5 Q10,0 20,5 Q10,20 0,5"/>
      <rect x="5" y="5" width="10" height="10" fill="#9B59B6"/>
    </pattern>
    <pattern id="greenSeaweed" patternUnits="userSpaceOnUse" width="10" height="20">
      <path d="M0,0 Q5,10 0,20 Q5,30 0,40"/>
    </pattern>
    <pattern id="seashells" patternUnits="userSpaceOnUse" width="20" height="20">
      <circle cx="10" cy="10" r="8" fill="#FFF" stroke="#CCC" stroke-width="2"/>
    </pattern>
  </defs>
</svg>