<svg xmlns="http://www.w3.org/2000/svg" viewBox="-10 -10 80 90">
  <!-- Mermaid Body -->
  <path d="M45,-5 Q60,5 75,20 Q70,40 45,55 Q20,40 5,20 Q-5,5 -45,-5" fill="url(#mermaidGradient)" />

  <!-- Tail Fin -->
  <path d="M75,20 C85,35 90,60 80,75 C70,60 60,35 75,20" fill="url(#tailFinGradient)"/>

  <!-- Arms & Hands -->
  <g stroke="#000">
    <path d="M10,-5 Q-5,-10 -5,5 Z"/>
    <path d="M5,5 L0,15 L5,25"/>
  </g>

  <!-- Head -->
  <ellipse cx="45" cy="-5" rx="30" ry="20" fill="#FFF"/>
  <circle cx="45" cy="-5" r="3"/>

  <!-- Hair -->
  <path d="M5,5 Q15,-10 30,-20 Q45,-30 60,-20 Q75,-10 85,5 Z" fill="url(#hairGradient)"/>

  <!-- Scales -->
  <g stroke="#009">
    <path d="M70,75 L80,65 L75,75"/>
    <path d="M72.5,70 L82.5,60 L77.5,70"/>
    <!-- Repeat similar paths for more scales -->
  </g>

  <!-- Gradients -->
  <linearGradient id="mermaidGradient" x1="45" y1="-5" x2="45" y2="55">
    <stop offset="0%" style="stop-color:#FFF"/>
    <stop offset="100%" style="stop-color:#CD853F"/>
  </linearGradient>
  <linearGradient id="tailFinGradient" x1="75" y1="20" x2="80" y2="75">
    <stop offset="0%" style="stop-color:#B0E0E6"/>
    <stop offset="100%" style="stop-color:#45CEA2"/>
  </linearGradient>
  <radialGradient id="hairGradient" cx="45" cy="-5" r="30">
    <stop offset="0%" style="stop-color:#422"/>
    <stop offset="100%" style="stop-color:#1E1"/>
  </radialGradient>
</svg>