<svg width="300" height="400" viewBox="0 0 300 400" xmlns="http://www.w3.org/2000/svg">
  <defs>
    <linearGradient id="glow" x1="0%" y1="0%" x2="100%" y2="100%">
      <stop offset="0%" style="stop-color:#FF7F50"/>
      <stop offset="40%" style="stop-color:#FFFF00"/>
      <stop offset="60%" style="stop-color:#FFFFFF"/>
      <stop offset="100%" style="stop-color:#ADD8E6"/>
    </linearGradient>
  </defs>

  <!-- Mermaid body -->
  <path d="M150,20 Q175,50 190,100 Q225,150 150,200 Q75,150 100,100 Q150,50 150,20" fill="url(#glow)"/>

  <!-- Mermaid tail -->
  <path d="M150,200 Q225,250 190,300 Q100,275 50,300 Q85,250 150,200" fill="url(#glow)"/>

  <!-- Mermaid hair -->
  <path d="M150,40 Q160,55 170,70 Q140,55 130,40" fill="url(#glow)"/>
  <path d="M150,40 Q140,55 130,70 Q160,55 150,40"/>

  <!-- Eyes -->
  <circle cx="140" cy="80" r="5" fill="#FFFFFF"/>
  <circle cx="160" cy="80" r="5" fill="#FFFFFF"/>

  <!-- Scales -->
  <path d="M135,95 Q145,105 155,95 Q145,85 135,95" stroke="#FF7F50" stroke-width="2"/>
  <path d="M165,95 Q155,105 145,95 Q155,85 165,95" stroke="#FF7F50" stroke-width="2"/>

</svg>