<svg width="400" height="400" xmlns="http://www.w3.org/2000/svg">
  <!-- Mermaid outline -->
  <path d="M100 50 Q150 0, 200 50 Q250 150, 300 50 Q350 0, 400 50" fill="none"/>

  <!-- Base shading -->
  <path d="M100 50 Q150 0, 200 50 Q250 150, 300 50 Q350 0, 400 50" fill="black" opacity="0.2"/>

  <!-- Gradual shading -->
  <path d="M100 50 Q150 0, 200 50 Q250 150, 300 50 Q350 0, 400 50" fill="black" opacity="0.5"/>

  <!-- Highlights -->
  <path d="M100 50 Q150 0, 200 50 Q250 150, 300 50 Q350 0, 400 50" fill="none"/>

  <!-- Hair -->
  <path d="M100 50 Q150 0, 200 50 Q250 150, 300 50 Q350 0, 400 50" fill="black" opacity="0.3"/>
</svg>