<svg width="500" height="500" xmlns="http://www.w3.org/2000/svg">

  <!-- Background -->
  <rect x="0" y="0" width="100%" height="100%" fill="#003D66"/>

  <!-- Skin -->
  <path d="M-50,100 Q-40,90 -20,80 Q-10,70 0,60 Q10,50 20,60 Q40,70 50,80 Q45,90 50,100" fill="#FFF1E6"/>

  <!-- Tail Scales Gradient -->
  <linearGradient id="tailScales" x1="0%" y1="0%" x2="0%" y2="100%">
    <stop offset="0%" style="stop-color:#2D88FF; stop-opacity:1"/>
    <stop offset="100%" style="stop-color:#9ACD32; stop-opacity:1"/>
  </linearGradient>

  <!-- Tail -->
  <path d="M50,-50 Q40,-40 30,-30 Q20,-20 10,-10 Q0,0 -10,10 Q-20,20 -30,30 Q-40,40 -50,50" fill="url(#tailScales)"/>

  <!-- Eyes -->
  <circle cx="-30" cy="70" r="5" fill="#000000"/>
  <circle cx="30" cy="70" r="5" fill="#000000"/>

  <!-- Hair -->
  <path d="M-50,100 Q-45,95 -40,80 Q-35,65 -25,50 Q-15,40 0,30 Q15,40 25,50 Q35,65 40,80 Q45,95 50,100" stroke="#8B4513"/>

</svg>