<svg xmlns="http://www.w3.org/2000/svg" width="800" height="600" viewBox="0 0 800 600">
```

2. **Create the background**: Begin with a simple gradient or pattern for the background to set the mood.

```svg
<defs>
  <linearGradient id="gradient" x1="0%" y1="0%" x2="100%" y2="100%">
    <stop offset="0%" style="stop-color:rgb(0,191,255);stop-opacity:1"/>
    <stop offset="100%" style="stop-color:rgb(0,0,255);stop-opacity:1"/>
  </linearGradient>
</defs>
<rect width="800" height="600" fill="url(#gradient)"/>
```

3. **Draw the outer edges**: Start weaving from the edges by creating outlines for the mermaid's body and tail, along with waves in the water.

```svg
<polygon points="400,10 780,290 Q750,260 400,350 Q250,260 50,290" fill="white"/>
<path d="M400,350 Q375,400 400,450 Q425,400 400,350" stroke="black" fill="transparent"/>
```

4. **Build intricate details in the center**: Gradually add more complex shapes and patterns to create the mermaid's hair, body features (e.g., scales), and clothing.

```svg
<!-- Mermaid's hair -->
<path d="M380,150 Q360,120 340,150 Q320,120 300,150" stroke="black" fill="transparent"/>
<path d="M420,150 Q440,120 460,150 Q480,120 500,150" stroke="black" fill="transparent"/>

<!-- Scales on the mermaid's body -->
<g transform="translate(370,370) scale(0.4)">
  <polygon points="0,0 50,0 25,50" fill="lightblue"/>
  <polygon points="100,0 150,0 125,50" fill="lightblue"/>
</g>
```

5. **Ensure harmony throughout the design**: Use interconnected patterns and lines to tie together different elements in your tapestry.

```svg
<!-- Interconnected lines between mermaid's body and tail -->
<path d="M370,460 Q390,480 410,460" stroke="black" fill="transparent"/>
```

6. **Add final touches**: Finish your design with any remaining details like eyes, jewelry, or accessories.

```svg
<!-- Mermaid's eyes -->
<circle cx="405" cy="205" r="15" fill="black"/>
<circle cx="415" cy="205" r="10" fill="white"/>
```

7. **Close the SVG file**:

```svg
</svg>