<svg width="500" height="500" xmlns="http://www.w3.org/2000/svg">

  <!-- Mermaid Body -->
  <path d="M250,100 Q275,175 300,225 A75,75 0 1,0 200,225 Q175,175 250,100 Z" fill="#FDD835"/>

  <!-- Mermaid Hair -->
  <path d="M225,50 Q250,60 275,50 Q300,60 325,50" stroke="#0D47A1" stroke-width="20"/>

  <!-- Mermaid Tail Fin -->
  <linearGradient id="pinkPurple" x1="0%" y1="0%" x2="100%" y2="100%">
    <stop offset="0%"   style="stop-color:#FFC3A0; stop-opacity:1"/>
    <stop offset="100%" style="stop-color:#9B51E0; stop-opacity:1"/>
  </linearGradient>
  <path d="M250,400 Q275,450 300,500 A75,75 0 1,0 200,500 Q175,450 250,400 Z" fill="url(#pinkPurple)"/>

  <!-- Simple Wave Pattern -->
  <path d="M50,300 Q100,250 150,300 Q200,350 250,300 Q300,250 350,300" stroke="#0D47A1" stroke-width="15"/>

</svg>