<svg xmlns="http://www.w3.org/2000/svg" viewBox="0 0 100 140">
  <!-- Background -->
  <rect x="0" y="0" width="100%" height="100%" fill="#003D66" />

  <!-- Mermaid body -->
  <path d="M50,20 Q70,10 80,20 Q90,40 80,60 Q70,80 50,60 Q30,80 20,60 Q10,40 20,20" fill="#98FB98" />

  <!-- Hair -->
  <path d="M50,20 Q60,15 70,20 Q75,25 70,30 Q65,35 50,30 Q45,35 40,30 Q35,25 40,20" stroke="#98FB98" fill="transparent" />
  <!-- Repeat similar path commands for more hair locks -->

  <!-- Tail -->
  <path d="M50,80 Q60,100 70,120 Q80,140 90,120 Q100,100 90,80" stroke="#98FB98" fill="transparent" />
  <!-- Repeat similar path commands for side fins -->

  <!-- Rock -->
  <polygon points="60,90 75,95 85,105 80,120 70,110 60,100" fill="#696969" />

  <!-- Bubbles -->
  <circle cx="35" cy="80" r="4" fill="#FFFFFF" />
  <circle cx="50" cy="95" r="3" fill="#FFFFFF" />
  <!-- Add more bubbles with random positions -->

</svg>