<svg width="500" height="500" viewBox="0 0 500 500">
```

2. **Establish the edges**: Start by creating an outer border using interconnected lines and shapes. For a mermaid tapestry, let's use ocean waves as the border.

```svg
<path d="M0 10 C75 0 150 0 225 10 Q300 0 400 10 Q350 0 500 10 V490 Q450 500 350 500 Q300 500 225 490 Q150 500 75 500 Q0 490 0 410 Z" fill="blue" stroke="lightblue"/>
```

3. **Build intricate details in the center**: Begin with the mermaid's tail, gradually working towards her head and upper body.

   - Mermaid's tail: Use interconnected wavy lines to create the flowing tail.

```svg
<path d="M250 410 Q280 390 310 370 Q340 350 370 330 Q400 310 430 290 Q460 270 490 250 V240 H480 Z" fill="lightblue"/>
```

   - Mermaid's body and upper torso: Use curves and circles to form the mermaid's body, connecting it with the tail.

```svg
<path d="M370 230 Q390 190 410 150 C415 120 420 90 425 60 Z" fill="pink"/>
```

   - Mermaid's hair and accessories: Add intricate patterns using lines, circles, and small shapes to create the mermaid's long hair, accessories like shells, and other decorative elements.

```svg
<g stroke="black">
  <!-- Mermaid's hair -->
  <polyline points="410 50 420 60 430 70 425 80 420 90"/>

  <!-- Shell accessory -->
  <circle cx="420" cy="120" r="15"/>
</g>
```

4. **Ensure harmony throughout the design**: Maintain consistency in colors, patterns, and line thickness to create a harmonious overall design.

   - Add interconnected lines and small shapes around the mermaid's body to connect it with the outer border and fill any empty spaces.

```svg
<g stroke="lightblue">
  <!-- Interconnected lines -->
  <path d="M350 270 Q370 290 410 310 Q450 290 470 270"/>

  <!-- Small shapes -->
  <circle cx="380" cy="300" r="5"/>
  <rect x="400" y="305" width="10" height="5"/>
</g>
```

5. **Finalize the SVG file**: Close the `<svg>` tag to complete the SVG file.

```svg
</svg>