<svg xmlns="http://www.w3.org/2000/svg" viewBox="-50 -50 100 100">
  <!-- Black velvet background -->
  <rect width="100%" height="100%" fill="#000"/>

  <!-- Mermaid body and tail -->
  <path id="mermaid-body" d="M-40,-30 Q-25,-35 L0,-40 Q25,-35 L40,-30" fill="url(#glow-blue)"/>
  <path d="M-40,-30 Q-25,-35 L0,-40 Q25,-35 L40,-30" fill="#81F7FF"/>

  <!-- Mermaid hair -->
  <path id="mermaid-hair" d="M-40,-35 Q-30,-40 L0,-50 Q30,-40 L40,-35" fill="url(#glow-blue-dark)"/>
  <path d="M-40,-35 Q-30,-40 L0,-50 Q30,-40 L40,-35" fill="#0C49A6"/>

  <!-- Mermaid eyes -->
  <circle cx="-10" cy="-28" r="5" fill="#FFF"/>
  <circle cx="10" cy="-28" r="5" fill="#FFF"/>
  <circle cx="-10" cy="-28" r="4.5" fill="#1F3A93"/>
  <circle cx="10" cy="-28" r="4.5" fill="#1F3A93"/>

  <!-- Mermaid pearl -->
  <circle cx="20" cy="-25" r="7" fill="url(#glow-pink)"/>
  <circle cx="20" cy="-25" r="6" fill="#FFB6C1"/>

  <!-- Seashells -->
  <path id="seashell" d="M-30,-45 Q-25,-50 L-15,-45 A20,20 0 0 0 -30,-40 Z" fill="url(#glow-purple)"/>
  <use href="#seashell" x="10" y="-45"/>
  <use href="#seashell" x="30" y="-35"/>

  <!-- Glowing gradients -->
  <defs>
    <linearGradient id="glow-blue" x1="0%" y1="0%" x2="100%" y2="100%">
      <stop offset="0%" style="stop-color:#81F7FF;stop-opacity:1"/>
      <stop offset="100%" style="stop-color:#B3FFFF;stop-opacity:.5"/>
    </linearGradient>
    <linearGradient id="glow-blue-dark" x1="0%" y1="0%" x2="100%" y2="100%">
      <stop offset="0%" style="stop-color:#0C49A6;stop-opacity:1"/>
      <stop offset="100%" style="stop-color:#ADD8E6;stop-opacity:.5"/>
    </linearGradient>
    <linearGradient id="glow-pink" x1="0%" y1="0%" x2="100%" y2="100%">
      <stop offset="0%" style="stop-color:#FFB6C1;stop-opacity:1"/>
      <stop offset="100%" style="stop-color:#DDA0DD;stop-opacity:.5"/>
    </linearGradient>
  </defs>
</svg>