<svg width="800" height="600" viewBox="-400 -300 800 600">
```

2. **Shaping the basic form:**

We'll start by creating a simple ellipsoid for the mermaid's body using `<ellipse>` elements, then refine it into an S-curve.

```svg
<ellipse cx="0" cy="-150" rx="300" ry="150"/>
```

3. **Building up layers of detail:**

Next, we'll add more details like the mermaid's head, tail fin, arms, and hair. We'll use `<path>` elements with `d` attributes containing commands to draw lines, curves, and shapes.

- Mermaid's head:

```svg
<path d="M0,-150 A75 75 0 0 1 0,-225" fill="none"/>
```

- Tail fin:

```svg
<path d="M0,150 Q0,-150 -300,-150 Q0,-150 300,-150" fill="none"/>
```

- Arms:

```svg
<g transform="rotate(45)">
  <path d="M-200,-150 Q-100,-50 -200,50" fill="none"/>
  <path d="M200,-150 Q100,-50 200,50" fill="none"/>
</g>
```

- Hair:

```svg
<path d="M-300,-275 Q-150,-225 -300,-175 Q-450,-225 -300,-125" stroke-width="10" fill="none"/>
```

4. **Ensuring balance:**

To ensure balance, we'll create symmetrical shapes and check the composition visually. We can also use guides by adding `<line>` elements for reference.

```svg
<line x1="-300" y1="0" x2="300" y1="0" style="stroke:lightgray; stroke-dasharray: 5, 5"/>
```

5. **Final touch:**

Let's add some simple eyes and scale details to complete our mermaid figurine.

```svg
<circle cx="-75" cy="-225" r="15"/>
<circle cx="75" cy="-225" r="15"/>
<path d="M-30,-150 Q-50,-175 -30,-190 Q-10,-175 -30,-150" fill="none"/>
```

6. **Closing the SVG:**

Finally, we close our `<svg>` tag to complete our mermaid figurine in SVG format.

```svg
</svg>