<svg width="800" height="600" xmlns="http://www.w3.org/2000/svg">

  <!-- Background -->
  <rect x="0" y="0" width="800" height="600" fill="url(#backgroundGradient)"/>
  <defs>
    <linearGradient id="backgroundGradient">
      <stop offset="5%" stop-color="#b0e0e6"/>
      <stop offset="95%" stop-color="#00bfff"/>
    </linearGradient>

    <!-- Define patterns -->
    <pattern id="wavePattern" patternUnits="userSpaceOnUse" width="10" height="50">
      <path d="M 0,0 Q 5,25 10,0 Z" fill="#00bfff"/>
    </pattern>

    <pattern id="coralPattern" patternUnits="userSpaceOnUse" width="20" height="20">
      <rect x="0" y="0" width="20" height="20" fill="#ffa502"/>
      <circle cx="10" cy="10" r="8" fill="#ffd800"/>
    </pattern>

    <!-- Define colors -->
    <linearGradient id="mermaidTailGradient">
      <stop offset="0%" stop-color="#7ec6c6"/>
      <stop offset="100%" stop-color="#1f4037"/>
    </linearGradient>
  </defs>

  <!-- Mermaid -->
  <g transform="translate(200,350)">
    <path d="M80,40 Q90,20 120,60 Q150,40 170,20 Q180,40 200,60 Q200,90 170,130 Q140,90 120,60" fill="#48cae4"/>
    <path d="M200,150 Q210,130 220,150 Q210,170 200,190 Q190,170 180,150" fill="#3d9483"/>
    <path d="M170,60 Q180,80 200,110 Q220,80 210,60 Z" fill="url(#mermaidTailGradient)"/>

    <!-- Ocean waves -->
    <rect x="0" y="350" width="400" height="250" fill="url(#wavePattern)" mask="url(#wavyMask)"/>
    <defs>
      <mask id="wavyMask">
        <path d="M 0,0 Q 100,75 200,0 Q 300,75 400,0 Z" fill="white"/>
      </mask>
    </defs>

    <!-- Coral reefs -->
    <rect x="100" y="380" width="150" height="150" fill="url(#coralPattern)"/>

  </g>

</svg>