<svg xmlns="http://www.w3.org/2000/svg" viewBox="0 0 800 600">
  <!-- Background -->
  <rect x="0" y="0" width="800" height="600" fill="#00008B"/>

  <!-- Water -->
  <rect x="0" y="200" width="800" height="400" fill="#7EC8F6"/>

  <!-- Sky Reflection -->
  <path d="M0,150 Q400,0 800,150" stroke="none" fill="#ADD8E6"/>

  <!-- Corals -->
  <polygon points="350,250 450,200 500,275 400,325" fill="#FF69B4"/>
  <rect x="150" y="300" width="100" height="150" fill="#CD5C5C"/>

  <!-- Fish -->
  <circle cx="250" cy="350" r="30" fill="#8B008B"/>
  <rect x="400" y="375" width="50" height="100" fill="#FFD700"/>

  <!-- Mermaid -->
  <!-- Tail -->
  <circle cx="450" cy="400" r="150" fill="#00BFFF"/>
  <pattern id="scales" patternUnits="userSpaceOnUse" width="20" height="20">
    <rect width="20" height="20" fill="#008B83"/>
    <circle cx="10" cy="10" r="5" fill="#006994"/>
  </pattern>
  <path d="M375,400 Q425,450 450,400 Z" stroke="none" fill="url(#scales)"/>

  <!-- Hair -->
  <polyline points="400,100 375,150 425,150 400,200" stroke="#3D9483" fill="transparent" stroke-width="5"/>
  <polyline points="400,175 375,225 425,225 400,275" stroke="#3D9483" fill="transparent" stroke-width="5"/>

  <!-- Body & Face -->
  <circle cx="400" cy="250" r="150" stroke="#FFEFD5" fill="transparent" stroke-width="15"/>
</svg>