<svg width="800" height="600" xmlns="http://www.w3.org/2000/svg">

  <!-- Ocean -->
  <rect x="0" y="0" width="800" height="600" fill="#4a7d9e"/>

  <!-- Rock -->
  <polygon points="50,575 100,550 200,575 300,600 50,600" fill="#8b7d6e" stroke="none"/>

  <!-- Mermaid's body -->
  <path d="M50,450 Q75,350 150,425 Q225,550 300,475 Q375,500 450,425 Q525,350 600,450" stroke="none" fill="#88cec8"/>

  <!-- Hair -->
  <path d="M125,575 C150,550 175,575 200,550 Z" stroke="none" fill="#b9964e"/>
  <path d="M250,575 C275,550 300,575 325,550 Z" stroke="none" fill="#b9964e"/>

  <!-- Tail -->
  <path d="M150,550 Q200,650 300,550 Q350,650 450,550" stroke="none" fill="#88cec8"/>

  <!-- Hand and Pearl -->
  <g transform="translate(575,400)">
    <path d="M-25,-25 Q-12.5,-12.5 -25,0 Z" stroke="none" fill="#88cec8"/>
    <circle cx="-50" cy="0" r="10" fill="#fff" stroke="#fff"/>

  </g>

</svg>