<svg width="100" height="200" xmlns="http://www.w3.org/2000/svg">

  <!-- Mermaid's Body -->
  <path d="M50,70 C60,80 40,90 50,100 Q60,120 70,100 Q80,90 90,80 Z" fill="url(#gradBody)" />

  <!-- Tail -->
  <path d="M90,80 C100,70 110,60 120,50 Q130,40 140,50" fill="url(#gradBody)" />

  <!-- Hair/Wave -->
  <path d="M50,70 Q30,90 50,110 Q70,90 50,70" stroke="#1D4690" fill="transparent" stroke-width="2"/>

  <!-- Head -->
  <circle cx="50" cy="70" r="20" fill="#FFEBCD"/>

  <!-- Eyes -->
  <ellipse cx="40" cy="65" rx="5" ry="3" fill="#000"/>
  <ellipse cx="60" cy="65" rx="5" ry="3" fill="#000"/>

  <!-- Mouth -->
  <path d="M45,85 Q55,95 65,85" stroke="#000" fill="transparent" stroke-width="2"/>

  <!-- Fin on Forehead -->
  <polygon points="40,50,50,30,60,50" fill="url(#gradBody)"/>

  <!-- Linear Gradient for Body and Tail -->
  <defs>
    <linearGradient id="gradBody" x1="0%" y1="0%" x2="100%" y2="100%">
      <stop offset="0%"   style="stop-color:rgb(28,111,166); stop-opacity:1"/>
      <stop offset="100%" style="stop-color:rgb(179,224,255); stop-opacity:1"/>
    </linearGradient>
  </defs>

</svg>