<svg width="200" height="200" xmlns="http://www.w3.org/2000/svg">

  <!-- Head -->
  <circle cx="100" cy="75" r="50" stroke="black" fill="lightblue"/>

  <!-- Body -->
  <rect x="25" y="25" width="150" height="150" rx="25" style="fill: skyblue; stroke: black"/>

  <!-- Tail -->
  <polygon points="
    75,200
    87.5,225
    100,250
    112.5,225
    125,200
    137.5,175
    150,150
    162.5,175
    175,200
    187.5,225
    200,250" fill="skyblue" stroke="black"/>

  <!-- Hair -->
  <path d="M50,25 Q75,0 100,25 T150,75 Z" style="fill: skyblue; stroke: black"/>
  <path d="M50,37.5 Q75,62.5 100,37.5 T150,87.5 Z" style="fill: skyblue; stroke: black"/>

  <!-- Eyes -->
  <circle cx="75" cy="50" r="25" fill="black"/>
  <circle cx="125" cy="50" r="25" fill="black"/>

  <!-- Mouth -->
  <path d="M0,125 Q50,100 100,125 T200,125" style="fill: transparent; stroke: black; stroke-width: 3"/>

</svg>