<svg width="800" height="600" xmlns="http://www.w3.org/2000/svg">
```

Now, I'll define a color palette for different features and ensure balance in composition by using various shades of blue, green, and purple to represent water, land, and mystical elements respectively.

1. **Water (deep to shallow):**
   - Deep: `#003D66` (dark blue)
   - Medium: `#2E86C1` (blue)
   - Shallow: `#7CB9E8` (light blue)

2. **Land:**
   - Sandy shore: `#FFDFBA`
   - Forest: `#8DC63C` (green)
   - Mountains: `#A0522D` (brown)

3. **Mystical elements:**
   - Corals/seaweed: `#9B59B6` (purple)
   - Mermaid's treasure: `#FFC107` (golden yellow)
   - Glowing underwater features: `#BDB76B` (light green)

4. **Outline and text:**
   - Outline: `#FFFFFF`
   - Text: `#32CD32` (green)

Now, let's plot some points and draw paths for uncharted territories.

**A. Outlines and major landforms:**

```svg
<path d="M10 50 Q140 10, 280 50 Q420 10, 560 50" stroke="#FFFFFF" fill="none"/>
```

**B. Water levels (deep to shallow):**

```svg
<path d="M10 50 L140 30 L280 50" stroke="#003D66" fill="#003D66"/>
<path d="M140 30 Q210 20, 280 30" stroke="#2E86C1" fill="#2E86C1"/>
<path d="M280 30 Q350 20, 420 30" stroke="#7CB9E8" fill="#7CB9E8"/>
```

**C. Land features:**

```svg
<!-- Sandy shore -->
<path d="M560 50 Q630 40, 700 50" stroke="#FFDFBA" fill="#FFDFBA"/>

<!-- Forest -->
<path d="M10 290 Q140 280, 280 290 Q420 280, 560 290" stroke="#8DC63C" fill="#8DC63C"/>

<!-- Mountains -->
<path d="M560 290 Q630 300, 700 290" stroke="#A0522D" fill="#A0522D"/>
```

**D. Mystical elements:**

```svg
<!-- Corals/seaweed -->
<path d="M140 30 Q170 25, 210 30 M210 30 Q240 25, 280 30" stroke="#9B59B6" fill="#9B59B6"/>

<!-- Mermaid's treasure -->
<circle cx="350" cy="175" r="20" fill="#FFC107"/>

<!-- Glowing underwater features -->
<ellipse cx="450" cy="150" rx="30" ry="15" stroke="#BDB76B" fill="#BDB76B"/>
```

**E. Labels and text:**

```svg
<text x="20" y="30" font-family="Verdana" font-size="14">Deep Water</text>
<text x="180" y="25" font-family="Verdana" font-size="14">Medium Water</text>
<text x="330" y="25" font-family="Verdana" font-size="14">Shallow Water</text>
<text x="610" y="45" font-family="Verdana" font-size="14">Sandy Shore</text>
```

Finally, close the SVG canvas:

```svg
</svg>