<svg xmlns="http://www.w3.org/2000/svg" viewBox="0 0 800 600">
```

2. **Create the outer edges**:
   - Start with a rectangular outline for the mermaid's body.
   - Add wavy lines along the bottom edge to represent water.

```svg
<path d="M10,590 Q140,580 270,560 Q400,580 530,560 Q660,580 790,590 H800V580H790Z" fill="lightblue"/>
<path d="M10,590 Q140,620 270,640 Q400,620 530,640 Q660,620 790,590" stroke="darkblue" fill="transparent"/>
```

3. **Build up intricate details in the center**:
   - Draw the mermaid's body using smooth curves and interconnecting shapes.
   - Create a spiral pattern for her hair.
   - Add intricate scales along her tail using interconnected diamonds.

```svg
<path d="M140,580 Q270,560 390,550 A120,120 0 1,0 510,550 Q390,560 270,580 Z" fill="lightblue"/>
<path d="M420,450 A60,60 0 1,1 420,330" stroke="black" fill="transparent"/>
<g id="scales">
  <pattern patternUnits="userSpaceOnUse" width="10" height="10" patternTransform="rotate(45)">
    <polygon points="0,0 10,0 5,10" fill="lightblue"/>
  </pattern>
  <rect x="360" y="520" width="180" height="70" fill="url(#scales)"/>
</g>
```

4. **Ensure harmony throughout the design**:
   - Use consistent colors and line styles.
   - Maintain symmetry where appropriate (e.g., mermaid's body, hair).
   - Interconnect patterns to create unity.

5. **Add final touches**:
   - Draw the mermaid's face with expressive features.
   - Add decorative elements like bubbles, seaweed, or a crown.

```svg
<circle cx="420" cy="430" r="40" stroke="black" fill="lightblue"/>
<path d="M415,400 Q430,380 445,400" stroke="black" fill="transparent"/>
<!-- Add more decorative elements here -->
```

6. **Close the SVG tag**:

```svg
</svg>