<svg xmlns="http://www.w3.org/2000/svg" viewBox="0 0 600 400">

  <!-- Background gradient -->
  <defs>
    <linearGradient id="water-gradient" x1="0%" y1="0%" x2="0%" y2="100%">
      <stop offset="0%" style="stop-color:#03A9F4; stop-opacity:1" />
      <stop offset="100%" style="stop-color:#1E88E5; stop-opacity:1" />
    </linearGradient>
  </defs>
  <rect width="600" height="400" fill="url(#water-gradient)" />

  <!-- Mermaid -->
  <path d="M300,20 Q375,50 400,120 Q325,180 250,120 Q275,50 300,20" stroke="#FFD700" fill-opacity="0" stroke-width="5"/>
  <path d="M300,20 Q375,50 400,120 Q325,180 250,120 Q275,50 300,20" stroke="#4C2882" fill-opacity="0" stroke-width="3"/>
  <path d="M300,200 Q375,230 400,300 Q325,370 250,300 Q275,230 300,200" stroke="#00FFFF" fill-opacity="0" stroke-width="5"/>
  <linearGradient id="tail-gradient" x1="0%" y1="0%" x2="100%" y2="0%">
    <stop offset="0%" style="stop-color:#00FFFF; stop-opacity:1" />
    <stop offset="100%" style="stop-color:#0080FF; stop-opacity:1" />
  </linearGradient>
  <path d="M300,200 Q375,230 400,300 Q325,370 250,300 Q275,230 300,200" fill="url(#tail-gradient)"/>

  <!-- Add more elements for seaweed, corals, fish here... -->

</svg>