<svg xmlns="http://www.w3.org/2000/svg" viewBox="0 0 800 600">
  <!-- Background -->
  <linearGradient id="bgGrad" x1="0%" y1="0%" x2="0%" y2="100%">
    <stop offset="0%" style="stop-color:#87CEEB"/>
    <stop offset="100%" style="stop-color:#ADD8E6"/>
  </linearGradient>
  <rect width="800" height="600" fill="url(#bgGrad)"/>

  <!-- Mermaid's body -->
  <path d="M200,150 Q300,75 400,150 Q300,225 200,225 Q100,150 200,150" fill="#FFF9DC"/>
  <path d="M200,225 Q300,275 400,225 Q300,275 200,325" fill="#F3D7A4"/>

  <!-- Mermaid's tail & fin -->
  <polygon points="400,600 600,600 500,550 400,550" fill="url(#tailGrad)"/>
  <linearGradient id="tailGrad" x1="0%" y1="0%" x2="0%" y2="100%">
    <stop offset="0%" style="stop-color:#2E8B57"/>
    <stop offset="100%" style="stop-color:#006400"/>
  </linearGradient>

  <!-- Mermaid's hair -->
  <polygon points="175,75 325,75 325,125 175,125" fill="url(#hairGrad)"/>
  <linearGradient id="hairGrad" x1="0%" y1="0%" x2="100%" y2="0%">
    <stop offset="0%" style="stop-color:#00008B"/>
    <stop offset="100%" style="stop-color:#FFFFFF"/>
  </linearGradient>

  <!-- Sea creatures & plants (simple shapes for demonstration) -->
  <circle cx="50" cy="400" r="30" fill="#0000CD"/>
  <rect x="700" y="200" width="80" height="150" fill="#32CD32"/>
</svg>