<svg xmlns="http://www.w3.org/2000/svg" viewBox="-50 -50 100 100">
  <!-- Tail -->
  <path d="M-50,0 C-25,-40 25,-40 50,0 A50,50 0 0 1 -50,0" fill="#08456e"/>

  <!-- Water Line -->
  <rect x="-50" y="0" width="100" height="10" fill="url(#waterGradient)"/>

  <!-- Upper Body & Head -->
  <path d="M-25,-30 Q-5,20 40,-20 Q60,20 75,-30 A20,20 0 0 1 -25,-30" fill="#FFB6C1"/>
  <ellipse cx="-20" cy="10" rx="15" ry="20"/>

  <!-- Face -->
  <circle cx="-20" cy="15" r="5"/>
  <polygon points="-30,15 -20,25 -10,15"/>
  <path d="M-30,10 Q-25,5 -20,10"/>

  <!-- Seashell Bra -->
  <circle cx="-40" cy="20" r="8"/>
  <circle cx="-30" cy="20" r="7" fill="#FFD700"/>

  <!-- Pearl -->
  <circle cx="-25" cy="10" r="5" fill="#FFD700"/>

  <!-- Hands -->
  <path d="M-40,10 Q-30,-5 -25,-15"/>
  <path d="M-30,5 Q-25,15 -20,5"/>

  <!-- Hair -->
  <path d="M-40,5 C-30,-10 -10,-10 0,5"/>

  <!-- Water Gradient -->
  <defs>
    <linearGradient id="waterGradient" x1="0%" y1="0%" x2="0%" y2="100%">
      <stop offset="0%" style="stop-color:#2193b0"/>
      <stop offset="100%" style="stop-color:#08456e"/>
    </linearGradient>
  </defs>
</svg>