<svg viewBox="0 0 240 240" xmlns="http://www.w3.org/2000/svg">
  <defs>
    <linearGradient id="shading" x1="0%" y1="0%" x2="100%" y2="100%">
      <stop offset="0%" stop-color="#FFFFFF"/>
      <stop offset="100%" stop-color="#000000"/>
    </linearGradient>
    <feGaussianBlur in="SourceGraphic" stdDeviation="5"/>
  </defs>

  <!-- Outline -->
  <path id="mermaid-outline" d="M50 20 Q70 40, 90 60 A80 80 0 0 1 10 80 Q30 60, 50 20"/>

  <!-- Body -->
  <path class="body fill: url(#shading); filter: url(#blur)" d="M70 40 Q90 60, 100 80 C115 110, 130 120, 140 100"/>

  <!-- Tail -->
  <path class="tail fill: url(#shading); filter: url(#blur)" d="M95 60 Q120 80, 140 100 C160 130, 190 150, 210 170"/>

  <!-- Hair -->
  <path class="hair fill: url(#shading); filter: url(#blur)" d="M60 30 Q70 10, 90 30"/>
  <path class="hair fill: url(#shading); filter: url(#blur)" d="M80 25 Q90 5, 100 25"/>
  <!-- Add more hair paths here -->

  <!-- Hair bottom -->
  <path class="hair-bottom" fill="none" stroke="#000000" stroke-width="3" d="M60 50 Q70 60, 90 50"/>

  <!-- Highlight -->
  <path class="highlight" stroke="#FFFFFF" stroke-width="2" d="M140 170 Q180 190, 210 170"/>
</svg>