<svg xmlns="http://www.w3.org/2000/svg" viewBox="-1000 -1000 2000 2000">
```

2. **Define colors**: Let's use the following colors for different features:

   - Land: #98fb98 (light green)
   - Water: #add8e6 (light blue)
   - Mermaid habitations: #ffa500 (orange)
   - Landmarks (castles, towers): #cd7f32 (dark orange)
   - Coastlines and borders: #000000 (black)

3. **Plot points as islands and landmarks**: We'll create circles to represent mermaid habitations and landmarks.

```xml
<!-- Mermaid habitations -->
<circle cx="-500" cy="300" r="100" fill="#ffa500"/>
<circle cx="200" cy="-700" r="80" fill="#ffa500"/>

<!-- Landmarks -->
<circle cx="-300" cy="600" r="60" fill="#cd7f32"/>
<circle cx="400" cy="-500" r="70" fill="#cd7f32"/>
```

4. **Draw paths for coastlines and borders**: We'll use `polygon` elements to create the shape of mermaid lands, with coastlines and borders represented by black lines.

```xml
<!-- Mermaid lands -->
<polygon points="-1000,-1000 1000,-1000 1000,1000 -500,800 -300,600 200,-700" fill="#98fb98"/>
<polygon points="-500,800 -300,600 200,-700" stroke="#000000" stroke-width="10"/>

<!-- Waters -->
<path d="M-1000,-1000 h2000 v2000 H-1000 z" fill="#add8e6"/>
```

5. **Ensure balance in the map's composition**: To maintain balance, we'll keep the following considerations:

   - Use a symmetrical layout for mermaid habitations and landmarks.
   - Maintain a good proportion of land to water.
   - Avoid clutter by keeping the number of plotted points reasonable.

Here's the complete SVG code so far:

```xml
<svg xmlns="http://www.w3.org/2000/svg" viewBox="-1000 -1000 2000 2000">
  <!-- Waters -->
  <path d="M-1000,-1000 h2000 v2000 H-1000 z" fill="#add8e6"/>

  <!-- Mermaid lands -->
  <polygon points="-1000,-1000 1000,-1000 1000,1000 -500,800 -300,600 200,-700" fill="#98fb98"/>
  <polygon points="-500,800 -300,600 200,-700" stroke="#000000" stroke-width="10"/>

  <!-- Mermaid habitations -->
  <circle cx="-500" cy="300" r="100" fill="#ffa500"/>
  <circle cx="200" cy="-700" r="80" fill="#ffa500"/>

  <!-- Landmarks -->
  <circle cx="-300" cy="600" r="60" fill="#cd7f32"/>
  <circle cx="400" cy="-500" r="70" fill="#cd7f32"/>
</svg>