<svg xmlns="http://www.w3.org/2000/svg" viewBox="0 0 512 512">
  <!-- Mermaid Outline -->
  <path d="M469.3 111.8c-73.2-23.8-154.1-23.8-227.3 0l-.5.1z" fill="none"/>
  <path d="M111.8 469.3L50.7 338.5c0 61.9 50.2 114.1 111.8 114.1h63l-48.3-88z" fill="none"/>

  <!-- Mermaid Face & Hair -->
  <path d="M327.5 153a99.1 99.1 0 0 1-77.2 48H265c0-17.7-14.3-32-32-32h-113.3A99.1 99.1 0 0 1 153 55v0a99.1 99.1 0 0 1 167 48z" fill="#001f3f"/>
  <path d="M265 111h-63c0 35.3 28.7 64 64 64h63c35.3 0 64-28.7 64-64v0z" fill="#005f4a"/>

  <!-- Mermaid Tail -->
  <path d="M327.5 153a99.1 99.1 0 0 0-77.2 48H265c0-17.7-14.3-32-32-32h-113.3A99.1 99.1 0 0 0 153 101v0a99.1 99.1 0 0 0 167 48z" fill="#004c36"/>

  <!-- Shading & Details -->
  <path d="M327.5 153a99.1 99.1 0 0 0-77.2 48H265c0-17.7-14.3-32-32-32h-113.3A99.1 99.1 0 0 0 153 101v0a99.1 99.1 0 0 0 167 48z" fill="#005f4a"/>
</svg>