<svg xmlns="http://www.w3.org/2000/svg" viewBox="0 0 600 800">

  <!-- Body -->
  <path d="M150 270 Q100 400, 150 650 Q200 800, 300 700 Q400 800, 450 650 Q500 400, 450 270" fill="url(#mermaidGradient)"/>

  <!-- Tail fin -->
  <path d="M150 650 Q200 750, 300 800 Q400 750, 450 650" fill="url(#tailFinGradient)" stroke="#000"/>

  <!-- Scales -->
  <pattern id="scalesPattern" width="10" height="10">
    <rect x="0" y="0" width="10" height="10" fill="url(#scaleGradient)"/>
  </pattern>
  <rect width="350" height="200" fill="url(#scalesPattern)" transform="translate(50,600) rotate(-45)"/>

  <!-- Hair -->
  <path d="M150 170 Q90 280, 150 430 Q210 280, 150 170" fill="#000"/>

  <!-- Face -->
  <circle cx="150" cy="150" r="60" fill="url(#faceGradient)"/>
  <circle cx="140" cy="135" r="5" fill="#fff"/>
  <circle cx="160" cy="135" r="5" fill="#fff"/>

  <!-- Eyes -->
  <circle cx="140" cy="125" r="8" fill="#fff"/>
  <circle cx="140" cy="125" r="6" fill="#000"/>
  <circle cx="160" cy="125" r="8" fill="#fff"/>
  <circle cx="160" cy="125" r="6" fill="#000"/>

  <!-- Arms -->
  <path d="M130 220 Q90 300, 130 400 Q170 300, 130 220" fill="#000"/>
  <rect x="105" y="360" width="20" height="40" fill="#000"/>

</svg>