<svg width="600" height="400" xmlns="http://www.w3.org/2000/svg">

  <!-- Background -->
  <rect x="0" y="0" width="600" height="400" fill="#212F3C"/>

  <!-- Mermaid's body -->
  <path d="M100,150 Q150,75 200,150 Q250,225 300,150 Q350,75 400,150 Q450,225 500,150" fill="#F0E68C"/>
  <path d="M100,275 Q150,325 200,275 Q250,375 300,275 Q350,325 400,275 Q450,375 500,275" fill="#B3D9FF"/>

  <!-- Mermaid's tail -->
  <path d="M100,350 Q150,400 200,350 Q250,450 300,350 Q350,400 400,350 Q450,450 500,350" fill="#63879E"/>

</svg>