<svg xmlns="http://www.w3.org/2000/svg" viewBox="0 0 500 600">
  <!-- Background -->
  <rect width="100%" height="100%" fill="#000"/>

  <!-- Mermaid Outline -->
  <path d="M250,50 Q200,100 175,200 Q300,250 325,200 Q400,100 250,50 Z" fill="#fff"/>

  <!-- Skin Tones -->
  <linearGradient id="skinTones" x1="0%" y1="0%" x2="100%" y2="100%">
    <stop offset="0%" style="stop-color:#87CEEB; stop-opacity:1"/>
    <stop offset="50%" style="stop-color:#ADD8E6; stop-opacity:1"/>
    <stop offset="100%" style="stop-color:#87CEEB; stop-opacity:.8"/>
  </linearGradient>
  <path d="M250,50 Q200,100 175,200 Q300,250 325,200 Q400,100 250,50" fill="url(#skinTones)"/>

  <!-- Hair and Tail Fin -->
  <path d="M250,50 Q225,75 200,150 Q300,175 325,150 Q350,75 275,50 Z" fill="#008000"/>

  <!-- Gems and Jewels -->
  <circle cx="225" cy="175" r="10" fill="#FF0000"/>
  <circle cx="275" cy="175" r="10" fill="#800080"/>
  <circle cx="325" cy="175" r="10" fill="#CD7F32"/>

  <!-- Glowing Aura -->
  <radialGradient id="glow" cx="50%" cy="50%" r="50%" fx="50%" fy="50%">
    <stop offset="0%" style="stop-color:#ADD8E6; stop-opacity:.5"/>
    <stop offset="100%" style="stop-color:#000; stop-opacity:0"/>
  </radialGradient>
  <ellipse cx="250" cy="300" rx="275" ry="350" fill="url(#glow)"/>

</svg>