<svg xmlns="http://www.w3.org/2000/svg" width="800" height="600">
```

2. **Create the background pattern**: Begin at the edges with a simple, repeating line pattern to serve as the background.

```svg
  <rect width="100%" height="100%" fill="#F3F3F3"/>
  <pattern id="lines" patternUnits="userSpaceOnUse" width="40" height="40">
    <path d="M 0,0 L 40,40 M 0,40 L 40,0" stroke="#E0E0E0" stroke-width="2"/>
  </pattern>
  <rect width="100%" height="100%" fill="url(#lines)"/>
```

3. **Draw the mermaid's outline**: Using interconnected shapes and curves, sketch out the basic form of the mermaid. I'll use a combination of rectangles, circles, and paths for this.

```svg
  <g stroke="#4CAF50" stroke-width="2">
    <!-- Upper body -->
    <rect x="100" y="100" width="600" height="300" rx="50"/>

    <!-- Tail fin -->
    <path d="M 700,400 Q 750,500 800,400"/>

    <!-- Head -->
    <circle cx="200" cy="150" r="50"/>
```

4. **Add intricate details in the center**: Flesh out the mermaid's form with more complex shapes and lines. I'll use paths for hair, scales, and other detailed patterns.

```svg
    <!-- Hair -->
    <path d="M 200,100 Q 250,50 300,100 Q 250,150 200,150"/>

    <!-- Scales on tail fin -->
    <pattern id="scales" patternUnits="userSpaceOnUse" width="40" height="20">
      <path d="M 0,0 L 40,0 A 20,20 0 0 1 0,20 A 20,20 0 0 1 0,0 Z" fill="#D5E1DD"/>
    </pattern>
    <rect x="700" y="380" width="100" height="120" fill="url(#scales)"/>

    <!-- Face features -->
    <circle cx="200" cy="160" r="5" fill="#4CAF50"/>
    <path d="M 200,180 Q 210,200 220,180 Q 230,200 240,180" stroke="#4CAF50" stroke-width="2"/>
```

5. **Ensure harmony throughout the design**: Add final touches like colors, gradients, and shadows to tie everything together.

```svg
    <!-- Gradients for mermaid's body -->
    <linearGradient id="bodyGradient" x1="0%" y1="0%" x2="100%" y2="100%">
      <stop offset="0%" style="stop-color:#4CAF50; stop-opacity:1"/>
      <stop offset="100%" style="stop-color:#388E3C; stop-opacity:1"/>
    </linearGradient>
    <rect x="100" y="100" width="600" height="300" rx="50" fill="url(#bodyGradient)"/>

    <!-- Shadow for the mermaid -->
    <rect x="98" y="98" width="602" height="302" rx="48" fill="#0000004D"/>
  </g>
</svg>