<svg xmlns="http://www.w3.org/2000/svg" viewBox="0 0 500 400">
  <!-- Head -->
  <ellipse cx="100" cy="75" rx="50" ry="60" fill="#FFD700"/>
  <path d="M80 65 Q90 50, 100 65" stroke="#000000" fill="transparent"/>

  <!-- Eyes -->
  <circle cx="90" cy="65" r="10" fill="#FFFFFF"/>
  <circle cx="90" cy="75" r="5" fill="#000000"/>
  <circle cx="110" cy="65" r="10" fill="#FFFFFF"/>
  <circle cx="110" cy="75" r="5" fill="#000000"/>

  <!-- Mouth -->
  <path d="M80 95 Q120 110, 160 95" stroke="#000000" fill="transparent"/>

  <!-- Hair -->
  <path d="M70 35 C85 10, 145 10, 160 35 H220 Q190 5, 220 35 H280 Q250 5, 280 35 Z" fill="#000000"/>

  <!-- Body -->
  <ellipse cx="175" cy="140" rx="60" ry="90" fill="#FFD700"/>
  <ellipse cx="245" cy="140" rx="60" ry="90" fill="#FFD700"/>
  <path d="M175 140 Q215 80, 245 140"/>

  <!-- Tail -->
  <defs>
    <linearGradient id="tailGradient" x1="0%" y1="0%" x2="0%" y2="100%">
      <stop offset="0%" style="stop-color:#008B8B"/>
      <stop offset="100%" style="stop-color:#48CAFA"/>
    </linearGradient>
  </defs>
  <path d="M250 170 Q320 300, 400 160" fill="url(#tailGradient)"/>

</svg>