<svg xmlns="http://www.w3.org/2000/svg" viewBox="-10 50 420 690">
  <path id="mermaid" d="M 200 50 A 180 180 0 1 0 200 400 L 200 370 Z"/>
  <path d="M 200 370 A 60 60 0 0 1 140 450 A 80 80 0 0 1 100 500 Z"/>
  <path d="M 200 370 Q 260 400, 220 450 Q 180 500, 200 550 Z"/>
  <path d="M 220 480 L 160 530 L 180 570 Z" />
  <path d="M 200 480 L 240 530 L 220 570 Z"/>
  <path d="M 160 530 L 120 580 L 140 620 Z" />
  <path d="M 240 530 L 280 580 L 260 620 Z"/>
  <path d="M 140 620 A 20 20 0 0 1 160 640 Q 170 660, 180 680 Z"/>
</svg>