<svg width="300" height="400" xmlns="http://www.w3.org/2000/svg">

  <!-- Land -->
  <path d="M-50 -50 Q-150 50 -50 150 Q50 200 150 150 Q200 50 150 -50" fill="#8DC63C"/>

  <!-- Water -->
  <path d="M-150 -150 Q0 -100 50 -50 Q150 0 200 -50 H300 V400 H-300 Z" fill="#1F45FC"/>

  <!-- Coral Reefs -->
  <path d="M-150 -50 Q-100 -25 -50 0 Q0 50 50 150 Q75 125 50 100 Q25 -25 -50 -50" fill="url(#coralGradient)"/>

  <!-- Sunken Ship -->
  <path d="M-100 100 Q-50 125 -50 150" stroke="#654321" fill="none" stroke-width="2"/>

  <!-- Mermaids' Homes -->
  <rect x="0" y="200" width="100" height="100" fill="#E6BEFF"/>
  <path d="M-150 0 Q-100 25 -50 50 Q0 75 50 100 Q75 75 100 50 Q125 25 -150 0" fill="#E6BEFF"/>

  <!-- Whirlpool -->
  <path d="M-200 -100 a100 100 0 1 0 200 0 a100 100 0 1 0 -200 0" stroke="#007FFF" fill="none" stroke-width="5"/>

  <!-- Volcanic Vent -->
  <path d="M150 -50 Q200 0 150 50 Q100 0 150 -50" stroke="#FF4500" fill="none" stroke-width="2"/>

  <defs>
    <linearGradient id="coralGradient" x1="0%" y1="0%" x2="100%" y2="100%">
      <stop offset="0%" style="stop-color:pink;"/>
      <stop offset="100%" style="stop-color:orange;"/>
    </linearGradient>
  </defs>

</svg>