<svg width="500" height="500" xmlns="http://www.w3.org/2000/svg">

  <!-- Body -->
  <path d="M225 170 Q250 140, 250 190 Q280 160, 300 190 Q320 170, 330 200 V450 Q330 470, 290 480 Q250 470, 225 450 V170" fill="#8DC63C"/>

  <!-- Hair -->
  <path d="M220 120 C240 90, 270 110, 290 90 310 110, 330 90 350 110 Q360 80, 380 90 V500 H400 V90 Q390 70, 370 80 Z" stroke="#000"/>

  <!-- Head -->
  <circle cx="250" cy="130" r="40" fill="#FFF"/>

  <!-- Eyes -->
  <circle cx="235" cy="115" r="15" fill="#FFF"/>
  <circle cx="265" cy="115" r="15" fill="#FFF"/>
  <circle cx="240" cy="110" r="5" fill="#000"/>
  <circle cx="270" cy="110" r="5" fill="#000"/>

  <!-- Tail -->
  <path d="M330 200 Q360 240, 380 260 Q420 270, 450 290 Q480 310, 490 330 Z" fill="#2F480E"/>
  <path d="M330 200 Q360 220, 380 240 Q420 250, 450 270 Q480 290, 490 310 Z" fill="#365F2D"/>
  <path d="M330 200 Q360 210, 380 230 Q420 240, 450 260 Q480 280, 490 300 Z" fill="#4B7A3F"/>

</svg>