<svg width="500" height="500" xmlns="http://www.w3.org/2000/svg">

  <!-- Body -->
  <path id="shark-body" d="M175,40 C225,60 275,80 300,90 Q350,100 375,80 H325 Z"
        fill="#2D7F8E" stroke="#0A3C40"/>

  <!-- Fin -->
  <path d="M375,80 Q400,60 375,40 Q350,60 375,80 Z"
        fill="url(#fin-gradient)" />

  <!-- Tail -->
  <path id="shark-tail" d="M425,100 Q450,90 425,80 V450 H400 Z"
        fill="#2D7F8E"/>

  <!-- Head -->
  <circle cx="175" cy="40" r="30" fill="#AED6DC"/>
  <path d="M125,75 Q90,75 125,90 Z"
        fill="#AED6DC"/>

  <!-- Eye -->
  <circle cx="155" cy="45" r="5" fill="#000"/>
  <circle cx="185" cy="45" r="5" fill="#000"/>

  <!-- Gills -->
  <rect x="165" y="25" width="30" height="20"
        style="fill:transparent;stroke:#0A3C40;stroke-width:2"/>

  <!-- Nostrils -->
  <circle cx="175" cy="60" r="5" fill="#000"/>
  <circle cx="185" cy="60" r="5" fill="#000"/>

  <!-- Fin Gradient -->
  <defs>
    <linearGradient id="fin-gradient" x1="0%" y1="0%" x2="100%" y2="100%">
      <stop offset="0%" style="stop-color:#AED6DC"/>
      <stop offset="100%" style="stop-color:#558B94"/>
    </linearGradient>
  </defs>

</svg>