<svg width="100%" height="100%" viewBox="0 0 800 600">
```

Now, let's add our instruments and assign note values:

1. **Drums (circles)**: Smaller circles will represent shorter notes or lower pitch.
2. **Violins (rectangles)**: Rectangles of varying heights will represent different notes. Taller rectangles will signify higher pitches or longer notes.
3. **Guitars (paths)**: Complex paths will represent intricate melodies.

Let's start with a simple rhythm using drums:

```svg
<circle cx="50" cy="200" r="10" fill="darkblue"/>
<circle cx="100" cy="200" r="8" fill="darkblue"/>
<circle cx="150" cy="200" r="6" fill="darkblue"/>
```

Next, we'll add some violins for harmony:

```svg
<rect x="200" y="150" width="40" height="80" fill="orange"/>
<rect x="240" y="130" width="60" height="100" fill="orange"/>
<rect x="280" y="120" width="80" height="120" fill="orange"/>
```

Finally, let's add a guitar path for the main melody:

```svg
<path d="M350 100 Q400 200, 450 150 Q500 250, 550 180 Q600 220, 650 150" stroke="black" fill="transparent"/>
```

For dynamics, we'll use color gradients to represent crescendos:

```svg
<circle cx="50" cy="200" r="10" fill="url(#grad1)"/>
<circle cx="100" cy="200" r="8" fill="url(#grad2)"/>
<circle cx="150" cy="200" r="6" fill="url(#grad3)"/>

<defs>
  <linearGradient id="grad1" x1="0%" y1="0%" x2="100%" y2="0%">
    <stop offset="0%" style="stop-color:darkblue; stop-opacity:1"/>
    <stop offset="100%" style="stop-color:lightblue; stop-opacity:1"/>
  </linearGradient>
  <linearGradient id="grad2" x1="0%" y1="0%" x2="100%" y2="0%">
    <stop offset="0%" style="stop-color:darkgreen; stop-opacity:1"/>
    <stop offset="100%" style="stop-color:lightgreen; stop-opacity:1"/>
  </linearGradient>
  <linearGradient id="grad3" x1="0%" y1="0%" x2="100%" y2="0%">
    <stop offset="0%" style="stop-color:darkred; stop-opacity:1"/>
    <stop offset="100%" style="stop-color:lightred; stop-opacity:1"/>
  </linearGradient>
</defs>
```

Here's the complete SVG score:

```svg
<svg width="100%" height="100%" viewBox="0 0 800 600">
  <circle cx="50" cy="200" r="10" fill="url(#grad1)"/>
  <circle cx="100" cy="200" r="8" fill="url(#grad2)"/>
  <circle cx="150" cy="200" r="6" fill="url(#grad3)"/>

  <rect x="200" y="150" width="40" height="80" fill="orange"/>
  <rect x="240" y="130" width="60" height="100" fill="orange"/>
  <rect x="280" y="120" width="80" height="120" fill="orange"/>

  <path d="M350 100 Q400 200, 450 150 Q500 250, 550 180 Q600 220, 650 150" stroke="black" fill="transparent"/>

  <defs>
    <linearGradient id="grad1" x1="0%" y1="0%" x2="100%" y2="0%">
      <stop offset="0%" style="stop-color:darkblue; stop-opacity:1"/>
      <stop offset="100%" style="stop-color:lightblue; stop-opacity:1"/>
    </linearGradient>
    <linearGradient id="grad2" x1="0%" y1="0%" x2="100%" y2="0%">
      <stop offset="0%" style="stop-color:darkgreen; stop-opacity:1"/>
      <stop offset="100%" style="stop-color:lightgreen; stop-opacity:1"/>
    </linearGradient>
    <linearGradient id="grad3" x1="0%" y1="0%" x2="100%" y2="0%">
      <stop offset="0%" style="stop-color:darkred; stop-opacity:1"/>
      <stop offset="100%" style="stop-color:lightred; stop-opacity:1"/>
    </linearGradient>
  </defs>
</svg>