<svg xmlns="http://www.w3.org/2000/svg" viewBox="0 0 400 250">
  <!-- Body -->
  <path d="M100,50 Q160,70 220,50 Q280,70 340,50 Q300,120 220,150 Q140,120 100,150"
        fill="blue" stroke="black"/>

  <!-- Fin -->
  <path d="M60,80 L100,100 L60,120 Z"
        fill="transparent" stroke="black"/>

  <!-- Tail -->
  <path d="M340,50 Q360,70 380,50"
        fill="blue" stroke="black"/>

  <!-- Dorsal fins (4 pieces) -->
  <circle cx="120" cy="90" r="10"/>
  <circle cx="150" cy="80" r="8"/>
  <circle cx="170" cy="90" r="10"/>
  <circle cx="200" cy="90" r="8"/>

  <!-- Pectoral fins (2 pieces) -->
  <path d="M60,140 Q80,150 100,140"
        fill="transparent" stroke="black"/>
  <path d="M340,140 Q320,150 300,140"
        fill="transparent" stroke="black"/>

  <!-- Eyes -->
  <circle cx="180" cy="60" r="5" fill="white"/>
  <circle cx="220" cy="60" r="5" fill="white">
    <circle cx="220" cy="60" r="3" fill="black"/>
  </circle>

  <!-- Gradient for shading -->
  <linearGradient id="sharkGradient" x1="0%" y1="0%" x2="100%" y2="100%">
    <stop offset="0%" style="stop-color:rgb(0,0,0);stop-opacity:0"/>
    <stop offset="100%" style="stop-color:rgb(0,0,0);stop-opacity:.5"/>
  </linearGradient>

  <!-- Apply gradient to body -->
  <path d="M100,50 Q160,70 220,50 Q280,70 340,50 Q300,120 220,150 Q140,120 100,150"
        fill="url(#sharkGradient)" stroke="black"/>

</svg>