<svg width="100" height="100" xmlns="http://www.w3.org/2000/svg">
  <!-- Body -->
  <path d="M50,10 Q60,30 70,40 Q80,30 90,10 L90,50 Q80,70 70,80 Q60,70 50,50 Z"
        fill="lightblue" stroke="black"/>

  <!-- Fin (Dorsal) -->
  <path d="M40,20 Q30,10 20,15 L20,30 Q30,40 40,35 Z"
        fill="lightblue" stroke="black"/>

  <!-- Fins (Pectoral and Pelvic) -->
  <g stroke="black">
    <path d="M30,50 Q20,60 10,55 L10,45 Q20,40 30,45 Z"/>
    <path d="M70,50 Q80,60 90,55 L90,45 Q80,40 70,45 Z"/>
    <path d="M50,80 Q40,90 30,85 L30,75 Q40,70 50,75 Z"/>
    <path d="M50,20 Q60,10 70,15 L70,25 Q60,30 50,25 Z"/>
  </g>

  <!-- Head -->
  <circle cx="50" cy="10" r="10" fill="lightblue"/>

  <!-- Eyes -->
  <circle cx="45" cy="8" r="2" fill="black"/>
  <circle cx="55" cy="8" r="2" fill="black"/>

</svg>