<svg width="500" height="400" xmlns="http://www.w3.org/2000/svg">
  <!-- Body -->
  <circle cx="150" cy="200" r="80" fill="#6D7F59" stroke="#CACFD2" stroke-width="2"/>
  <path d="M140 150 Q130 160, 130 170 H170 Q180 160, 170 150 Z" fill="#CACFD2"/>

  <!-- Fin outlines -->
  <rect x="110" y="240" width="90" height="60" fill="transparent" stroke="#CACFD2" stroke-width="2"/>
  <rect x="130" y="80" width="70" height="70" fill="transparent" stroke="#CACFD2" stroke-width="2"/>
  <polygon points="190,240 260,240 225,200" fill="transparent" stroke="#CACFD2" stroke-width="2"/>

  <!-- Tail fin -->
  <path d="M270,230 Q280,220, 290,210 H260 L270,180 Z" fill="#CACFD2"/>
  <circle cx="275" cy="240" r="5" fill="#6D7F59"/>

  <!-- Dorsal fin -->
  <polygon points="30,80 70,60 30,100" fill="#CACFD2"/>
  <circle cx="50" cy="75" r="3" fill="#6D7F59"/>

  <!-- Eye pupil -->
  <path d="M80,75 a30,30 0 1,0 60,0 a30,30 0 1,0 -60,0 fill="black"/>
</svg>