<svg width="600" height="400" viewBox="0 0 600 400" xmlns="http://www.w3.org/2000/svg">

<!-- Background grass -->
<rect x="0" y="350" width="600" height="50" fill="#8DC63C"/>

<!-- Sunlight colored plants (right side) -->
<!-- Roses (circles) -->
<circle cx="450" cy="150" r="50" fill="#FF5733"/>
<circle cx="520" cy="200" r="40" fill="#FFC300"/>
<circle cx="580" cy="120" r="60" fill="#FF5733"/>

<!-- Daisies (ellipses) -->
<ellipse cx="480" cy="250" rx="70" ry="30" fill="#FFFF99"/>
<ellipse cx="550" cy="210" rx="60" ry="20" fill="#FFC300"/>

<!-- Shade colored plants (left side) -->
<!-- Roses (circles) -->
<circle cx="80" cy="180" r="45" fill="#90BE6D"/>
<circle cx="150" cy="220" r="55" fill="#77A754"/>
<circle cx="230" cy="150" r="40" fill="#90BE6D"/>

<!-- Daisies (ellipses) -->
<ellipse cx="110" cy="280" rx="60" ry="25" fill="#C6E2FF"/>
<ellipse cx="170" cy="230" rx="50" ry="20" fill="#90BE6D"/>

<!-- Tulips (paths) -->
<path d="M280,350 Q320,320 360,350 T400,350" stroke="#FF4500" fill="transparent"/>
<path d="M320,370 Q360,390 400,370 T440,370" stroke="#FF4500" fill="transparent"/>

<!-- Nurse Shark -->
<path d="M180,120 C240,60 360,60 420,120 Q540,240 600,180" stroke="#0099FF" fill="transparent"/>

</svg>