<svg xmlns="http://www.w3.org/2000/svg" viewBox="-15 -4 30 8">
  <!-- Body -->
  <path d="M-10,-4 A5,5 0 0 1 0,-1 L10,-1 A5,5 0 0 1 0,4 Z"
        fill="#7F9DB9" stroke="#6E8492" stroke-width="1"/>

  <!-- Dorsal Fins -->
  <path d="M-5,1 L-3,3 L-1,1 L0,-1 L3,3 L5,1"
        fill="url(#dorsal-fin-gradient)" stroke="#6E8492" stroke-width="1"/>

  <!-- Pectoral Fins -->
  <path d="M-15,-4 Q-10,-2 -5,-4 L0,-4 Z"
        fill="url(#pectoral-fin-gradient)" stroke="#6E8492" stroke-width="1"/>

  <!-- Caudal Fin -->
  <path d="M5,-4 A5,3 0 0 1 10,-1 L10,1 A5,3 0 0 1 5,-4"
        fill="#7F9DB9" stroke="#6E8492" stroke-width="1"/>

  <!-- Eyes -->
  <circle cx="-5" cy="-2" r="2" fill="black"/>
  <circle cx="0" cy="-2" r="2" fill="black"/>

  <!-- Gradient Definitions -->
  <defs>
    <linearGradient id="dorsal-fin-gradient" x1="0%" y1="0%" x2="100%" y2="100%">
      <stop offset="0%" style="stop-color:#7F9DB9; stop-opacity:1"/>
      <stop offset="100%" style="stop-color:#6E8492; stop-opacity:1"/>
    </linearGradient>
    <linearGradient id="pectoral-fin-gradient" x1="0%" y1="0%" x2="100%" y2="100%">
      <stop offset="0%" style="stop-color:#7F9DB9; stop-opacity:1"/>
      <stop offset="100%" style="stop-color:#6E8492; stop-opacity:1"/>
    </linearGradient>
  </defs>
</svg>