<svg xmlns="http://www.w3.org/2000/svg" viewBox="0 0 20 15">

  <!-- Body -->
  <path fill="#8B8989" d="
    M 10 5
    L 0 15
    L 20 15
    L 10 5
    H 8.5
    A 7,7 0 0,1 3.5 10
    Z
  "/>

  <!-- Fins -->
  <path fill="#C6BDBD" d="
    M 2 9 Q 4 11 6 9 H 14 Q 12 11 10 9 V 7 Z
    M 3.5 9 Q 1.5 11 0 9 H 7 Q 8.5 11 10.5 9 V 7 Z
    M 16.5 9 Q 14.5 11 12.5 9 H 13.5 Q 15.5 11 17 9 V 7 Z
  "/>

  <!-- Tail -->
  <path fill="#C6BDBD" d="
    M 18 10 Q 16 8 14 10 H 12 Q 13 8 15 10 Z
  "/>

  <!-- Eyes -->
  <circle cx="2.5" cy="7.5" r="0.5" fill="#FFFFFF"/>
  <circle cx="17.5" cy="7.5" r="0.5" fill="#FFFFFF"/>

</svg>