<svg width="200" height="200" xmlns="http://www.w3.org/2000/svg">
  <!-- Background -->
  <rect x="10" y="10" width="180" height="180" fill="#333" />

  <!-- Body and Wings -->
  <path d="M50,40 Q90,60 140,40 Q170,80 120,120 Q80,150 30,120 Q60,80 10,40" fill="#4d4d4d" stroke="none" />

  <!-- Eyes -->
  <circle cx="90" cy="70" r="2" fill="#000" />
  <circle cx="135" cy="70" r="2" fill="#000" />

  <!-- Beak -->
  <path d="M80,45 Q95,60 110,45" fill="#ffdfba" stroke="none" />

  <!-- Feathers -->
  <polygon points="70,35 90,25 110,35" fill="url(#feathers)" />
  <polygon points="80,60 100,45 120,60" fill="url(#feathers)" />

  <!-- Background Stone -->
  <rect x="12" y="12" width="176" height="176" fill="#3f3f3f" stroke="#fff" stroke-width="1" />

  <!-- Pendant bail -->
  <path d="M50,18 Q60,25 70,18" fill="#4d4d4d" stroke="none" />
  <path d="M70,18 L90,30 L110,18" fill="#4d4d4d" stroke="none" />

  <!-- Gradient for Feathers -->
  <defs>
    <linearGradient id="feathers" x1="0%" y1="0%" x2="100%" y2="100%">
      <stop offset="0%" style="stop-color:rgb(37,204,215); stop-opacity:1" />
      <stop offset="100%" style="stop-color:rgb(99,161,188); stop-opacity:1" />
    </linearGradient>
  </defs>
</svg>