<svg width="200" height="200" xmlns="http://www.w3.org/2000/svg">
  <!-- Body -->
  <path d="M 50,50 m -43,0 a 43,43 0 1,0 86,0 a 43,43 0 1,0 -86,0" fill="none" stroke="#422908" stroke-width="7"/>
  <path d="M 50,50 m -35,0 a 35,35 0 1,0 70,0 a 35,35 0 1,0 -70,0" fill="none" stroke="#A7855F" stroke-width="5"/>

  <!-- Feathers -->
  <path d="M 50,17 a 30,30 0 0,1 60,0 a 30,30 0 0,1 -60,0" fill="none" stroke="#422908" stroke-width="7"/>
  <path d="M 50,23 a 24,24 0 0,1 48,0 a 24,24 0 0,1 -48,0" fill="none" stroke="#A7855F" stroke-width="4.5"/>

  <!-- Eyes -->
  <circle cx="70" cy="30" r="5" fill="#FFFFFF"/>
  <circle cx="60" cy="25" r="1.5" fill="#422908"/>
  <circle cx="80" cy="25" r="1.5" fill="#422908"/>
  <circle cx="68" cy="23" r="1" fill="#000000"/>
  <circle cx="72" cy="23" r="1" fill="#000000"/>

  <!-- Outline -->
  <path d="M 50,5 m -45,0 a 45,45 0 1,0 90,0 a 45,45 0 1,0 -90,0" fill="none" stroke="#422908" stroke-width="1"/>
</svg>