<svg width="500" height="400" viewBox="0 0 500 400" xmlns="http://www.w3.org/2000/svg">

  <!-- Black Backdrop -->
  <rect x="0" y="0" width="500" height="400" fill="#000"/>

  <!-- Yellow Spotlight -->
  <circle cx="250" cy="200" r="180" fill="yellow" opacity="0.7"/>

  <!-- Owl Puppet -->
  <g stroke="#fff" stroke-width="3" fill="none">

    <!-- Head -->
    <path id="owl_head" d="M240,150 Q260,120 280,150"/>
    <circle r="5" cx="240" cy="150"/>

    <!-- Body -->
    <path id="owl_body" d="M260,170 Q260,190 260,210"/>
    <circle r="5" cx="260" cy="210"/>

    <!-- Left Wing -->
    <path id="owl_wing_L" d="M240,180 Q220,200 200,180"/>
    <circle r="5" cx="200" cy="180"/>

    <!-- Right Wing -->
    <path id="owl_wing_R" d="M280,180 Q300,200 320,180"/>
    <circle r="5" cx="320" cy="180"/>

  </g>

  <!-- Marionette Strings -->

  <!-- Head strings -->
  <line x1="240" y1="140" x2="240" y2="160" stroke="#fff"/>
  <line x1="240" y1="160" x2="240" y2="180" stroke="#fff"/>

  <!-- Body strings -->
  <line x1="260" y1="160" x2="260" y2="220" stroke="#fff"/>
  <line x1="260" y1="220" x2="260" y2="240" stroke="#fff"/>

  <!-- Left wing strings -->
  <line x1="200" y1="170" x2="200" y2="150" stroke="#fff"/>
  <line x1="200" y1="190" x2="200" y2="210" stroke="#fff"/>

  <!-- Right wing strings -->
  <line x1="320" y1="170" x2="320" y2="150" stroke="#fff"/>
  <line x1="320" y1="190" x2="320" y2="210" stroke="#fff"/>

  <!-- Owl Glow -->
  <circle cx="260" cy="200" r="40" fill="none" stroke="#ffa502" stroke-width="10" opacity="0.7"/>

</svg>