<svg width="200" height="200" xmlns="http://www.w3.org/2000/svg">
  <!-- Owl outline -->
  <path d="M100 50 Q140 10 180 50 Q160 90 120 120 Q70 90 30 50" fill="none" stroke="#000" stroke-width="2"/>

  <!-- Body outline diamonds -->
  <g stroke="#fff" stroke-width="0.5">
    <path d="M84,60 L116,60 L116,97 L84,97 Z"/>
    <path d="M73,72 L84,82 L95,72 Z"/>
    <path d="M113,72 L124,82 L135,72 Z"/>
  </g>

  <!-- Eyes -->
  <circle cx="60" cy="60" r="3.5" fill="#000"/>
  <circle cx="140" cy="60" r="3.5" fill="#000"/>

  <!-- Feathers (blue sapphires) -->
  <g fill="#00f">
    <rect x="70" y="85" width="50" height="20"/>
    <polygon points="120,90 140,100 160,90"/>
  </g>

  <!-- Citrine highlights -->
  <g fill="#ffa500">
    <circle cx="85" cy="95" r="3.5"/>
    <circle cx="135" cy="95" r="3.5"/>
  </g>

  <!-- Black spinel streaks and details -->
  <g fill="#000">
    <rect x="75" y="88" width="2" height="14"/>
    <path d="M90,85 L95,90 L90,95 Z"/>
    <path d="M130,85 L135,90 L130,95 Z"/>
  </g>
</svg>