<svg width="500" height="500" xmlns="http://www.w3.org/2000/svg">
```

2. **Create the basic body shape**: Draw an ellipse for the owl's body, positioned in the center of the canvas.

```svg
  <ellipse cx="250" cy="250" rx="170" ry="120"/>
```

3. **Add the head and neck**: Draw a larger ellipse for the head on top of the body ellipse, connected by a smaller ellipse for the neck.

```svg
  <ellipse cx="250" cy="180" rx="90" ry="60"/>
  <ellipse cx="250" cy="220" rx="70" ry="40"/>
```

4. **Create the wings**: Draw two symmetric shapes for the wings using polygons or polylines, connecting them to the body ellipse.

```svg
  <!-- Left wing -->
  <polyline points="160,250 80,320 160,390"/>

  <!-- Right wing -->
  <polyline points="340,250 400,320 340,390"/>
```

5. **Add the eyes and beak**: Draw two circles for the eyes and a triangle for the beak using paths.

```svg
  <!-- Left eye -->
  <circle cx="180" cy="150" r="10"/>

  <!-- Right eye -->
  <circle cx="320" cy="150" r="10"/>

  <!-- Beak -->
  <path d="M260,170 L290,140 L260,110"/>
```

6. **Define the feathers**: Add details to the wings and body by drawing numerous small triangles or teardrop shapes using paths.

```svg
<!-- Example of a few feathers on the left wing -->
<path d="M85,320 L70,335 L90,335"/>

<!-- Repeat similar paths for other feathers on both wings and body -->
```

7. **Add final details**: Draw lines or curves for the talons, eyebrows, and any other fine details.

```svg
<!-- Talons -->
<path d="M160,390 L140,420 L180,420"/>

<!-- Eyebrows -->
<path d="M175,140 Q190,130 205,140"/>
```

8. **Fill and stroke**: Apply colors and styles to the owl using fill, stroke, and other SVG attributes.

```svg
<style>
  .owl { fill: brown; stroke: black; }
</style>

<ellipse cx="250" cy="250" rx="170" ry="120" class="owl"/>
<!-- Repeat the 'owl' class for all elements -->
```

9. **Close the SVG tag**: Don't forget to close the SVG element and save the file with an .svg extension.

```svg
</svg>