<svg width="800" height="600" xmlns="http://www.w3.org/2000/svg">
  <!-- Background -->
  <rect id="background" x="0" y="0" width="100%" height="100%" fill="#0C4B5E"/>
  <pattern id="texture" patternUnits="userSpaceOnUse" width="5" height="5">
    <path d="M0,2.5 l2.5,-2.5 M2.5,2.5 l2.5,2.5" stroke="#3D4E6A" stroke-width="1"/>
  </pattern>
  <rect x="0" y="0" width="800" height="600" fill="url(#texture)"/>

  <!-- Mountain -->
  <path id="mountain" d="M250,100 Q400,75 500,100 Q550,300 600,200 Q700,150 800,250 L800,600 H0 Z" fill="url(#mountainGradient)"/>
  <linearGradient id="mountainGradient" x1="0%" y1="0%" x2="100%" y2="100%">
    <stop offset="0%" style="stop-color:#8B4513; stop-opacity:1"/>
    <stop offset="100%" style="stop-color:#693D1A; stop-opacity:1"/>
  </linearGradient>

  <!-- Trees -->
  <rect id="trunk" x="200" y="300" width="50" height="300" fill="#8B4F36" stroke-width="5" stroke="url(#branchTexture)"/>
  <line x1="250" y1="600" x2="250" y2="300" stroke="url(#branchGradient)" stroke-width="2"/>

  <!-- Leaves -->
  <path id="leaves" d="M220,350 Q240,370 250,410 Q260,390 280,430 Q290,410 300,450 Q310,430 320,470 Z" fill="url(#leavesGradient)"/>
  <linearGradient id="leavesGradient" x1="0%" y1="0%" x2="100%" y2="100%">
    <stop offset="0%" style="stop-color:#3D9970; stop-opacity:1"/>
    <stop offset="100%" style="stop-color:#66BB6A; stop-opacity:1"/>
  </linearGradient>

  <!-- Owl -->
  <ellipse cx="450" cy="250" rx="150" ry="170" fill="#FFF3E0"/>
  <circle cx="450" cy="210" r="60" stroke="#FFDC8D" stroke-width="5"/>

  <!-- Eyes -->
  <circle cx="420" cy="190" r="15" fill="#FFDC8D"/>
  <circle cx="480" cy="190" r="15" fill="#FFDC8D"/>
</svg>