<svg width="500" height="400" xmlns="http://www.w3.org/2000/svg">

  <!-- Background -->
  <rect x="0" y="0" width="500" height="400" fill="url(#grad1)"/>
  <defs>
    <linearGradient id="grad1" x1="0%" y1="0%" x2="100%" y2="100%">
      <stop offset="0%" style="stop-color:rgb(87,146,235);stop-opacity:1"/>
      <stop offset="100%" style="stop-color:rgb(149,213,255);stop-opacity:1"/>
    </linearGradient>
  </defs>

  <!-- Body -->
  <rect x="80" y="70" width="340" height="260" fill="#4A2E22" style="stroke:#000; stroke-width:5"/>

  <!-- Head & Beak -->
  <polygon points="120,70 320,70 270,50 270,280 150,280 150,50" fill="#D9B68F"/>
  <path d="M140,290 Q180,320 260,290 H300 V340 H140 Z" fill="#D9B68F"/>

  <!-- Eyes -->
  <circle cx="210" cy="140" r="50" fill="#FFFF00"/>
  <circle cx="210" cy="140" r="30" fill="#000000"/>

  <!-- Wing Feathers (Top) & Tail Feathers -->
  <polygon points="70,80 90,50 160,80 230,50 300,80 400,50" fill="#4C5A6B"/>
  <polygon points="370,270 330,240 400,270 470,240" fill="#4C5A6B"/>

  <!-- Wing Feathers (Bottom) -->
  <polygon points="140,350 180,320 250,350 310,320" fill="#4C5A6B"/>

</svg>