<svg xmlns="http://www.w3.org/2000/svg" viewBox="-10 -10 80 80">
  <!-- Outline -->
  <path d="M30,75 Q40,60 40,40 C40,20 30,10 30,20 Q20,30 20,40" stroke="#4A2C2A" fill="transparent" stroke-width="5"/>

  <!-- Eyes -->
  <circle cx="35" cy="60" r="8" stroke="#FFDF00" fill="#FFDF00" stroke-width="1"/>
  <circle cx="25" cy="60" r="8" stroke="#FFDF00" fill="#FFDF00" stroke-width="1"/>

  <!-- Beak -->
  <path d="M30,70 Q40,65 40,50 Q30,45 20,50" stroke="#F39800" fill="transparent" stroke-width="3"/>

  <!-- Feathers (Body) -->
  <path d="M30,60 Q40,55 40,40 Q30,45 20,40" stroke="#B76E5F" fill="transparent" stroke-width="1"/>

  <!-- Wings -->
  <path d="M20,50 Q40,35 60,50 Q40,65 20,50" stroke="#A9A9A9" fill="transparent" stroke-width="3"/>

  <!-- Legs & Feet -->
  <path d="M15,20 h-5 L5,10 L20,10 L15,20" stroke="#A9A9A9" fill="transparent" stroke-width="1"/>
  <path d="M35,20 h-5 L40,10 L30,10 L35,20" stroke="#A9A9A9" fill="transparent" stroke-width="1"/>

</svg>