<svg xmlns="http://www.w3.org/2000/svg" viewBox="0 0 500 400">
  <!-- Body -->
  <path d="M100 200 Q150 150, 200 200 Q250 250, 300 200 Q350 150, 400 200 A50 50 0 0 1 400 300 Q350 350, 300 300 Q250 350, 200 300 Q150 350, 100 300"/>

  <!-- Head -->
  <path d="M200 160 A80 80 0 0 0 200 240"/>

  <!-- Beak -->
  <path d="M200 190 Q210 175, 220 180 Q230 175, 240 190"/>

  <!-- Eyes -->
  <circle cx="180" cy="200" r="10"/>
  <circle cx="220" cy="200" r="10"/>

  <!-- Wings -->
  <!-- Left wing... -->

  <!-- Tail -->
  <polygon points="300,350 320,370 340,350 360,370"/>

  <!-- Legs -->
  <line x1="280" y1="300" x2="300" y2="350"/>
  <line x1="320" y1="300" x2="340" y2="350"/>

</svg>