<svg width="500" height="500" xmlns="http://www.w3.org/2000/svg">

  <!-- Define colors -->
  <defs>
    <linearGradient id="blueGrad" x1="0%" y1="0%" x2="100%" y2="100%">
      <stop offset="0%" style="stop-color:rgb(0,95,122);stop-opacity:1" />
      <stop offset="100%" style="stop-color:rgb(64,167,198);stop-opacity:1" />
    </linearGradient>
    <linearGradient id="yellowGrad" x1="0%" y1="0%" x2="100%" y2="100%">
      <stop offset="0%" style="stop-color:rgb(255,241,104);stop-opacity:1" />
      <stop offset="100%" style="stop-color:rgb(255,236,99);stop-opacity:1" />
    </linearGradient>
  </defs>

  <!-- Owl Body -->
  <path id="body" d="M150 100 A80 80 0 0 0 250 100 Z"/>
  <rect x="150" y="100" width="100" height="200" fill="url(#blueGrad)"/>

  <!-- Owl Wings -->
  <path id="wings" d="M350 100 L450 200 L350 300 Z"/>
  <polygon points="350,100 450,200 350,300" fill="url(#blueGrad)"/>

  <!-- Owl Head -->
  <path id="head" d="M275 50 A60 60 0 0 0 350 50 Z"/>
  <ellipse cx="312.5" cy="75" rx="37.5" ry="37.5" fill="#FFF168"/>

  <!-- Owl Eyes -->
  <circle id="eyeLeft" cx="290" cy="70" r="15"/>
  <circle id="eyeRight" cx="335" cy="70" r="15"/>
  <rect x="285" y="65" width="20" height="20" fill="#242424"/>
  <rect x="325" y="65" width="20" height="20" fill="#242424"/>

</svg>