<svg width="500" height="400" xmlns="http://www.w3.org/2000/svg">

  <!-- Body -->
  <ellipse cx="175" cy="220" rx="120" ry="160" fill="#A9C2B8"/>

  <!-- Head -->
  <path d="M175,100 Q140,75 175,50 Q210,75 175,100 Z" fill="#D3ECD6"/>

  <!-- Eyes -->
  <circle cx="150" cy="80" r="20" fill="#FDD"/>
  <circle cx="200" cy="80" r="20" fill="#FDD"/>
  <circle cx="150" cy="70" r="10" fill="#3D3A35"/>
  <circle cx="200" cy="70" r="10" fill="#3D3A35"/>

  <!-- Beak -->
  <path d="M160,90 Q140,80 170,90 Q180,80 170,90" fill="#FFC27B"/>

  <!-- Wings -->
  <polygon points="50,175 100,250 30,225" fill="#A9C2B8"/>
  <polygon points="340,175 280,250 310,225" fill="#A9C2B8"/>

  <!-- Legs and Talons -->
  <rect x="160" y="260" width="20" height="60" fill="#D3ECD6"/>
  <circle cx="170" cy="320" r="5" fill="#D3ECD6"/>
  <circle cx="180" cy="340" r="5" fill="#D3ECD6"/>
  <circle cx="190" cy="320" r="5" fill="#D3ECD6"/>

</svg>