<svg width="800" height="600" xmlns="http://www.w3.org/2000/svg">

  <!-- Background -->
  <rect width="100%" height="100%" fill="#0000FF"/>

  <!-- Stage floor -->
  <rect x="50" y="450" width="700" height="50" fill="#A9A9A9"/>

  <!-- Owl Marionette -->

  <!-- Head -->
  <circle id="H" cx="400" cy="200" r="50" fill="url(#owl-pattern)" />
  <line x1="375" y1="150" x2="425" y2="150" stroke="#FFFFFF" /> <!-- T -->
  <line x1="400" y1="250" x2="400" y2="300" stroke="#FFFFFF" /> <!-- B -->

  <!-- Body -->
  <ellipse id="BD" cx="400" cy="300" rx="80" ry="120" fill="url(#owl-pattern)" />
  <line x1="350" y1="200" x2="350" y2="275" stroke="#FFFFFF" /> <!-- L -->
  <line x1="450" y1="200" x2="450" y2="275" stroke="#FFFFFF" /> <!-- R -->
  <line x1="400" y1="200" x2="400" y2="300" stroke="#FFFFFF" /> <!-- M -->

  <!-- Wings -->
  <polygon id="W1" points="350,175 400,225 350,275" fill="url(#owl-pattern)" />
  <line x1="350" y1="175" x2="360" y2="200" stroke="#FFFFFF" /> <!-- W1S -->
  <polygon id="W2" points="450,175 400,225 450,275" fill="url(#owl-pattern)" />
  <line x1="450" y1="175" x2="440" y2="200" stroke="#FFFFFF" /> <!-- W2S -->

  <!-- Legs -->
  <line id="LG1" x1="380" y1="425" x2="380" y2="475" stroke="#FFFFFF" />
  <line id="LG2" x1="420" y1="425" x2="420" y2="475" stroke="#FFFFFF" />

  <!-- Pattern for owl feathers -->
  <defs>
    <linearGradient id="owl-pattern" x1="0%" y1="0%" x2="100%" y2="100%">
      <stop offset="0%" style="stop-color:rgb(255,255,255);stop-opacity:1"/>
      <stop offset="100%" style="stop-color:rgb(200,200,200);stop-opacity:1"/>
    </linearGradient>
  </defs>

</svg>