<svg width="200" height="200" xmlns="http://www.w3.org/2000/svg">
  <!-- Owl body -->
  <path d="M50 100 Q70 80, 90 100 Q70 120, 50 100 Q30 80, 10 100" fill="url(#onyxGradient)" stroke="#333" stroke-width="2"/>

  <!-- Left eye -->
  <circle cx="60" cy="90" r="5" fill="url(#irisGradient)">
    <circle cx="60" cy="90" r="2.5" fill="#000"/>
  </circle>

  <!-- Right eye (mirrored left eye) -->
  <use xlink:href="#leftEye" x="140"/>

  <!-- Wings -->
  <path d="M30 60 Q50 70, 80 60 Q90 70, 110 60 Q90 50, 80 60 Z" fill="url(#sapphireGradient)" stroke="#444" stroke-width="2"/>
  <path d="M30 40 Q50 50, 80 40 Q110 50, 130 40 Q110 30, 80 40 Z" fill="url(#sapphireGradient)" stroke="#444" stroke-width="2"/>

  <!-- Feathers -->
  <path d="M40 70 Q60 85, 90 70 Q110 85, 130 70 Q110 55, 90 70 Z" fill="url(#opalGradient)" stroke="#fff" stroke-width="1"/>

  <!-- Defining gradients -->
  <defs>
    <linearGradient id="onyxGradient" x1="0%" y1="0%" x2="100%" y2="100%">
      <stop offset="0%" style="stop-color:rgb(35,35,35);stop-opacity:1"/>
      <stop offset="100%" style="stop-color:rgb(65,65,65);stop-opacity:1"/>
    </linearGradient>
    <!-- Define gradients for iris, sapphire, and opal similarly -->
  </defs>

  <!-- Applying shine effect to the owl's body -->
  <feGaussianBlur stdDeviation="2" result="blurred"/>
  <feMerge>
    <feMergeNode in="blurred"/>
    <feMergeNode in="SourceGraphic"/>
  </feMerge>
</svg>