<svg width="300" height="200" xmlns="http://www.w3.org/2000/svg">
  <!-- Head outline -->
  <path d="M150 75 Q165 60 180 75" stroke="#3D2B1F" stroke-width="4"/>

  <!-- Inner head outline -->
  <path d="M150 80 Q165 90 180 80" stroke="#CBA799" stroke-width="3"/>

  <!-- Eyes -->
  <circle cx="135" cy="90" r="15" fill="#FFFFFF" fill-opacity="0.7"/>
  <circle cx="185" cy="90" r="15" fill="#F2E6D8" fill-opacity="0.7"/>

  <!-- Eye outlines -->
  <path d="M125 90 a15 15 0 1 0 30 0 a15 15 0 1 0 -30 0" stroke="#3D2B1F" stroke-width="1"/>
  <path d="M175 90 a15 15 0 1 0 30 0 a15 15 0 1 0 -30 0" stroke="#3D2B1F" stroke-width="1"/>

  <!-- Beak -->
  <path d="M150 110 Q160 130 180 110" stroke="#CBA799" stroke-width="2"/>
  <path d="M155 115 Q165 125 185 115" stroke="#694E3A" stroke-width="1"/>

  <!-- Feather strokes -->
  <path d="M140 135 Q160 150 180 135" stroke="#CBA799" stroke-width="2"/>
  <path d="M145 145 Q165 160 185 145" stroke="#CBA799" stroke-width="1.5"/>
  <path d="M150 155 Q170 170 190 155" stroke="#CBA799" stroke-width="1"/>
</svg>