<svg width="100" height="80" xmlns="http://www.w3.org/2000/svg">
  <!-- Body -->
  <rect x="5" y="15" width="90" height="60" fill="#333333" rx="10"/>

  <!-- Eyes -->
  <circle cx="40" cy="25" r="3" fill="#000"/>
  <circle cx="70" cy="25" r="3" fill="#000"/>

  <!-- Feathers -->
  <rect x="0" y="15" width="100%" height="15" fill="#0000FF"/>
  <rect x="0" y="40" width="100%" height="20" fill="#FFFFFF"/>
  <rect x="0" y="65" width="100%" height="15" fill="#0000FF"/>

  <!-- Wings -->
  <polygon points="97,15 100,35 83,40 90,15" fill="#000"/>
  <polygon points="23,15 20,35 33,40 30,15" fill="#FFFFFF"/>
  <polygon points="23,65 20,45 33,40 30,65" fill="#000"/>
  <polygon points="97,65 100,45 83,40 90,65" fill="#FFFFFF"/>

  <!-- Gold Setting -->
  <rect x="-2" y="-2" width="104" height="84" fill="#CD7F32"/>
</svg>