<svg width="500" height="500" xmlns="http://www.w3.org/2000/svg">
  <g id="owl" stroke="black" fill="transparent">

    <!-- Body -->
    <path d="M100 200 A75 75 0 0 1 300 200 A75 75 0 0 1 100 300 Q50 350, 100 400"/>

    <!-- Head -->
    <path d="M180 140 Q250 90, 320 140 T370 180"/>

    <!-- Eyes and highlights -->
    <circle cx="200" cy="160" r="20"/>
    <circle cx="280" cy="160" r="20"/>
    <circle cx="200" cy="155" r="5"/>
    <circle cx="280" cy="155" r="5"/>

    <!-- Beak -->
    <path d="M250 140 Q300 90, 260 40 L270 30"/>

    <!-- Wings and feathers -->
    <path d="M130 220 Q180 270, 230 220 T240 260"/>
    <path d="M270 220 Q220 270, 320 220 T310 260"/>

  </g>
</svg>