<svg viewBox="-10 0 400 500">
  <!-- Owl Head -->
  <circle cx="150" cy="120" r="60" fill="#FFD700"/>
  <path d="M135 90 Q145 80, 165 90 Q155 100, 145 110" stroke="#000" fill="transparent"/>
  <polygon points="120,140, 180,140, 150,170" style="fill:#000;stroke:none;"/>

  <!-- Branches & Leaves -->
  <path d="M25,10 Q50,40, 100,10 Q150,50, 200,10 Q150,60, 250,10" stroke="#8B7D6B" fill="transparent"/>
  <path d="M35,30 Q65,50, 95,30 Q125,45, 155,30 Q185,50, 215,30" style="fill:#3D9970;stroke:none;"/>

  <!-- Nest -->
  <polygon points="200,250, 250,225, 300,250" fill="#FFFACD"/>
  <path d="M210,240 Q240,260, 270,240 Q300,260, 330,240" stroke="#8B7D6B" fill="transparent"/>

  <!-- Owlets -->
  <circle cx="120" cy="400" r="20" fill="#FFC300"/>
  <path d="M105 380 Q125 390, 145 380 Q165 390, 145 400" stroke="#000" fill="transparent"/>

  <!-- Moon & Stars -->
  <path d="M25,450 Q75,480, 225,450 Q325,480, 275,450" stroke="#8B7D6B" fill="#C3B091"/>
  <circle cx="100" cy="460" r="5" fill="#FFFFFF"/>
  <circle cx="180" cy="430" r="3" fill="#FFFFFF"/>
</svg>