<svg xmlns="http://www.w3.org/2000/svg" viewBox="0 0 800 600">
  <!-- Background -->
  <defs>
    <linearGradient id="grad1" x1="0%" y1="0%" x2="100%" y2="100%">
      <stop offset="0%" style="stop-color:#E3F2FD; stop-opacity:1" />
      <stop offset="100%" style="stop-color:#BBDEFB; stop-opacity:1" />
    </linearGradient>
  </defs>
  <rect width="800" height="600" fill="url(#grad1)" />

  <!-- Tree Trunk -->
  <path d="M400,250 Q350,300 300,350 Q250,300 200,350 Q250,400 300,450 Q350,400 400,450" fill="#4A290B" stroke="black" stroke-width="5" />

  <!-- Tree Leaves -->
  <path d="M100,150 Q200,50 300,150 Q200,250 100,200 Q400,250 300,200 Q200,150 100,100" fill="url(#grad2)" />
  <defs>
    <linearGradient id="grad2" x1="0%" y1="0%" x2="100%" y2="100%">
      <stop offset="0%" style="stop-color:#D1F0DB; stop-opacity:1" />
      <stop offset="100%" style="stop-color:#8DC63C; stop-opacity:0.75" />
    </linearGradient>
  </defs>

  <!-- Owl -->
  <path d="M450,200 Q400,225 350,250 Q450,275 500,300 Q550,275 600,250 Q550,225 450,200" fill="#775B4A" stroke="black" stroke-width="3" />
  <path d="M400,175 Q425,190 450,200 Q425,210 400,205" fill="#D3CAB6" />
  <path d="M400,175 Q425,185 450,200 Q425,215 400,210" fill="#FDF5E6" opacity="0.75" />
  <circle cx="450" cy="190" r="10" fill="#3D1906" />
  <circle cx="450" cy="185" r="2" fill="#FFFFFF" />

  <!-- Moon -->
  <defs>
    <linearGradient id="grad3" x1="0%" y1="0%" x2="100%" y2="100%">
      <stop offset="0%" style="stop-color:#C0C0C0; stop-opacity:1" />
      <stop offset="100%" style="stop-color:#EAEAEA; stop-opacity:1" />
    </linearGradient>
  </defs>
  <circle cx="650" cy="350" r="80" fill="url(#grad3)" opacity="0.75" />

</svg>