<svg xmlns="http://www.w3.org/2000/svg" viewBox="0 0 600 800">

  <!-- Basic shapes -->
  <rect id="body" x="150" y="400" width="300" height="300" fill="#A97D59"/>
  <circle id="head" cx="250" cy="250" r="150" fill="#F4DEB8"/>
  <ellipse id="wing-left" cx="100" cy="600" rx="200" ry="70" fill="#A97D59"/>
  <ellipse id="wing-right" cx="400" cy="600" rx="200" ry="70" fill="#A97D59"/>
  <path id="eye-left" d="M300 180 a50,50 0 0 0 -50,-50 a50,50 0 0 0 50,-50 a50,50 0 0 0 50,50 a50,50 0 0 0 -50,50 Z" fill="black"/>
  <path id="eye-right" d="M370 180 a50,50 0 0 0 50,-50 a50,50 0 0 0 -50,-50 a50,50 0 0 0 -50,50 a50,50 0 0 0 50,50 Z" fill="black"/>
  <path id="beak" d="M320 180 Q370 200 400 180 Q360 150 320 130 Q280 150 240 180 Z" fill="#FFCBA3"/>

  <!-- Edges and details -->
  <polyline points="150,400 300,700 450,400 300,100 150,400" stroke="#8B6340" fill="transparent"/>
  <path d="M250,250 Q200,350 150,400 Q200,450 250,500 Q300,450 350,400 Q300,350 250,250 Z" stroke="#8B6340" fill="transparent"/>
  <path id="feathers-left" d="M100,600 Q70,550 100,500 Q130,550 100,600 Z" stroke="#8B6340" fill="transparent"/>
  <path id="feathers-right" d="M400,600 Q370,550 400,500 Q430,550 400,600 Z" stroke="#8B6340" fill="transparent"/>

  <!-- Gradients and textures -->
  <linearGradient id="body-gradient" x1="0%" y1="0%" x2="100%" y2="100%">
    <stop offset="0%" style="stop-color:#A97D59; stop-opacity:1"/>
    <stop offset="100%" style="stop-color:#8B6340; stop-opacity:1"/>
  </linearGradient>
  <radialGradient id="eye-gradient" cx="50%" cy="50%" r="50%" fx="50%" fy="50%">
    <stop offset="0%" style="stop-color:black; stop-opacity:1"/>
    <stop offset="100%" style="stop-color:#3A2B18; stop-opacity:0.6"/>
  </radialGradient>

</svg>