<svg width="200" height="200" xmlns="http://www.w3.org/2000/svg">
  <!-- Body -->
  <path d="M35 70q35 0 35 -40a35 35 0 1 0-70 0a35 35 0 1 0 70 0q35 0 35 40z" fill="lightgray"/>

  <!-- Wings -->
  <path d="M20 90q0 -15 40 -20l70 0q30 5 30 20v30q0 15 -30 20L20 160q-40 -5 -40 -20z" fill="lightgray"/>
  <path d="M90 90q0 -15 -30 -20l-70 0q-30 5 -30 20v30q0 15 30 20L90 160q40 -5 40 -20z" fill="lightgray"/>

  <!-- Head -->
  <path d="M70 50a30 30 0 1 0-60 0a30 30 0 1 0 60 0z" fill="lightgray"/>

  <!-- Eyes -->
  <circle cx="60" cy="40" r="5" fill="black"/>
  <circle cx="80" cy="40" r="5" fill="black"/>
</svg>