<svg width="800" height="600" xmlns="http://www.w3.org/2000/svg">

  <!-- Background -->
  <rect width="100%" height="100%" fill="#f5ede8"/>

  <!-- Boundaries and major landmarks -->
  <path d="M70 70 Q160 40, 250 70 Q340 100, 430 70 Q520 40, 610 70 Q700 100, 790 70" stroke="#8b4513" fill="transparent" stroke-width="3"/>
  <polygon points="70 70, 160 40, 250 70" fill="#cdaa7d" stroke="black"/>
  <circle cx="430" cy="90" r="30" fill="#cdaa7d" stroke="black"/>
  <circle cx="790" cy="60" r="30" fill="#cdaa7d" stroke="black"/>

  <!-- Roads -->
  <path d="M120 240 Q180 280, 250 240 Q310 220, 390 240 Q460 270, 520 240" stroke="#7f522a" fill="transparent" stroke-width="2"/>
  <path d="M430 180 Q500 140, 580 180" stroke="#7f522a" fill="transparent" stroke-width="2"/>

  <!-- Rivers -->
  <path d="M90 200 Q160 260, 230 200 Q300 240, 380 200 Q450 230, 520 200" stroke="#3d7a8b" fill="transparent" stroke-width="2"/>
  <path d="M610 200 Q680 240, 750 200" stroke="#3d7a8b" fill="transparent" stroke-width="2"/>

  <!-- Points of interest -->
  <circle cx="140" cy="120" r="10" fill="#ffd700"/>
  <text x="125" y="122" font-family="Verdana" font-size="8">Owl's Tower</text>
  <circle cx="650" cy="140" r="10" fill="#ffd700"/>
  <text x="635" y="142" font-family="Verdana" font-size="8">Whispering Woods</text>

</svg>