<svg xmlns="http://www.w3.org/2000/svg" viewBox="-50 -50 100 100">
  <!-- Background -->
  <rect x="-50" y="-50" width="100" height="100" style="fill: url(#grad);" />

  <!-- Owl Body -->
  <circle cx="0" cy="20" r="30" stroke="#704214" fill="#F8E6A9" />
  <path d="M0,20 Q-5,-10 5,-10 Q0,20 0,30" stroke="#704214" fill="none" />

  <!-- Owl Head -->
  <ellipse cx="0" cy="0" rx="20" ry="10" stroke="#704214" fill="#FCE5A8" />
  <circle cx="-3" cy="3" r="2" stroke="#000" fill="#FFF" />
  <circle cx="3" cy="3" r="2" stroke="#000" fill="#FFF" />

  <!-- Owl Wings -->
  <polygon points="-15,-5, -20,5, -10,10" style="fill: url(#feathers);" />
  <polygon points="15,-5, 20,5, 10,10" style="fill: url(#feathers);" />

  <!-- Owl Tail -->
  <polygon points="-3,-8, 0,-4, -6,-4" style="fill: url(#feathers);" />

  <!-- Owl Legs -->
  <line x1="-5" y1="25" x2="-5" y2="35" stroke="#704214" />
  <line x1="5" y1="25" x2="5" y2="35" stroke="#704214" />

  <!-- Strings (not functional, for visualization) -->
  <path d="M0,40 Q-10,-10 0,-10 Q10,-10 0,40" stroke="#CCC" fill="none" />
  <!-- Add more strings as needed -->

  <!-- Gradients and Patterns -->
  <defs>
    <linearGradient id="grad" x1="0%" y1="0%" x2="100%" y2="100%">
      <stop offset="0%" style="stop-color:rgb(49,53,78);stop-opacity:1" />
      <stop offset="100%" style="stop-color:rgb(67,71,100);stop-opacity:1" />
    </linearGradient>
    <pattern id="feathers" patternUnits="userSpaceOnUse" width="20" height="5">
      <!-- Feather pattern goes here -->
    </pattern>
  </defs>
</svg>