<svg xmlns="http://www.w3.org/2000/svg" viewBox="0 0 512 512">
  <!-- Body -->
  <path d="M464,288H448V376c0,9.6-7.8,18-16,18h-32c-8.2,0-16-8.8-16-18v-88C432,295.3,444.7,288,464,288z"/>

  <!-- Head -->
  <path d="M256,128c0,34.1-27.9,62-62,62s-62-27.9-62-62S189.9,128,256,128z"/>

  <!-- Eyes -->
  <circle cx="235" cy="106" r="24"/>
  <circle cx="287" cy="106" r="24"/>

  <!-- Beak -->
  <path d="M266,92l-28,-11l28,-47h-56c-3.2,-10.8,1.2,-24,16,-32h44c14.8,8,22,21.2,16,32z"/>

  <!-- Feet -->
  <path d="M192,336h-32v64c0,5.3,4.2,9.6,9.6,9.6h32c5.3,0,9.6,-4.3,9.6,-9.6v-64z"/>
  <path d="M416,336h-32v64c0,5.3,-4.2,9.6,-9.6,9.6h-32c-5.3,0,-9.6,-4.3,-9.6,-9.6v-64z"/>
</svg>