<svg width="300" height="300" xmlns="http://www.w3.org/2000/svg">
  <g id="gathering">
    <circle cx="50" cy="200" r="30" />
    <circle cx="80" cy="170" r="20" />
    <circle cx="120" cy="140" r="15" />
  </g>

  <!-- Body -->
  <path id="body" d="M 30 180 A 60 80 0 0 1 150 180 A 60 80 0 0 1 90 280 A 60 80 0 0 1 30 280 Z" />

  <!-- Wings and Tail Feathers -->
  <path id="left-wing" d="M 95 260 Q 120 240, 150 260" />
  <path id="right-wing" d="M 80 260 Q 50 240, 30 260" />

  <!-- Tail Feathers -->
  <path id="tail-feather" d="M 90 280 L 110 300 Z" />

  <!-- Head -->
  <path id="head" d="M 75 160 A 30 40 0 0 1 125 160 A 30 40 0 0 1 90 200 Z" />

  <!-- Eyes -->
  <circle cx="85" cy="170" r="5" />
  <circle cx="115" cy="170" r="5" />

  <!-- Refining the Body Edges -->
  <path id="body-refine" d="M 30 180 Q 35 200, 40 210 Z" />
  <path id="body-refine-reverse" d="M 150 180 Q 145 200, 140 210 Z" />

</svg>