<svg xmlns="http://www.w3.org/2000/svg" viewBox="-5 -10 140 140">
  <defs>
    <style>
      .stroke-1 { stroke-width: 2; }
      .stroke-2 { stroke-width: 3; }
      .stroke-3 { stroke-width: 5; }
      .color-black { fill: none; stroke: black; }
      .color-gray { fill: none; stroke: #606060; }
    </style>
  </defs>
```

Now, let's create the letterform with eight strokes:

1. **Outer circular shape**
```svg
  <path class="stroke-3 color-black" d="M15, -7a22,22 0 1,0 44,0a22,22 0 1,0 -44,0z"/>
```

2. **Inner circular shape**
```svg
  <path class="stroke-2 color-gray" d="M35, -7a15,15 0 1,0 30,0a15,15 0 1,0 -30,0z"/>
```

3. **Top stroke**
```svg
  <path class="stroke-2 color-black" d="M40, -7h6v8h-6z"/>
```

4. **Bottom stroke**
```svg
  <path class="stroke-2 color-black" d="M40, -15h6v8h-6z"/>
```

5. **Left stroke (thinner)**
```svg
  <path class="stroke-1 color-gray" d="M35, -7h10v14h-10z"/>
```

6. **Right stroke**
```svg
  <path class="stroke-2 color-black" d="M65, -7h10v14h-10z"/>
```

7. **Eye (left)**
```svg
  <circle class="stroke-1 color-gray" cx="35" cy="-1" r="3"/>
```

8. **Eye (right)**
```svg
  <circle class="stroke-1 color-gray" cx="65" cy="-1" r="3"/>
```

Here's the complete SVG file showcasing our elegant letterform for "O":

```svg
<svg xmlns="http://www.w3.org/2000/svg" viewBox="-5 -10 140 140">
  <defs>
    <style>
      .stroke-1 { stroke-width: 2; }
      .stroke-2 { stroke-width: 3; }
      .stroke-3 { stroke-width: 5; }
      .color-black { fill: none; stroke: black; }
      .color-gray { fill: none; stroke: #606060; }
    </style>
  </defs>

  <!-- Outer circular shape -->
  <path class="stroke-3 color-black" d="M15, -7a22,22 0 1,0 44,0a22,22 0 1,0 -44,0z"/>

  <!-- Inner circular shape -->
  <path class="stroke-2 color-gray" d="M35, -7a15,15 0 1,0 30,0a15,15 0 1,0 -30,0z"/>

  <!-- Top stroke -->
  <path class="stroke-2 color-black" d="M40, -7h6v8h-6z"/>

  <!-- Bottom stroke -->
  <path class="stroke-2 color-black" d="M40, -15h6v8h-6z"/>

  <!-- Left stroke (thinner) -->
  <path class="stroke-1 color-gray" d="M35, -7h10v14h-10z"/>

  <!-- Right stroke -->
  <path class="stroke-2 color-black" d="M65, -7h10v14h-10z"/>

  <!-- Eye (left) -->
  <circle class="stroke-1 color-gray" cx="35" cy="-1" r="3"/>

  <!-- Eye (right) -->
  <circle class="stroke-1 color-gray" cx="65" cy="-1" r="3"/>
</svg>