<svg width="150" height="150" xmlns="http://www.w3.org/2000/svg">
  <!-- Background -->
  <rect x="0" y="0" width="150" height="150" fill="url(#motherOfPearl)"/>

  <!-- Body outline (Labradorite) -->
  <path d="M75,30 Q90,60 90,80 Q75,100 60,80 Q60,60 45,30 Z" fill="url(#labradorite)"/>

  <!-- Outer feathers (Blue Topaz) -->
  <path d="M75,20 Q95,50 95,70 Q75,100 55,80 Q55,50 35,20 Z" fill="url(#blueTopaz)"/>

  <!-- Inner feathers (White Opal) -->
  <path d="M75,40 Q90,65 90,85 Q75,110 60,90 Q60,70 40,40 Z" fill="url(#whiteOpal)"/>

  <!-- Eyes (Black Onyx) -->
  <circle cx="75" cy="55" r="5" fill="black"/>
  <circle cx="85" cy="55" r="5" fill="black"/>

  <!-- Defining gradients for gemstones -->
  <linearGradient id="labradorite" x1="0%" y1="0%" x2="100%" y2="100%">
    <stop offset="0%" style="stop-color:#7D9EC6; stop-opacity:1"/>
    <stop offset="100%" style="stop-color:#3A4552; stop-opacity:1"/>
  </linearGradient>
  <linearGradient id="blueTopaz" x1="0%" y1="0%" x2="100%" y2="100%">
    <stop offset="0%" style="stop-color:#40E0D0; stop-opacity:1"/>
    <stop offset="100%" style="stop-color:#008C7C; stop-opacity:1"/>
  </linearGradient>
  <radialGradient id="whiteOpal" cx="50%" cy="50%" r="50%" fx="50%" fy="50%">
    <stop offset="0%" style="stop-color:#FFF; stop-opacity:1"/>
    <stop offset="100%" style="stop-color:#E6E8EA; stop-opacity:1"/>
  </radialGradient>
  <linearGradient id="motherOfPearl" x1="0%" y1="0%" x2="100%" y2="100%">
    <stop offset="0%" style="stop-color:#FFF; stop-opacity:1"/>
    <stop offset="50%" style="stop-color:#FFD69E; stop-opacity:1"/>
    <stop offset="100%" style="stop-color:#FFF; stop-opacity:1"/>
  </linearGradient>
</svg>