<svg xmlns="http://www.w3.org/2000/svg" viewBox="0 0 500 500">
  <!-- Body -->
  <path d="M250 100 Q350 150, 400 200 C400 225, 350 275, 250 300 Q150 275, 100 200 Z" fill="brown"/>

  <!-- Head -->
  <path d="M250 150 Q300 100, 350 150 C350 180, 300 220, 250 250" fill="brown"/>

  <!-- Eyes -->
  <circle cx="225" cy="200" r="20" fill="white"/>
  <circle cx="275" cy="200" r="20" fill="white"/>

  <!-- Beak -->
  <path d="M250 180 Q230 190, 240 200 Q260 190, 250 180" stroke="orange" fill="transparent" stroke-width="5"/>

  <!-- Wings -->
  <path d="M100 150 Q150 200, 250 250 C300 225, 350 175, 450 225 Q400 275, 350 325 Q250 275, 150 225 Z" fill="brown"/>

  <!-- Tail -->
  <path d="M250 300 Q300 325, 350 350 Q300 375, 250 400 Q200 375, 150 350 Z" fill="brown"/>

</svg>