<svg width="800" height="600" xmlns="http://www.w3.org/2000/svg">

<!-- Background -->
<rect x="0" y="0" width="100%" height="100%" fill="#f5deb3"/>

<!-- Boundaries and Major Landmarks -->
<path d="M10 10 Q80 10, 120 40 Q200 10, 260 70 Q350 10, 400 50 Q450 10, 500 90 Q550 10, 600 50 Q650 10, 700 80" stroke="#222" fill="transparent"/>
<path d="M100 30 L400 30 Q430 70, 460 30 L600 30 Z" stroke="#222" fill="#90ee90"/>

<!-- Rivers -->
<path d="M80 50 C150 20, 220 30, 290 50 Q340 70, 410 50 Q460 30, 530 50" stroke="#add8e6" fill="transparent"/>
<path d="M180 120 C250 80, 320 90, 390 120" stroke="#add8e6" fill="transparent"/>

<!-- Roads -->
<path d="M120 140 Q180 170, 240 140 Q300 170, 360 140" stroke="#f5deb3" fill="none" stroke-width="5"/>
<path d="M220 260 L280 260 Z" stroke="#f5deb3" fill="none" stroke-width="5"/>

<!-- Points of Interest -->
<circle cx="140" cy="70" r="10" fill="#ffa500"/>
<text x="120" y="80">Owl's Tower</text>
<circle cx="390" cy="160" r="10" fill="#ffa500"/>
<text x="370" y="170">Mystic Pond</text>
<circle cx="620" cy="40" r="10" fill="#ffa500"/>
<text x="600" y="50">Whispering Rocks</text>

</svg>