<svg width="300" height="300" xmlns="http://www.w3.org/2000/svg">

  <!-- Branch -->
  <rect x="50" y="270" width="150" height="30" fill="#4A2E22" transform="rotate(-30, 100, 285)" />

  <!-- Body -->
  <ellipse cx="120" cy="160" rx="90" ry="70" fill="#775238"/>
  <polygon points="120,230 100,240 140,240" fill="#F5DEB3"/>

  <!-- Head -->
  <ellipse cx="120" cy="110" rx="60" ry="70" fill="#9C6D42"/>
  <circle cx="110" cy="100" r="8" fill="#FFFFFF">
    <circle cx="115" cy="100" r="3" fill="#000000"/>
  </circle>
  <circle cx="130" cy="100" r="8" fill="#FFFFFF">
    <circle cx="125" cy="100" r="3" fill="#000000"/>
  </circle>

  <!-- Beak -->
  <polygon points="90,70 150,70 120,40" fill="#F5DEB3"/>

  <!-- Wings -->
  <polygon points="50,180 150,260 180,180" fill="#775238" rx="10"/>
  <polygon points="240,180 150,260 120,180" fill="#775238" rx="10"/>

  <!-- Tail -->
  <polygon points="90,250 150,280 190,250" fill="#F5DEB3"/>

</svg>