<svg width="500" height="500" viewBox="-250 -250 500 500" xmlns="http://www.w3.org/2000/svg">

<!-- Body -->
<ellipse cx="0" cy="0" rx="200" ry="150" fill="#364F7F"/>

<!-- Wings -->
<path d="M-180 0 A200 200 0 0 1 180 0" fill="#364F7F"/>
<path d="M-180 0 A200 200 0 0 1 180 0" fill="#364F7F"/>

<!-- Tail -->
<rect x="-50" y="120" width="100" height="100" rx="50" fill="#364F7F"/>

<!-- Beak -->
<path d="M-80 120 Q0 130 80 120" stroke="black" fill="none"/>

<!-- Head and eyes -->
<ellipse cx="0" cy="-150" rx="120" ry="90" fill="#F6D78A"/>
<circle cx="-40" cy="-150" r="20" fill="#333"/>
<circle cx="40" cy="-150" r="20" fill="#333"/>

<!-- Eyebrows -->
<line x1="-90" y1="-160" x2="90" y2="-160" stroke="black"/>
<line x1="-70" y1="-180" x2="70" y2="-180" stroke="black"/>

<!-- Crown feathers -->
<path d="M-30 -150 Q0 -130 30 -150" stroke="black" fill="none"/>
<path d="M30 -150 Q60 -130 90 -150" stroke="black" fill="none"/>

<!-- Feet -->
<ellipse cx="-80" cy="120" rx="30" ry="40" fill="#F6D78A"/>
<ellipse cx="80" cy="120" rx="30" ry="40" fill="#F6D78A"/>

</svg>