<svg width="500" height="400" xmlns="http://www.w3.org/2000/svg">

  <!-- Background -->
  <rect x="0" y="0" width="500" height="400" fill="white"/>

  <!-- Head -->
  <ellipse cx="175" cy="150" rx="90" ry="80" fill="#694f32"/>
  <ellipse cx="175" cy="150" rx="90" ry="80" fill="none" stroke="black" stroke-width="5"/>

  <!-- Body -->
  <rect x="120" y="210" width="260" height="70" fill="#694f32"/>
  <ellipse cx="175" cy="280" rx="130" ry="50" fill="#694f32"/>
  <rect x="120" y="210" width="260" height="70" fill="none" stroke="black" stroke-width="5"/>

  <!-- Wings -->
  <polygon points="70,280 150,340 120,380" fill="#694f32"/>
  <polygon points="330,280 410,340 350,380" fill="#694f32"/>

  <!-- Tail -->
  <rect x="350" y="370" width="130" height="30" fill="#694f32"/>
  <rect x="370" y="380" width="110" height="20" fill="#694f32"/>
  <rect x="390" y="390" width="90" height="10" fill="#694f32"/>

  <!-- Beak -->
  <polygon points="185,170 205,150 175,150" fill="orange"/>
  <polygon points="185,170 205,150 175,150" fill="none" stroke="black" stroke-width="3"/>

  <!-- Eyes -->
  <circle cx="160" cy="140" r="10" fill="black"/>
  <circle cx="185" cy="140" r="10" fill="black"/>
  <circle cx="160" cy="140" r="10" fill="none" stroke="white" stroke-width="2"/>
  <circle cx="185" cy="140" r="10" fill="none" stroke="white" stroke-width="2"/>

  <!-- Talons -->
  <polygon points="90,370 80,380 90,390" fill="#694f32"/>
  <polygon points="310,370 320,380 310,390" fill="#694f32"/>
  <polygon points="430,370 420,380 430,390" fill="#694f32"/>

</svg>