<svg xmlns="http://www.w3.org/2000/svg" viewBox="-50 -50 100 100">

  <!-- Strings -->
  <path d="M-50,50 Q-40,-30,-30,-50" stroke="#696969" fill="transparent"/>
  <path d="M30,-50 Q40,-30,50,-50" stroke="#696969" fill="transparent"/>
  <path d="M-10,-20 Q-30,-30 -10,-40" stroke="#696969" fill="transparent"/>
  <path d="M10,-20 Q30,-30 10,-40" stroke="#696969" fill="transparent"/>

  <!-- Attachment points -->
  <circle cx="-50" cy="50" r="5" fill="#696969"/>
  <circle cx="50" cy="50" r="5" fill="#696969"/>
  <circle cx="-10" cy="-20" r="5" fill="#696969"/>
  <circle cx="10" cy="-20" r="5" fill="#696969"/>

  <!-- Owl body -->
  <path d="M-30,-40 Q-20,-30 -10,-20 Q10,-30 30,-40" stroke="#333" fill="#FFF"/>
  <path d="M-35,-50 Q-20,-60 -10,-50 Q0,-40 10,-50 Q20,-60 35,-50" stroke="#333" fill="#FBB"/>

  <!-- Owl eyes -->
  <circle cx="-15" cy="-35" r="7" fill="#000"/>
  <circle cx="15" cy="-35" r="7" fill="#000"/>

  <!-- Owl wings -->
  <rect x="-40" y="-20" width="10" height="30" fill="#FBB"/>
  <rect x="30" y="-20" width="10" height="30" fill="#FBB"/>

</svg>