<svg width="300" height="400" xmlns="http://www.w3.org/2000/svg">

  <!-- Branch -->
  <rect x="50" y="230" width="180" height="20" fill="#7F521D"/>

  <!-- Body -->
  <circle cx="100" cy="200" r="80" fill="#C58940"/>
  <circle cx="80" cy="170" r="30" fill="#C58940"/>
  <circle cx="120" cy="170" r="30" fill="#C58940"/>

  <!-- Head -->
  <ellipse cx="105" cy="170" rx="60" ry="40" fill="#FFFDD0"/>
  <path d="M90,145 A20,20 0 0 1 50,145 L90,170 Z" fill="#6B4E2A"/>

  <!-- Eyes -->
  <circle cx="85" cy="155" r="5" fill="#FFFFFF"/>
  <path d="M80,155 A5,5 0 0 1 90,155 Z" fill="#000000"/>
  <circle cx="115" cy="155" r="5" fill="#FFFFFF"/>
  <path d="M110,155 A5,5 0 0 1 120,155 Z" fill="#000000"/>

  <!-- Wings -->
  <polygon points="60,180 70,220 90,180 80,150" fill="#C58940"/>
  <polygon points="130,180 120,220 110,180 120,150" fill="#C58940"/>

  <!-- Tail -->
  <rect x="70" y="260" width="20" height="30" fill="#C58940"/>
  <rect x="90" y="250" width="20" height="40" fill="#C58940"/>
  <rect x="110" y="260" width="20" height="30" fill="#C58940"/>

</svg>