<svg width="500" height="400" xmlns="http://www.w3.org/2000/svg">
  <!-- Eyes -->
  <g opacity="0.7">
    <circle cx="180" cy="90" r="60" fill="white"/>
    <circle cx="250" cy="90" r="60" fill="white"/>
    <circle cx="180" cy="90" r="30" fill="black"/>
    <circle cx="250" cy="90" r="30" fill="black"/>
  </g>

  <!-- Body -->
  <g opacity="0.5">
    <path d="M160,80 Q175,40 200,80 Q225,40 250,80 L300,120 L320,160 L320,200 Z" fill="brown"/>
    <path d="M180,200 Q220,220 250,200 Q270,240 300,200 Q320,160 320,120 Z" fill="brown"/>
    <path d="M280,200 L300,220 L320,200 L300,180 Z" fill="brown"/>
  </g>

  <!-- Feather Highlights -->
  <g opacity="0.3">
    <polygon points="270,160 290,180 270,200" fill="beige"/>
    <polygon points="305,160 325,180 305,200" fill="beige"/>
  </g>
</svg>