<svg width="200" height="200" xmlns="http://www.w3.org/2000/svg">

  <!-- Body -->
  <polygon id="body" points="-50,-100 50,-100 50,100 -50,100"
           style="fill: url(#grad-body);"/>

  <!-- Head -->
  <path id="head" d="M0,-20 A30,30 0 0 0 0,70 A30,30 0 0 0 0,-20"
        style="fill: url(#grad-head);"/>

  <!-- Wing left -->
  <polygon id="wing-left" points="-40,-50 -80,10 0,90 40,-50"
           transform="rotate(30,-40,-50)" style="fill: url(#grad-wing);"/>

  <!-- Wing right -->
  <use xlink:href="#wing-left" y="-120" transform="rotate(-60,-40,-50)"/>

  <!-- Leg left -->
  <polygon id="leg-left" points="-20,70 -30,90 -20,110"
           style="fill: black; stroke: none"/>
  <use xlink:href="#leg-left" y="140" transform="scale(-1)"/>

  <!-- Beak -->
  <polygon id="beak" points="-5,-30 5,-30 0,0"
           style="fill: orange; stroke: none"/>

  <!-- Eyes -->
  <circle cx="-20" cy="-60" r="5" fill="white"/>
  <use xlink:href="#eyes" transform="scale(1) translate(40,0)"/>

  <!-- Gradient definitions -->
  <defs>
    <linearGradient id="grad-body" x1="0%" y1="0%" x2="0%" y2="100%">
      <stop offset="0%" style="stop-color:rgb(50,50,150);stop-opacity:1"/>
      <stop offset="100%" style="stop-color:rgb(80,80,200);stop-opacity:1"/>
    </linearGradient>
    <linearGradient id="grad-head" x1="0%" y1="0%" x2="0%" y2="100%">
      <stop offset="0%" style="stop-color:rgb(50,50,130);stop-opacity:1"/>
      <stop offset="100%" style="stop-color:rgb(80,80,170);stop-opacity:1"/>
    </linearGradient>
    <linearGradient id="grad-wing" x1="0%" y1="0%" x2="0%" y2="100%">
      <stop offset="0%" style="stop-color:rgb(50,50,130);stop-opacity:1"/>
      <stop offset="100%" style="stop-color:rgb(80,80,170);stop-opacity:1"/>
    </linearGradient>
  </defs>

</svg>