<svg width="600" height="200" xmlns="http://www.w3.org/2000/svg" version="1.1">
  <defs>
    <linearGradient id="grad" x1="0%" y1="0%" x2="100%" y2="100%">
      <stop offset="0%" style="stop-color:rgb(139,69,19);stop-opacity:1"/>
      <stop offset="100%" style="stop-color:rgb(51,17,4);stop-opacity:1"/>
    </linearGradient>
  </defs>

  <g stroke-width="2" stroke="url(#grad)" fill="none">
    <!-- P -->
    <path d="M60,30 q5,0 10,5 l-5,75 l-85,0 l5,-75 q5,0 10,-5 Z"/>

    <!-- e -->
    <path d="M90,30 q15,0 25,5 l-20,60 l20,-60 q10,0 25,-5 Z"/>

    <!-- n -->
    <path d="M140,30 h70 v80 h-70 z"/>

    <!-- g -->
    <path d="M210,30 q15,0 25,5 l-20,60 l20,-60 q10,0 25,-5 Z"/>

    <!-- u -->
    <path d="M270,30 q20,0 30,15 l-30,90 l30,-90 q20,0 30,-15 Z"/>

    <!-- i -->
    <path d="M360,30 q15,0 25,10 l-10,40 l10,-40 q10,0 25,-10 Z"/>

    <!-- n -->
    <path d="M410,30 h70 v80 h-70 z"/>

    <!-- g -->
    <path d="M480,30 q15,0 25,5 l-20,60 l20,-60 q10,0 25,-5 Z"/>
  </g>
</svg>