<svg width="300" height="200" xmlns="http://www.w3.org/2000/svg">

  <!-- Gradients -->
  <defs>
    <linearGradient id="penguinBodyGrad" x1="0%" y1="0%" x2="100%" y2="100%">
      <stop offset="0%" style="stop-color:rgb(51,102,204);stop-opacity:1" />
      <stop offset="100%" style="stop-color:rgb(0,36,87);stop-opacity:1" />
    </linearGradient>
    <linearGradient id="penguinOrangeGrad" x1="0%" y1="0%" x2="100%" y2="100%">
      <stop offset="0%" style="stop-color:rgb(252,186,3);stop-opacity:1" />
      <stop offset="100%" style="stop-color:rgb(249,145,0);stop-opacity:1" />
    </linearGradient>
  </defs>

  <!-- Clip path for penguin outline -->
  <clipPath id="penguinClip">
    <path d="M80 10 Q90 30 80 50 Q70 30 60 10 Z" />
  </clipPath>

  <!-- First penguin -->
  <g transform="translate(40, 60)">
    <rect width="20" height="40" fill="url(#penguinBodyGrad)" rx="5" ry="5"/>
    <circle cx="10" cy="30" r="8" fill="white">
      <clipPath id="eyeClip">
        <circle cx="5" cy="5" r="2.5"/>
      </clipPath>
      <circle cx="5" cy="5" r="2.5" fill="black" clip-path="url(#eyeClip)"/>
    </circle>
    <path d="M0 40 Q10 60 20 40 Z" stroke="black" fill="transparent"/>
    <polygon points="0,70 20,70 10,90" fill="url(#penguinOrangeGrad)"/>
  </g>

  <!-- Second penguin (mirrored) -->
  <g transform="translate(160, 60) rotate(180)">
    <rect width="20" height="40" fill="url(#penguinBodyGrad)" rx="5" ry="5"/>
    <circle cx="10" cy="30" r="8" fill="white">
      <clipPath id="eyeClip">
        <circle cx="5" cy="5" r="2.5"/>
      </clipPath>
      <circle cx="5" cy="5" r="2.5" fill="black" clip-path="url(#eyeClip)"/>
    </circle>
    <path d="M0 40 Q10 60 20 40 Z" stroke="black" fill="transparent"/>
    <polygon points="0,70 20,70 10,90" fill="url(#penguinOrangeGrad)"/>
  </g>

</svg>