<svg width="200" height="200" xmlns="http://www.w3.org/2000/svg">

  <!-- Define gradients -->
  <defs>
    <linearGradient id="grad1" x1="0%" y1="0%" x2="100%" y2="100%">
      <stop offset="0%"   style="stop-color:rgb(53,94,171);stop-opacity:1" />
      <stop offset="100%" style="stop-color:rgb(28,69,146);stop-opacity:1" />
    </linearGradient>
  </defs>

  <!-- Body -->
  <circle cx="100" cy="130" r="70" fill="url(#grad1)" />

  <!-- Head -->
  <circle cx="120" cy="90" r="40" fill="url(#grad1)" transform="rotate(35 120 90)" />

  <!-- Wing (left) -->
  <rect x="60" y="120" width="70" height="80" fill="#FFFFFF" rx="10"/>
  <path d="M60,120 Q40,130 45,140 L60,160 Z" fill="#AAA"/>

  <!-- Wing (right) -->
  <rect x="130" y="120" width="70" height="80" fill="#FFFFFF" rx="10"/>
  <path d="M130,120 Q150,130 145,140 L130,160 Z" fill="#AAA"/>

  <!-- Flipper (left) -->
  <rect x="70" y="180" width="30" height="40" fill="#FFFFFF" rx="5"/>
  <path d="M70,220 Q85,200 90,220 Z" fill="#AAA"/>

  <!-- Flipper (right) -->
  <rect x="140" y="180" width="30" height="40" fill="#FFFFFF" rx="5"/>
  <path d="M140,220 Q125,200 130,220 Z" fill="#AAA"/>

  <!-- Beak -->
  <path d="M90,70 Q80,60 95,55 Z" fill="#FFD700"/>
</svg>