<svg width="500" height="500" xmlns="http://www.w3.org/2000/svg">

  <!-- Background gradient -->
  <defs>
    <linearGradient id="gradientBackground" x1="0%" y1="0%" x2="100%" y2="100%">
      <stop offset="0%" style="stop-color:rgb(87,63,146); stop-opacity:1" />
      <stop offset="100%" style="stop-color:rgb(59,49,118); stop-opacity:1" />
    </linearGradient>
  </defs>
  <rect width="100%" height="100%" fill="url(#gradientBackground)" />

  <!-- Penguin body -->
  <g id="penguin">
    <circle cx="250" cy="350" r="75" fill="#FFA500"/>
    <clipPath id="bodyClip">
      <path d="M250,350 a75,75 0 1,1 -75,-75 a75,75 0 1,1 75,-75 a75,75 0 1,1 -75,75 z"/>
    </clipPath>
    <circle cx="250" cy="350" r="75" fill="#FFA500" clip-path="url(#bodyClip)"/>
    <path d="M250,300 Q180,250 250,200 Q320,250 250,300" stroke="#FFD700" fill="transparent" />
  </g>

  <!-- Penguin head -->
  <circle cx="250" cy="260" r="40" fill="#FFFFFF"/>
  <path d="M250,260 Q180,230 250,200 Q320,230 250,260" stroke="#000000" fill="transparent"/>

  <!-- Penguin eyes -->
  <circle cx="220" cy="245" r="10" fill="#000000"/>
  <circle cx="280" cy="245" r="10" fill="#000000"/>

</svg>