<svg width="500" height="500" xmlns="http://www.w3.org/2000/svg">

  <!-- Define gradients -->
  <defs>
    <linearGradient id="bodyGradient" x1="0%" y1="0%" x2="100%" y2="100%">
      <stop offset="0%" style="stop-color:rgb(51,73,94);stop-opacity:1"/>
      <stop offset="100%" style="stop-color:rgb(84,106,122);stop-opacity:1"/>
    </linearGradient>
    <linearGradient id="featherGradient" x1="0%" y1="0%" x2="100%" y2="100%">
      <stop offset="0%" style="stop-color:rgb(184,195,203);stop-opacity:1"/>
      <stop offset="100%" style="stop-color:rgb(218,226,234);stop-opacity:1"/>
    </linearGradient>
  </defs>

  <!-- Create clip paths for penguin shapes -->
  <clipPath id="penguinClip">
    <path d="M50 50 H150 V90 Q170 80, 200 90 V140 Q160 130, 200 140 V190 Q160 200, 190 190 Q200 180, 220 170 Q230 180, 250 190 V240 H150 Z"/>
  </clipPath>

  <!-- Create the penguin -->
  <g clip-path="url(#penguinClip)">
    <path d="M50 50 H150 V90 Q170 80, 200 90 V140 Q160 130, 200 140 V190 Q160 200, 190 190 Q200 180, 220 170 Q230 180, 250 190 V240 H150 Z" fill="url(#bodyGradient)"/>
    <path d="M60 70 L140 70 L100 90 Z" fill="url(#featherGradient)"/>
    <circle cx="100" cy="130" r="25" fill="black"/>
    <rect x="80" y="160" width="40" height="10" fill="white"/>
  </g>

</svg>