<svg width="600" height="300" xmlns="http://www.w3.org/2000/svg">
  <defs>
    <linearGradient id="grad1" x1="0%" y1="0%" x2="100%" y2="100%">
      <stop offset="0%" style="stop-color:rgb(255,255,255);stop-opacity:1" />
      <stop offset="100%" style="stop-color:rgb(243,228,216);stop-opacity:1" />
    </linearGradient>
  </defs>

  <path d="M70 20 Q130 0, 190 20 L195 20 L260 70 Q220 120, 190 140 Z"
        fill="url(#grad1)"
        stroke-width="3"
        stroke="black" />
  <path d="M280 20 C320 5, 360 20, 370 50 L375 50 L420 100 Q390 140, 360 160 Z"
        fill="url(#grad1)"
        stroke-width="3"
        stroke="black" />
  <path d="M430 20 C470 5, 510 20, 520 50 L525 50 L560 90 Q540 120, 510 150 Z"
        fill="url(#grad1)"
        stroke-width="3"
        stroke="black" />
  <path d="M570 20 C610 5, 650 20, 660 40 L665 40 L700 80 Q680 120, 650 150 Z"
        fill="url(#grad1)"
        stroke-width="3"
        stroke="black" />
  <path d="M710 20 C750 5, 800 20, 810 40 L815 40 L840 90 Q820 130, 800 160 Z"
        fill="url(#grad1)"
        stroke-width="3"
        stroke="black" />
  <path d="M850 20 C890 5, 930 20, 940 40 L945 40 L970 90 Q960 130, 940 160 Z"
        fill="url(#grad1)"
        stroke-width="3"
        stroke="black" />
</svg>