<svg width="300" height="300" xmlns="http://www.w3.org/2000/svg">
  <!-- Background -->
  <rect x="0" y="0" width="100%" height="100%" fill="url(#gradient)" />

  <!-- Body -->
  <ellipse cx="150" cy="180" rx="70" ry="90"
           fill="url(#bodyGradient)"
           stroke="#333" stroke-width="2"/>
  <circle cx="150" cy="260" r="50"
          fill="#fff" />

  <!-- Head -->
  <ellipse cx="170" cy="120" rx="40" ry="50"
           fill="#888" />
  <path d="M170,90 Q160,80 130,80 H140 Q150,90 170,90" stroke="#333" fill="transparent"/>
  <circle cx="170" cy="70" r="20"
          fill="#fff"/>

  <!-- Wings -->
  <path d="M80,160 Q150,220 200,160 Q220,120 290,160"
        stroke="#333" fill="transparent"/>
  <path d="M170,140 Q120,180 220,140" stroke="#333" fill="transparent"/>

  <!-- Legs -->
  <rect x="90" y="260" width="50" height="60"
        rx="10" ry="10"
        fill="#777"/>
  <rect x="170" y="260" width="50" height="60"
        rx="10" ry="10"
        fill="#777"/>

  <!-- Beak -->
  <path d="M170,90 Q180,100 190,90" stroke="#ff6" fill="transparent"/>

  <!-- Eyes -->
  <circle cx="165" cy="80" r="5"
          fill="#fff"/>
  <circle cx="175" cy="80" r="5"
          fill="#fff"/>

  <!-- Gradient Definitions -->
  <defs>
    <linearGradient id="gradient" x1="0%" y1="0%" x2="100%" y2="100%">
      <stop offset="0%" style="stop-color:rgb(135,206,235); stop-opacity:1"/>
      <stop offset="100%" style="stop-color:rgb(255,255,255); stop-opacity:1"/>
    </linearGradient>
    <radialGradient id="bodyGradient" cx="50%" cy="50%" r="50%" fx="50%" fy="50%">
      <stop offset="0%" style="stop-color:#333; stop-opacity:1"/>
      <stop offset="100%" style="stop-color:#777; stop-opacity:1"/>
    </radialGradient>
  </defs>

</svg>