<svg width="500" height="400" xmlns="http://www.w3.org/2000/svg">
  <!-- Body -->
  <g id="penguin-body">
    <!-- Black body -->
    <rect x="100" y="100" width="200" height="200" fill="url(#black-gradient)" />

    <!-- White belly -->
    <rect x="130" y="170" width="140" height="90" fill="white" />

    <!-- Orange feet -->
    <g stroke-width="5">
      <polygon points="200,260 180,280 220,280" fill="url(#orange-gradient)" />
      <polygon points="100,310 80,330 120,330" fill="url(#orange-gradient)" />
    </g>
  </g>

  <!-- Head -->
  <circle cx="150" cy="70" r="60" fill="url(#white-gradient)" />

  <!-- Eye and beak -->
  <g stroke-width="2">
    <!-- Left eye -->
    <circle cx="135" cy="50" r="10" fill="black" />
    <!-- Right eye -->
    <circle cx="165" cy="50" r="10" fill="black" />

    <!-- Beak -->
    <polygon points="145,70 165,70 155,80" fill="yellow" />
  </g>

  <!-- Wings -->
  <g stroke-width="2">
    <!-- Left wing -->
    <path d="M90,30 Q110,50 140,30" fill="url(#black-gradient)" />
    <!-- Right wing -->
    <path d="M210,30 Q190,50 160,30" fill="url(#black-gradient)" />
  </g>

  <!-- Gradients -->
  <defs>
    <!-- Black gradient -->
    <linearGradient id="black-gradient" x1="0%" y1="0%" x2="100%" y2="100%">
      <stop offset="0%" style="stop-color:rgb(5,5,5);stop-opacity:1" />
      <stop offset="100%" style="stop-color:rgb(30,30,30);stop-opacity:1" />
    </linearGradient>

    <!-- White gradient -->
    <linearGradient id="white-gradient" x1="0%" y1="0%" x2="100%" y2="100%">
      <stop offset="0%" style="stop-color:rgb(255,255,255);stop-opacity:1" />
      <stop offset="100%" style="stop-color:rgb(200,200,200);stop-opacity:1" />
    </linearGradient>

    <!-- Orange gradient -->
    <linearGradient id="orange-gradient" x1="0%" y1="0%" x2="100%" y2="100%">
      <stop offset="0%" style="stop-color:rgb(255,165,0);stop-opacity:1" />
      <stop offset="100%" style="stop-color:rgb(255,128,0);stop-opacity:1" />
    </linearGradient>
  </defs>

</svg>