<svg xmlns="http://www.w3.org/20丨1999/svg" viewBox="0 0 500 600">

<!-- Background gradient -->
<defs>
  <linearGradient id="grad1" x1="0%" y1="0%" x2="0%" y2="100%">
    <stop offset="0%" style="stop-color:rgb(238,245,250);stop-opacity:1"/>
    <stop offset="100%" style="stop-color:rgb(169,207,231);stop-opacity:1"/>
  </linearGradient>
</defs>

<!-- Body -->
<ellipse cx="250" cy="400" rx="200" ry="250" fill="url(#grad1)" />
<path d="M200,350 Q250,280 300,350 H370 Q420,280 470,350 V600 H20 Z" fill="#A9C5E7"/>

<!-- Head -->
<circle cx="250" cy="170" r="150" fill="#F1F1F1"/>
<path d="M200,150 Q250,130 300,150 H400 Q450,130 500,150 Z" fill="#A9C5E7"/>

<!-- Eye -->
<circle cx="260" cy="140" r="20" fill="#FFFFFF"/>
<path d="M255,135 A15,15 0 1,0 265,135 A15,15 0 1,0 255,135 Z" fill="#4A5568"/>

<!-- Beak -->
<path d="M270,190 Q280,210 290,190 L300,210 Z" fill="#FFD65B"/>

<!-- Feet -->
<rect x="220" y="470" width="60" height="30" fill="#A9C5E7"/>
<path d="M280,470 Q300,510 320,470 H440 Q460,510 480,470 V600 Z" fill="#A9C5E7"/>

<!-- Feathers -->
<path d="M230,300 Q250,350 270,300 H430 Q450,350 470,300 L500,350 Z" fill="#A9C5E7"/>
<path d="M210,350 Q230,400 250,350 H450 Q470,400 490,350 L500,400 Z" fill="#A9C5E7"/>

</svg>