<svg width="400" height="200" xmlns="http://www.w3.org/2000/svg">
  <defs>
    <linearGradient id="grad1" x1="0%" y1="0%" x2="100%" y2="100%">
      <stop offset="0%" style="stop-color:rgb(0,0,255);stop-opacity:1"/>
      <stop offset="100%" style="stop-color:rgb(255,255,255);stop-opacity:1"/>
    </linearGradient>
  </defs>

  <!-- P -->
  <path d="M10,40 Q30,20 60,40 L70,90 L80,40 Z"
        stroke-width="4" stroke="url(#grad1)"
        fill="transparent"/>

  <!-- E -->
  <path d="M110,40 Q130,20 160,40 Q150,70 180,40 L190,90 Z"
        stroke-width="4" stroke="url(#grad1)"
        fill="transparent"/>

  <!-- N -->
  <path d="M220,40 L250,90 L260,40 Q270,20 300,40 L290,90 Z"
        stroke-width="4" stroke="url(#grad1)"
        fill="transparent"/>

  <!-- G -->
  <path d="M320,40 Q350,20 380,40 Q370,70 390,90 L360,90 Z"
        stroke-width="4" stroke="url(#grad1)"
        fill="transparent"/>

  <!-- U -->
  <path d="M410,40 Q420,80 450,40 Q460,80 470,40 L490,90 Z"
        stroke-width="4" stroke="url(#grad1)"
        fill="transparent"/>

  <!-- I -->
  <path d="M500,40 V90 H520 V40 Z"
        stroke-width="4" stroke="url(#grad1)"
        fill="transparent"/>

  <!-- N -->
  <path d="M530,40 L560,90 L570,40 Q580,20 610,40 L600,90 Z"
        stroke-width="4" stroke="url(#grad1)"
        fill="transparent"/>

  <!-- space between letters -->
  <path d="M30,0 H0 V200 H30 Z" fill="white"/>
</svg>