<svg width="500" height="200" xmlns="http://www.w3.org/2000/svg">

  <!-- Gradient definition -->
  <defs>
    <linearGradient id="grad1" x1="0%" y1="0%" x2="100%" y2="100%">
      <stop offset="0%" style="stop-color:rgb(64,83,97);stop-opacity:1"/>
      <stop offset="100%" style="stop-color:rgb(151,176,189);stop-opacity:1"/>
    </linearGradient>
  </defs>

  <!-- Penguin -->
  <path
    d="M30 50 C40 30, 60 20, 75 40 L85 40 C95 40, 105 30, 115 40 C115 45, 120 50, 120 55 C120 60, 115 65, 105 70 C95 70, 85 60, 75 50 Z"
    stroke-width="3"
    fill="url(#grad1)"
    stroke="black"
  />

  <!-- g -->
  <path
    d="M200 50 Q220 30, 240 50 Q260 70, 280 50 Q290 20, 310 50"
    stroke-width="2"
    fill="url(#grad1)"
    stroke="black"
  />

  <!-- Penguins -->
  <path
    d="M340 50 C360 70, 380 90, 400 70 C420 50, 440 70, 460 50"
    stroke-width="1.5"
    fill="url(#grad1)"
    stroke="black"
  />

</svg>