<svg width="300" height="300" xmlns="http://www.w3.org/2000/svg">
  <!-- Body -->
  <circle cx="150" cy="200" r="80" fill="url(#penguinBodyGradient)" />

  <!-- Head -->
  <ellipse cx="150" cy="140" rx="70" ry="60" fill="url(#penguinHeadGradient)">
    <animateTransform
      attributeName="transform"
      type="rotate"
      from="0 150 140"
      to="360 150 140"
      begin="0s"
      dur="2s"
      repeatCount="indefinite" />
  </ellipse>

  <!-- Beak -->
  <path d="M140 120 L170 120 L160 90 Z" fill="#ffbf78" />

  <!-- Eyes -->
  <circle cx="135" cy="110" r="5" fill="black" />
  <circle cx="165" cy="110" r="5" fill="black" />

  <!-- Feet -->
  <ellipse cx="120" cy="240" rx="30" ry="20" fill="#a5b48f">
    <animateTransform
      attributeName="transform"
      type="translate"
      from="0,0"
      to="0,-10"
      begin="0s"
      dur="1s"
      repeatCount="indefinite" />
  </ellipse>
  <ellipse cx="180" cy="240" rx="30" ry="20" fill="#a5b48f">
    <animateTransform
      attributeName="transform"
      type="translate"
      from="0,0"
      to="0,-10"
      begin="0.5s"
      dur="1s"
      repeatCount="indefinite" />
  </ellipse>

  <!-- Wings -->
  <path d="M90 200 Q130 160, 150 240 Q70 280 Z" fill="#a5b48f"/>
  <path d="M210 200 Q170 160, 150 240 Q230 280 Z" fill="#a5b48f"/>

  <!-- Tummy flaps -->
  <path d="M140 260 Q110 290, 170 290 Q200 260 Z" fill="#ffbf78"/>

  <!-- Gradients -->
  <defs>
    <linearGradient id="penguinBodyGradient" x1="50%" y1="0%" x2="50%" y2="100%">
      <stop offset="0%" style="stop-color:rgb(36,47,99);stop-opacity:1" />
      <stop offset="100%" style="stop-color:rgb(68,90,156);stop-opacity:1" />
    </linearGradient>
    <linearGradient id="penguinHeadGradient" x1="50%" y1="0%" x2="50%" y2="100%">
      <stop offset="0%" style="stop-color:rgb(93,118,176);stop-opacity:1" />
      <stop offset="100%" style="stop-color:rgb(140,169,215);stop-opacity:1" />
    </linearGradient>
  </defs>
</svg>