<svg width="200" height="300" xmlns="http://www.w3.org/2000/svg">
  <defs>
    <linearGradient id="grad1" x1="0%" y1="0%" x2="100%" y2="100%">
      <stop offset="0%" style="stop-color:rgb(65,99,138);stop-opacity:1" />
      <stop offset="100%" style="stop-color:rgb(74,105,145);stop-opacity:1" />
    </linearGradient>
  </defs>

  <!-- Body -->
  <g fill="url(#grad1)">
    <path d="M80 20 Q90 35, 100 60 Q90 85, 80 100 Q70 85, 60 60" />
    <clipPath id="penguin-clip">
      <path d="M80 20 Q90 35, 100 60 Q90 85, 80 100 Q70 85, 60 60" />
    </clipPath>
  </g>

  <!-- Head -->
  <path fill="white" d="M70 20 Q80 35, 90 45 Q90 55, 80 60 Q70 55, 60 45" clip-path="url(#penguin-clip)"/>

  <!-- Eyes -->
  <circle cx="75" cy="40" r="5"/>
  <circle cx="85" cy="40" r="5"/>

  <!-- Beak -->
  <rect x="75" y="35" width="20" height="15" fill="#ffa500"/>

  <!-- Feet -->
  <g fill="black">
    <path d="M80 100 Q90 110, 100 120"/>
    <path d="M70 100 Q60 110, 50 120"/>
  </g>

</svg>