<svg>` tag.

```svg
<svg width="500" height="200" xmlns="http://www.w3.org/2000/svg">
  <defs>
    <linearGradient id="grad1" x1="0%" y1="0%" x2="100%" y2="100%">
      <stop offset="0%" style="stop-color:rgb(255,238,219);stop-opacity:1" />
      <stop offset="100%" style="stop-color:rgb(176,48,48);stop-opacity:1" />
    </linearGradient>
  </defs>

  <g stroke-width="1.5" stroke="url(#grad1)">
    <!-- P -->
    <path d="M10,30 Q20,5 Q40,30 Q60,5 Q80,30 L90,70 L100,30 Z" />
    <path d="M90,70 L100,70" stroke-width="2" />

    <!-- E -->
    <path d="M120,30 Q140,5 Q160,30 Q180,5 Q200,30 Z" />
    <path d="M190,30 L200,30" stroke-width="2" />

    <!-- N -->
    <path d="M220,30 Q240,5 Q260,30 Q280,5 Q300,30 Z" />
    <path d="M290,30 L300,70 L290,100 H260 Z" />

    <!-- G -->
    <path d="M320,30 Q340,5 Q360,30 Q380,5 Q400,30 Z" />
    <path d="M390,70 L400,100 H360 Z" />

    <!-- I -->
    <path d="M420,30 V70" stroke-width="2" />
    <circle cx="435" cy="50" r="5" stroke-width="2" />

    <!-- N -->
    <path d="M460,30 Q480,5 Q500,30 Q520,5 Q540,30 Z" />
    <path d="M530,30 L540,70 L530,100 H500 Z" />

    <!-- U -->
    <path d="M560,30 Q580,5 Q600,30 Q580,45 Q560,30 Z" />
    <path d="M590,70 L600,100 H580 Z" />

    <!-- I -->
    <path d="M620,30 V70" stroke-width="2" />
    <circle cx="635" cy="50" r="5" stroke-width="2" />

    <!-- N -->
    <path d="M660,30 Q680,5 Q700,30 Q680,45 Q660,30 Z" />
    <path d="M690,70 L700,100 H680 Z" />

    <!-- K -->
    <path d="M720,30 Q740,5 Q760,30 Q780,5 Q800,30 Z" />
    <path d="M790,70 L800,100 M800,70 H780 Z" />

  </g>
</svg>