<svg width="200" height="200" xmlns="http://www.w3.org/2000/svg">
  <!-- Background gradient -->
  <defs>
    <linearGradient id="grad1" x1="0%" y1="0%" x2="100%" y2="100%">
      <stop offset="0%"   style="stop-color:rgb(73,94,87);stop-opacity:1" />
      <stop offset="100%" style="stop-color:rgb(156,169,147);stop-opacity:1" />
    </linearGradient>
  </defs>
  <rect width="200" height="200" fill="url(#grad1)" />

  <!-- Body -->
  <g clip-path="url(#clipBody)">
    <circle cx="100" cy="75" r="60" fill="#4D89C6"/>
    <path d="M50,125 Q60,130 80,130 Q90,130 100,125 Q90,120 70,120 Q50,120" fill="#C6E4FF"/>
    <path d="M50,125 Q60,135 80,135 Q90,135 100,125 Q90,125 70,125 Q50,125" fill="#C6E4FF"/>
  </g>
  <clipPath id="clipBody">
    <circle cx="100" cy="75" r="80"/>
  </clipPath>

  <!-- Head -->
  <circle cx="100" cy="50" r="30" fill="#FFA034"/>
  <path d="M90,25 Q100,10 110,25" stroke="#FFA034" fill="transparent"/>

  <!-- Eyes -->
  <circle cx="85" cy="40" r="5" fill="#FFFFFF"/>
  <circle cx="115" cy="40" r="5" fill="#FFFFFF"/>

  <!-- Beak -->
  <path d="M95,60 Q105,70 115,60" stroke="#FFA034" fill="transparent"/>
</svg>