<svg width="600" height="200" xmlns="http://www.w3.org/2000/svg">
  <defs>
    <linearGradient id="gradient" x1="0%" y1="0%" x2="100%" y2="100%">
      <stop offset="0%" style="stop-color:rgb(0,0,255);stop-opacity:1" />
      <stop offset="100%" style="stop-color:rgb(255,255,255);stop-opacity:1" />
    </linearGradient>
  </defs>

  <path d="M30 80 Q50 90 70 100 L140 60 Q160 90 190 100 C200 120 220 120 240 100"
        stroke-width="4" fill="none" stroke=url(#gradient) />

  <path d="M300 80 Q320 90 340 100 L410 60 Q430 90 460 100 C480 120 500 120 520 100"
        stroke-width="4" fill="none" stroke=url(#gradient) />

  <path d="M530 80 Q550 90 570 100 L640 60 Q660 90 690 100"
        stroke-width="4" fill="none" stroke=url(#gradient) />

  <path d="M30 160 Q50 170 70 180 L140 140 Q160 170 190 180 C200 200 220 200 240 180"
        stroke-width="4" fill="none" stroke=url(#gradient) />

  <path d="M300 160 Q320 170 340 180 L410 140 Q430 170 460 180 C480 200 500 200 520 180"
        stroke-width="4" fill="none" stroke=url(#gradient) />

  <path d="M530 160 Q550 170 570 180 L640 140 Q660 170 690 180"
        stroke-width="4" fill="none" stroke=url(#gradient) />
</svg>