<svg xmlns="http://www.w3.org/2000/svg" viewBox="-50 -50 100 100">

  <!-- Body -->
  <circle cx="0" cy="0" r="40" fill="url(#bodyGradient)" />
  <path d="M0,-40 Q-10,-30 0,-20 Q10,-30 0,-40" stroke="black" fill="transparent"/>

  <!-- Head -->
  <circle cx="0" cy="-25" r="15" fill="url(#headGradient)"/>
  <path d="M-8 -25 L-8 -10 A15,15 0 1 0 8 -10 Z" stroke="black" fill="transparent"/>

  <!-- Wings -->
  <rect x="-30" y="-45" width="60" height="15" rx="7.5" fill="#90EE90"/>
  <transform>
    <rotate id="wingRotation" angle="45"/>
  </transform>

  <!-- Flippers -->
  <rect x="-20" y="-50" width="40" height="10" rx="5" fill="#90EE90"/>
  <rect x="-20" y="0" width="40" height="10" rx="5" fill="#90EE90"/>

  <!-- Beak -->
  <path d="M-5 -35 Q0,-40 5,-35 Q0,-30 5,-35 Z" stroke="orange" fill="orange"/>

  <!-- Legs -->
  <rect x="-10" y="0" width="20" height="20" rx="5" fill="#98FB98"/>
  <rect x="-10" y="20" width="20" height="20" rx="5" fill="#98FB98"/>

  <!-- Gradients -->
  <defs>
    <linearGradient id="bodyGradient" gradientTransform="rotate(45)">
      <stop offset="0%"   stop-color="#3F7D8E"/>
      <stop offset="100%" stop-color="#265B6A"/>
    </linearGradient>

    <radialGradient id="headGradient">
      <stop offset="0%"   stop-color="#FFFFFF"/>
      <stop offset="100%" stop-color="#3F7D8E"/>
    </radialGradient>
  </defs>

</svg>