<svg width="300" height="200" xmlns="http://www.w3.org/2000/svg">
  <defs>
    <linearGradient id="grad1" x1="0%" y1="0%" x2="100%" y2="100%">
      <stop offset="0%" style="stop-color:rgb(173,216,230);stop-opacity:1" />
      <stop offset="100%" style="stop-color:rgb(255,255,255);stop-opacity:1" />
    </linearGradient>
  </defs>

  <!-- P -->
  <path d="M80 40 Q90 30 100 40 L100 60 Q90 70 80 60 Z"
        stroke-width="5" stroke="black"
        fill="url(#grad1)" />

  <!-- e -->
  <path d="M120 40 Q130 30 140 40 L140 80 Q130 90 120 70 Z"
        stroke-width="5" stroke="black"
        fill="url(#grad1)" />

  <!-- n -->
  <path d="M160 40 H180 V60 H160 L170 80 Z"
        stroke-width="5" stroke="black"
        fill="url(#grad1)" />

  <!-- g -->
  <path d="M200 40 Q210 30 220 40 V80 Q210 90 200 70 Z"
        stroke-width="5" stroke="black"
        fill="url(#grad1)" />

  <!-- u -->
  <path d="M240 60 C230 50, 220 40, 210 40 Q200 50 190 60 Z"
        stroke-width="5" stroke="black"
        fill="url(#grad1)" />

  <!-- i -->
  <path d="M270 80 L300 80"
        stroke-width="5" stroke="black"
        fill="url(#grad1)" />
</svg>