<svg width="500" height="200" xmlns="http://www.w3.org/2000/svg">
  <defs>
    <linearGradient id="grad1" x1="0%" y1="0%" x2="100%" y2="100%">
      <stop offset="0%"   style="stop-color:rgb(255,255,255);stop-opacity:1" />
      <stop offset="100%" style="stop-color:rgb(187,255,253);stop-opacity:1" />
    </linearGradient>
  </defs>

  <!-- P -->
  <path d="M40 60 q10 0 20 10 t40 0 q-10 0 -20 -10"
        stroke-width="5"
        stroke="black"
        fill="none"
        stroke-linecap="round"/>
  <path d="M70 80 q50 -20 50 20"
        stroke-width="3"
        stroke="url(#grad1)"
        fill="none"
        stroke-linecap="round"/>

  <!-- E -->
  <path d="M90 60 l40 0 q-20 20 -40 20 t-40 0 q20 -20 40 -20"
        stroke-width="5"
        stroke="black"
        fill="none"
        stroke-linecap="round"/>
  <path d="M90 80 l40 0"
        stroke-width="3"
        stroke="url(#grad1)"
        fill="none"
        stroke-linecap="round"/>

  <!-- N -->
  <path d="M120 60 q-10 0 -20 10 t40 0 q10 0 20 -10"
        stroke-width="5"
        stroke="black"
        fill="none"
        stroke-linecap="round"/>
  <path d="M130 80 l40 40 q-20 0 -40 -20 t-40 20 q0 -20 20 -40"
        stroke-width="3"
        stroke="url(#grad1)"
        fill="none"
        stroke-linecap="round"/>

  <!-- G -->
  <path d="M160 60 q-10 0 -20 10 t40 0 q10 0 20 -10"
        stroke-width="5"
        stroke="black"
        fill="none"
        stroke-linecap="round"/>
  <path d="M170 80 l20 40 q-10 0 -20 10 t-40 0 q10 0 20 -10"
        stroke-width="3"
        stroke="url(#grad1)"
        fill="none"
        stroke-linecap="round"/>

  <!-- U -->
  <path d="M200 60 q50 0 50 40 t-100 0 q0 -20 50 -40"
        stroke-width="5"
        stroke="black"
        fill="none"
        stroke-linecap="round"/>
  <path d="M230 60 l40 0"
        stroke-width="3"
        stroke="url(#grad1)"
        fill="none"
        stroke-linecap="round"/>

  <!-- I -->
  <path d="M250 60 l40 80"
        stroke-width="5"
        stroke="black"
        fill="none"
        stroke-linecap="round"/>
</svg>