<svg xmlns="http://www.w3.org/2000/svg" viewBox="-5 0 80 40">
  <defs>
    <linearGradient id="grad1" x1="0%" y1="0%" x2="100%" y2="0%">
      <stop offset="0%" style="stop-color:#333; stop-opacity:1" />
      <stop offset="100%" style="stop-color:#666; stop-opacity:1" />
    </linearGradient>
  </defs>

  <!-- P -->
  <path d="M10,2c-4.418,-5.372 -9,-10.859 -17,-10.859v1h22z"
        fill="url(#grad1)" stroke="#ccc" stroke-width="2"/>

  <!-- E -->
  <path d="M30,2c-4,-6.667 -12,-10.333 -20,-10.333s-16,3.667 -20,10.333v5h22z"
        fill="url(#grad1)" stroke="#ccc" stroke-width="2"/>

  <!-- N -->
  <path d="M45,18c-3,-3 -9,-3 -12,0l6,15c3,7.5 12,7.5 15,0z"
        fill="url(#grad1)" stroke="#ccc" stroke-width="2"/>

  <!-- G -->
  <path d="M60,18c-5,-3 -9,-10 -9,-17v4h20v-4c0,-7 -4,-12 -9,-17z"
        fill="url(#grad1)" stroke="#ccc" stroke-width="2"/>

  <!-- U -->
  <path d="M75,30c-6,-8.5 -18,-8.5 -24,0l6,12h12z"
        fill="url(#grad1)" stroke="#ccc" stroke-width="2"/>

  <!-- I -->
  <path d="M90,18h5v20h-5z"
        fill="url(#grad1)" stroke="#ccc" stroke-width="2"/>

</svg>