<svg>` tag.

```xml
<svg width="500" height="300" xmlns="http://www.w3.org/2000/svg">
  <defs>
    <linearGradient id="grad1" x1="0%" y1="0%" x2="100%" y2="0%">
      <stop offset="0%" style="stop-color:rgb(95,74,68);stop-opacity:1" />
      <stop offset="100%" style="stop-color:rgb(37,25,22);stop-opacity:1" />
    </linearGradient>
  </defs>

  <!-- P -->
  <path d="M50 20 Q80 0, 140 20 L140 60 L80 100 L20 60 Z"
        fill="url(#grad1)" stroke-width="4" stroke="black"/>

  <!-- E -->
  <path d="M170 20 Q220 0, 270 35 L270 80 L220 95 L170 80 Z"
        fill="url(#grad1)" stroke-width="4" stroke="black"/>

  <!-- N -->
  <path d="M300 20 Q350 0, 400 65 L400 90 L350 100 L300 90 Z"
        fill="url(#grad1)" stroke-width="4" stroke="black"/>

  <!-- G -->
  <path d="M420 20 Q470 0, 520 65 L520 80 Q470 100, 420 90 Z"
        fill="url(#grad1)" stroke-width="4" stroke="black"/>

  <!-- I -->
  <path d="M550 35 V95" fill="none" stroke-width="6" stroke="black"/>

  <!-- N -->
  <path d="M570 20 Q620 0, 670 65 L670 90 L620 100 L570 90 Z"
        fill="url(#grad1)" stroke-width="4" stroke="black"/>

  <!-- U -->
  <path d="M680 20 Q730 0, 780 65 L780 90 Q730 100, 680 90 Z"
        fill="url(#grad1)" stroke-width="4" stroke="black"/>
</svg>