<svg width="500" height="500" xmlns="http://www.w3.org/2000/svg">
  <!-- Background -->
  <rect x="0" y="0" width="100%" height="100%" fill="#FFFFFF"/>
  <linearGradient id="grad1" x1="0%" y1="0%" x2="0%" y2="100%">
    <stop offset="0%" style="stop-color:#D3D3D3; stop-opacity:1" />
    <stop offset="100%" style="stop-color:#9C9C9C; stop-opacity:1" />
  </linearGradient>
  <rect x="25%" y="70%" width="50%" height="30%" fill="url(#grad1)"/>

  <!-- Body -->
  <ellipse cx="40%" cy="65%" rx="30%" ry="40%" fill="#A9A9A9"/>
  <linearGradient id="grad2" x1="50%" y1="0%" x2="50%" y2="100%">
    <stop offset="0%" style="stop-color:#777; stop-opacity:1" />
    <stop offset="100%" style="stop-color:#333; stop-opacity:1" />
  </linearGradient>
  <ellipse cx="40%" cy="65%" rx="28%" ry="38%" fill="url(#grad2)"/>

  <!-- Head -->
  <circle cx="40%" cy="45%" r="20%" fill="#FFFFFF"/>
  <path d="M40%,35% Q37.5%,32.5% 39%,35% S41.5%,38% 40%,35%" stroke="#333" fill="transparent"/>

  <!-- Beak -->
  <path d="M40%,40% L42%,37% 38%,37 Z" fill="#FF6F00"/>
  <linearGradient id="grad3" x1="0%" y1="0%" x2="100%" y2="0%">
    <stop offset="0%" style="stop-color:#FF6F00; stop-opacity:1" />
    <stop offset="100%" style="stop-color:#FF4500; stop-opacity:1" />
  </linearGradient>
  <path d="M42%,37 L40%,39.5 38%,37 Z" fill="url(#grad3)"/>

  <!-- Eyes -->
  <circle cx="37%" cy="36%" r="2%" fill="#FFFFFF"/>
  <circle cx="43%" cy="36%" r="2%" fill="#FFFFFF"/>
  <circle cx="37%" cy="36%" r="1.5%" fill="#000"/>
  <circle cx="43%" cy="36%" r="1.5%" fill="#000"/>

  <!-- Feet -->
  <path d="M28%,80% L32%,90% 47%,80 Z" fill="#A9A9A9"/>
  <path d="M72%,80% L65%,90% 77%,80 Z" fill="#A9A9A9"/>

</svg>