<svg width="300" height="400" xmlns="http://www.w3.org/2000/svg">
  <!-- Background -->
  <rect x="0" y="0" width="100%" height="100%" fill="url(#gradient)"/>

  <!-- Penguin Body -->
  <ellipse cx="150" cy="280" rx="70" ry="90"
           fill="url(#penguin-body-gradient)"
           stroke="black"/>
  <circle cx="150" cy="330" r="60"
          fill="white"/>

  <!-- Penguin Head -->
  <path d="M120,250 Q140,220 170,250 T200,280 Q140,320 120,350 Z"
        fill="url(#penguin-head-gradient)"/>
  <circle cx="150" cy="260" r="20" fill="black"/>

  <!-- Penguin Feet -->
  <path d="M80,400 Q120,430 150,400 Q180,430 210,400 Z"
        fill="url(#penguin-feet-gradient)"/>
  <path d="M90,390 Q130,370 160,390 Q200,370 210,390"/>

  <!-- Penguin Flipper -->
  <path d="M85,340 Q110,360 140,340"
        stroke="black" fill="transparent"/>
  <path d="M215,340 Q190,360 160,340"
        stroke="black" fill="transparent"/>

  <!-- Gradients -->
  <defs>
    <linearGradient id="gradient" x1="0%" y1="0%" x2="100%" y2="100%">
      <stop offset="5%" style="stop-color:rgb(71,47,23);stop-opacity:1"/>
      <stop offset="95%" style="stop-color:rgb(182,130,86);stop-opacity:1"/>
    </linearGradient>
    <radialGradient id="penguin-body-gradient" cx="50%" cy="50%" r="50%">
      <stop offset="0%" style="stop-color:rgb(143,92,57);stop-opacity:1"/>
      <stop offset="100%" style="stop-color:rgb(86,58,32);stop-opacity:1"/>
    </radialGradient>
    <linearGradient id="penguin-head-gradient" x1="0%" y1="0%" x2="100%" y2="100%">
      <stop offset="0%" style="stop-color:rgb(255,255,255);stop-opacity:1"/>
      <stop offset="100%" style="stop-color:rgb(238,238,238);stop-opacity:1"/>
    </linearGradient>
    <linearGradient id="penguin-feet-gradient" x1="0%" y1="0%" x2="100%" y2="100%">
      <stop offset="0%" style="stop-color:rgb(195,178,146);stop-opacity:1"/>
      <stop offset="100%" style="stop-color:rgb(133,120,94);stop-opacity:1"/>
    </linearGradient>
  </defs>
</svg>