<svg width="500" height="500" xmlns="http://www.w3.org/2000/svg" version="1.1">
  <!-- Background -->
  <rect x="0" y="0" width="500" height="500" fill="url(#gradient)" />

  <!-- Penguin Body -->
  <g id="penguin-body">
    <clipPath id="body-clip" clipPathUnits="objectBoundingBox">
      <path d="M10,90 Q30,70 60,90 Q85,120 100,90 Q115,70 140,90 Q160,110 175,90" />
    </clipPath>
    <g clipPath="url(#body-clip)">
      <path d="M10,90 Q30,70 60,90 Q85,120 100,90 Q115,70 140,90 Q160,110 175,90" fill="#A9D6E5" />
    </g>
  </g>

  <!-- Penguin Head -->
  <circle cx="85" cy="60" r="20" fill="#FFFFFF">
    <animate attributeName="r" from="20" to="15" dur="2s" repeatCount="indefinite" />
  </circle>

  <!-- Penguin Eyes -->
  <circle cx="75" cy="55" r="3" fill="#000000" />
  <circle cx="95" cy="55" r="3" fill="#000000" />

  <!-- Penguin Belly -->
  <rect x="65" y="140" width="100" height="60" fill="#FFFFFF">
    <animate attributeName="height" from="60" to="70" dur="2s" repeatCount="indefinite" />
  </rect>

  <!-- Penguin Feet -->
  <g transform="translate(85, 190)">
    <path d="M0,-10 Q-5,-30 -10,-10" fill="#A9D6E5" stroke="#000000" />
    <path d="M0,10 Q5,30 10,10" fill="#A9D6E5" stroke="#000000" />
  </g>

  <!-- Gradients -->
  <defs>
    <linearGradient id="gradient" x1="0%" y1="0%" x2="100%" y2="100%">
      <stop offset="0%" style="stop-color:rgb(255,255,255);stop-opacity:1" />
      <stop offset="100%" style="stop-color:rgb(239,248,255);stop-opacity:1" />
    </linearGradient>
  </defs>
</svg>