<svg width="300" height="300" xmlns="http://www.w3.org/2000/svg">
  <!-- Background -->
  <rect width="100%" height="100%" fill="#E6E6E6"/>

  <!-- Body -->
  <ellipse cx="150" cy="150" rx="80" ry="120" fill="url(#penguinBodyGradient)"/>
  <path d="M130,270 Q90,220 60,240 H180 Q210,220 150,270" stroke="#3D3D3D" fill="none"/>

  <!-- Head -->
  <circle cx="150" cy="70" r="70" fill="#FFA500"/>
  <path d="M150,30 Q90,40 150,60 Q210,40 150,30" stroke="#3D3D3D" fill="none"/>

  <!-- Beak -->
  <path d="M140,75 L160,75 L150,65" fill="#FFC300"/>

  <!-- Eyes -->
  <circle cx="135" cy="50" r="8" fill="#FFFFFF"/>
  <circle cx="165" cy="50" r="8" fill="#FFFFFF"/>
  <circle cx="135" cy="50" r="4" fill="#000000"/>
  <circle cx="165" cy="50" r="4" fill="#000000"/>

  <!-- Legs -->
  <path d="M90,240 H180 Q210,270 150,300" stroke="#3D3D3D" fill="none"/>
  <path d="M90,260 H180 Q210,290 150,320" stroke="#3D3D3D" fill="none"/>

  <!-- Gradient for penguin body -->
  <defs>
    <linearGradient id="penguinBodyGradient" x1="0%" y1="0%" x2="0%" y2="100%">
      <stop offset="0%" style="stop-color:#78593B; stop-opacity:1"/>
      <stop offset="100%" style="stop-color:#3D3D3D; stop-opacity:1"/>
    </linearGradient>
  </defs>
</svg>