<svg width="200" height="250" xmlns="http://www.w3.org/2000/svg">

  <!-- Body -->
  <polygon points="100,5 150,5 175,60 100,90" fill="url(#bodyGradient)" />
  <path d="M85,5 Q100,25 100,50 Q115,25 85,5" stroke="none" fill="white" />

  <!-- Head -->
  <circle cx="100" cy="40" r="30" fill="url(#headGradient)" />
  <path d="M95,70 Q100,60 105,70" stroke="none" fill="white" />

  <!-- Wings -->
  <polygon points="120,40 150,80 135,120" fill="url(#wingGradient)" />
  <polygon points="80,40 60,80 75,120" fill="url(#wingGradient)" />

  <!-- Legs -->
  <rect x="90" y="120" width="20" height="30" fill="url(#legGradient)" />
  <rect x="70" y="120" width="20" height="30" fill="url(#legGradient)" />

  <!-- Beak -->
  <polygon points="95,45 105,45 100,55" fill="#ff6347" />

  <!-- Eyes -->
  <circle cx="85" cy="35" r="5" fill="black" />
  <circle cx="115" cy="35" r="5" fill="black" />

  <!-- Gradients -->
  <defs>
    <linearGradient id="bodyGradient" x1="0%" y1="0%" x2="100%" y2="100%">
      <stop offset="0%" style="stop-color:#87ceeb; stop-opacity:1" />
      <stop offset="100%" style="stop-color:#0066c0; stop-opacity:1" />
    </linearGradient>
    <linearGradient id="headGradient" x1="0%" y1="0%" x2="100%" y2="100%">
      <stop offset="0%" style="stop-color:#ffffff; stop-opacity:1" />
      <stop offset="100%" style="stop-color:#cccccc; stop-opacity:1" />
    </linearGradient>
    <linearGradient id="wingGradient" x1="0%" y1="0%" x2="100%" y2="100%">
      <stop offset="0%" style="stop-color:#ffffff; stop-opacity:1" />
      <stop offset="100%" style="stop-color:#cccccc; stop-opacity:1" />
    </linearGradient>
    <linearGradient id="legGradient" x1="0%" y1="0%" x2="100%" y2="100%">
      <stop offset="0%" style="stop-color:#776e65; stop-opacity:1" />
      <stop offset="100%" style="stop-color:#4a3d30; stop-opacity:1" />
    </linearGradient>
  </defs>

</svg>