<svg width="600" height="300" xmlns="http://www.w3.org/2000/svg" version="1.1">
  <defs>
    <linearGradient id="grad1" x1="0%" y1="0%" x2="100%" y2="100%">
      <stop offset="0%" style="stop-color:rgb(64,64,64);stop-opacity:1"/>
      <stop offset="100%" style="stop-color:rgb(192,192,192);stop-opacity:1"/>
    </linearGradient>
  </defs>

  <g stroke-width="3" stroke="url(#grad1)">
    <!-- P -->
    <path d="M50,10 Q80,40 130,60 Q170,120 200,150 L200,280 Q170,320 130,350 Q80,390 50,340 L50,10"/>

    <!-- E -->
    <path d="M250,10 Q290,40 330,60 Q370,120 410,150 H440 V280 H410 L370,350 Q330,390 290,350 H250 Z"/>

    <!-- N -->
    <path d="M460,10 Q500,40 540,60 Q580,120 620,150 L620,300 Q580,370 540,390 Q500,350 460,300"/>

    <!-- G -->
    <path d="M670,10 Q710,40 750,60 Q800,120 840,150 H870 V280 H840 L800,350 Q750,390 710,350 Q670,300 670,10"/>

    <!-- I -->
    <path d="M920,10 Q960,40 1000,60 V300 H980 Z"/>

    <!-- N -->
    <path d="M1050,10 Q1090,40 1130,60 Q1170,120 1210,150 L1210,300 Q1170,370 1130,390 Q1090,350 1050,300"/>

    <!-- U -->
    <path d="M1260,10 Q1300,40 1340,60 Q1380,120 1420,150 L1420,300 Q1380,370 1340,390 Q1300,350 1260,300 Z"/>

    <!-- I -->
    <path d="M1470,10 Q1510,40 1550,60 V300 H1530 Z"/>
  </g>
</svg>