<svg width="500" height="400" xmlns="http://www.w3.org/2000/svg">
  <!-- Black outline -->
  <rect x="10" y="10" width="480" height="380" fill="black"/>

  <!-- Background gradient -->
  <defs>
    <linearGradient id="bgGradient" x1="0%" y1="0%" x2="100%" y2="100%">
      <stop offset="0%" style="stop-color:rgb(255,255,255);stop-opacity:0.9"/>
      <stop offset="100%" style="stop-color:rgb(240,240,240);stop-opacity:1"/>
    </linearGradient>
  </defs>
  <rect x="20" y="20" width="460" height="360" fill="url(#bgGradient)"/>

  <!-- Body -->
  <circle cx="250" cy="280" r="140" fill="#009bac">
    <animate attributeName="r" values="140;120;140" dur="3s" repeatCount="indefinite"/>
  </circle>

  <!-- Head -->
  <path d="M250,180 Q270,160 300,190 Q280,220 250,240 Q220,220 200,190 Z" fill="#ffffff">
    <animate attributeName="d" values="M250,180 Q270,160 300,190 Q280,220 250,240 Q220,220 200,190 Z;M250,180 Q260,160 300,200 Q270,230 250,250 Q220,230 200,200 Z;" dur="3s" repeatCount="indefinite"/>
  </path>

  <!-- Eyes -->
  <circle cx="240" cy="165" r="15" fill="#000">
    <animate attributeName="r" values="15;12;15" dur="3s" repeatCount="indefinite"/>
  </circle>
  <circle cx="260" cy="165" r="15" fill="#000">
    <animate attributeName="r" values="15;12;15" dur="3s" repeatCount="indefinite"/>
  </circle>

  <!-- Beak -->
  <path d="M250,170 Q260,180 270,190 Q260,200 250,190 Z" fill="#ffdead"/>

  <!-- Wings -->
  <polygon points="180,230 200,240 150,260" fill="#009bac"/>
  <polygon points="320,230 300,240 350,260" fill="#009bac"/>

  <!-- Feet -->
  <rect x="210" y="320" width="80" height="40" rx="20" ry="20" fill="#009bac"/>
  <rect x="265" y="320" width="80" height="40" rx="20" ry="20" fill="#009bac"/>

</svg>