<svg>` tag.

```xml
<svg width="200" height="200" xmlns="http://www.w3.org/2000/svg">

  <!-- Background gradient -->
  <defs>
    <linearGradient id="grad1" x1="0%" y1="0%" x2="100%" y2="100%">
      <stop offset="0%"   style="stop-color:rgb(135,206,235);stop-opacity:1" />
      <stop offset="100%" style="stop-color:rgb(255,255,255);stop-opacity:1" />
    </linearGradient>
  </defs>
  <rect width="100%" height="100%" fill="url(#grad1)"/>

  <!-- Body -->
  <g stroke-width="1" stroke="black">
    <clipPath id="bodyClip" clip-pathUnits="objectBoundingBox">
      <path d="M50,75 Q62.5,90 80,75 A30,30 0 0 0 40,20"/>
    </clipPath>
    <path d="M50,75 Q62.5,90 80,75 A30,30 0 0 0 40,20" fill="#D8FFDC" clip-path="url(#bodyClip)"/>
  </g>

  <!-- Head -->
  <circle cx="70" cy="60" r="30" stroke-width="1" stroke="black">
    <animate attributeName="r" from="30" to="40" dur="2s" repeatCount="indefinite"/>
  </circle>

  <!-- Eyes -->
  <circle cx="55" cy="50" r="5" fill="white"/>
  <circle cx="85" cy="50" r="5" fill="white"/>

  <!-- Beak -->
  <path d="M65,65 Q70,75 80,65" stroke-width="1" stroke="black" fill="orange"/>

  <!-- Legs -->
  <g transform="translate(40,90)">
    <rect x="-5" y="0" width="20" height="30" fill="#A5D6A7"/>
    <rect x="-5" y="35" width="15" height="15" fill="#A5D6A7"/>
  </g>
  <use xlink:href="#leg" transform="translate(80,90) rotate(180)"/>

</svg>