<svg width="200" height="200" xmlns="http://www.w3.org/2000/svg">

  <!-- Body -->
  <polygon id="body" points="100,0 200,100 0,100" fill="url(#gradientBody)" />

  <!-- Head -->
  <circle cx="150" cy="75" r="25" fill="white"/>
  <polygon id="head" points="80,30 160,30 150,80" fill="url(#gradientHead)"/>

  <!-- Wings -->
  <path d="M90,40 Q70,20 100,0 H110 Q120,20 130,40" stroke-width="2" stroke="black" fill="transparent"/>
  <path d="M150,40 Q160,20 170,0 H180 Q190,20 200,40" stroke-width="2" stroke="black" fill="transparent"/>

  <!-- Feet -->
  <polygon points="90,130 100,150 80,130" fill="black"/>
  <polygon points="160,130 170,150 150,130" fill="black"/>

  <!-- Legs -->
  <line x1="95" y1="130" x2="95" y2="180" stroke-width="4" stroke="black"/>
  <line x1="155" y1="130" x2="155" y2="180" stroke-width="4" stroke="black"/>

  <!-- Gradients -->
  <defs>
    <linearGradient id="gradientBody" x1="0%" y1="0%" x2="100%" y2="100%">
      <stop offset="0%" style="stop-color:rgb(73,94,138);stop-opacity:1"/>
      <stop offset="100%" style="stop-color:rgb(156,176,220);stop-opacity:1"/>
    </linearGradient>
    <linearGradient id="gradientHead" x1="0%" y1="0%" x2="100%" y2="100%">
      <stop offset="0%" style="stop-color:rgb(255,255,255);stop-opacity:1"/>
      <stop offset="100%" style="stop-color:rgb(196,213,242);stop-opacity:1"/>
    </linearGradient>
  </defs>

</svg>