<svg>` tag.

```svg
<svg width="400" height="200" xmlns="http://www.w3.org/2000/svg">
  <defs>
    <linearGradient id="grad1" x1="0%" y1="0%" x2="100%" y2="0%">
      <stop offset="0%" style="stop-color:rgb(0,0,255);stop-opacity:1"/>
      <stop offset="100%" style="stop-color:rgb(255,255,255);stop-opacity:1"/>
    </linearGradient>
  </defs>

  <!-- P -->
  <path d="M50 30 Q70 10, 90 30 H160 V80 A40 40 0 0 0 200 120 L200 30 Z"
        stroke-width="5" stroke="url(#grad1)"/>

  <!-- e -->
  <path d="M240 30 Q260 10, 280 30 H310 V80 A40 40 0 1 0 370 120 L370 30 Z"
        stroke-width="5" stroke="url(#grad1)"/>

  <!-- n -->
  <path d="M410 30 H440 V80 A40 40 0 0 0 460 120 H460 L490 30 Z"
        stroke-width="5" stroke="url(#grad1)"/>

  <!-- g -->
  <path d="M530 30 Q550 10, 570 30 A40 40 0 0 1 610 120 V80 Z"
        stroke-width="5" stroke="url(#grad1)"/>

  <!-- u -->
  <path d="M650 30 Q670 10, 690 30 A40 40 0 0 1 730 120 V80 L730 30 Z"
        stroke-width="5" stroke="url(#grad1)"/>

  <!-- i -->
  <path d="M770 60 H800 Q790 30, 800 60 Z"
        stroke-width="5" stroke="url(#grad1)"/>

  <!-- n -->
  <path d="M840 30 H870 V80 A40 40 0 0 0 910 120 H910 L940 30 Z"
        stroke-width="5" stroke="url(#grad1)"/>

</svg>