<svg width="300" height="400" xmlns="http://www.w3.org/2000/svg">
  <!-- Background -->
  <rect x="0" y="0" width="100%" height="100%" fill="url(#gradient)"/>
  <defs>
    <linearGradient id="gradient" x1="0%" y1="0%" x2="0%" y2="100%">
      <stop offset="0%" style="stop-color:rgb(135,206,235);stop-opacity:1" />
      <stop offset="100%" style="stop-color:rgb(255,255,255);stop-opacity:1" />
    </linearGradient>
  </defs>

  <!-- Body -->
  <path d="M70 300 Q90 280, 110 300 Q90 320, 70 300 Z" fill="#4A3E5F"/>
  <path d="M60 300 L70 280 H120 L130 300 H120 V320 H70 Z" fill="#9C87B1"/>

  <!-- Head -->
  <ellipse cx="95" cy="250" rx="45" ry="50" fill="#F5D76E"/>
  <circle cx="95" cy="230" r="20" fill="#FFFFFF"/>

  <!-- Flipper (left) -->
  <path d="M60 280 Q50 310, 40 280 Z" fill="#4A3E5F"/>
  <!-- Flipper (right) -->
  <path d="M130 280 Q140 310, 130 280 Z" fill="#4A3E5F"/>

  <!-- Foot (left) -->
  <path d="M60 370 Q50 400, 40 370 Z" transform="rotate(20, 55, 385)" fill="#9C87B1"/>
  <!-- Foot (right) -->
  <path d="M130 370 Q140 400, 130 370 Z" transform="rotate(-20, 125, 385)" fill="#9C87B1"/>

</svg>