<svg xmlns="http://www.w3.org/2000/svg" viewBox="-50 -100 100 200">
  <!-- Background gradient -->
  <defs>
    <linearGradient id="grad1" x1="0%" y1="0%" x2="100%" y2="100%">
      <stop offset="0%" style="stop-color:rgb(135,206,250);stop-opacity:1" />
      <stop offset="100%" style="stop-color:rgb(255,255,255);stop-opacity:1" />
    </linearGradient>
  </defs>

  <!-- Body -->
  <circle cx="-30" cy="70" r="40" fill="url(#grad1)" transform="rotate(-5, -30, 70)"/>

  <!-- Head -->
  <circle cx="-20" cy="60" r="20" fill="black" transform="rotate(-5, -20, 60)"/>

  <!-- Wings (left and right) -->
  <rect x="-40" y="45" width="15" height="30" fill="white" transform="rotate(10, -40, 75)" />
  <rect x="25" y="45" width="15" height="30" fill="white" transform="rotate(-10, 25, 75)" />

  <!-- Flippers (left and right) -->
  <rect x="-35" y="90" width="10" height="20" fill="black" transform="rotate(15, -35, 105)" />
  <rect x="20" y="90" width="10" height="20" fill="black" transform="rotate(-15, 20, 105)" />

  <!-- Beak -->
  <path d="M -35 65 Q -40 70, -35 80 Z" fill="orange" />

  <!-- Outline (eyes and belly) -->
  <circle cx="-25" cy="65" r="5" fill="white"/>
  <circle cx="-15" cy="65" r="5" fill="white"/>
  <path d="M -30 85 Q -25 95, -30 105 Z" fill="black"/>

</svg>