<svg xmlns="http://www.w3.org/2000/svg" viewBox="0 0 400 400" preserveAspectRatio="xMidYMid meet">

<!-- Background -->
<rect width="100%" height="100%" fill="#87CEEB"/>

<!-- Body -->
<ellipse cx="200" cy="350" rx="90" ry="160" fill="url(#penguinBodyGradient)"/>
<circle cx="200" cy="240" r="100" stroke="#000" stroke-width="10"/>

<!-- Head -->
<ellipse cx="200" cy="200" rx="70" ry="80" fill="#A9A9A9"/>
<circle cx="200" cy="170" r="60" stroke="#000" stroke-width="10"/>

<!-- Beak -->
<path d="M230,140 L250,150 L270,140 Z" fill="#FFD700"/>
<path d="M230,140 Q240,130 250,140 T270,140"/>

<!-- Eyes -->
<circle cx="180" cy="160" r="10" fill="#FFF"/>
<circle cx="220" cy="160" r="10" fill="#FFF"/>

<!-- Feet -->
<path d="M190,350 Q200,400 210,350" stroke="#000" stroke-width="10"/>
<path d="M210,350 Q220,400 230,350" stroke="#000" stroke-width="10"/>

<!-- Flippers -->
<path d="M170,320 Q180,350 190,320" fill="#A9A9A9"/>
<path d="M230,320 Q240,350 250,320" fill="#A9A9A9"/>

<!-- Gradients -->
<linearGradient id="penguinBodyGradient" x1="0%" y1="0%" x2="0%" y2="100%">
  <stop offset="0%" style="stop-color:#4F86F7"/>
  <stop offset="100%" style="stop-color:#B3D5FC"/>
</linearGradient>

</svg>