<svg width="500" height="500" xmlns="http://www.w3.org/2000/svg">
  <!-- Background gradient -->
  <defs>
    <linearGradient id="grad1" x1="0%" y1="0%" x2="100%" y2="100%">
      <stop offset="0%" style="stop-color:rgb(255,255,255);stop-opacity:1" />
      <stop offset="100%" style="stop-color:rgb(247,238,229);stop-opacity:1" />
    </linearGradient>
  </defs>

  <!-- Body -->
  <ellipse cx="250" cy="300" rx="150" ry="170" fill="url(#grad1)" />
  <path d="M250,370 Q280,390 250,410 Q220,390 250,410" fill="rgb(0,0,0)" />

  <!-- Head -->
  <ellipse cx="250" cy="260" rx="70" ry="80" fill="url(#grad1)" />
  <path d="M240,240 Q230,220 260,220 Q270,240 250,260 Z" fill="rgb(0,0,0)" />

  <!-- Eyes -->
  <circle cx="235" cy="235" r="10" fill="rgb(255,255,255)" />
  <circle cx="265" cy="235" r="10" fill="rgb(255,255,255)" />

  <!-- Beak -->
  <path d="M250,245 Q240,260 260,260 Q270,245 250,230 Z" fill="rgb(255,192,128)" />

  <!-- Legs -->
  <path d="M240,370 Q220,410 260,410 L240,450 L220,470 Z" fill="rgb(0,0,0)" />
  <path d="M260,370 Q280,410 240,410 L260,450 L280,470 Z" fill="rgb(0,0,0)" />

</svg>