<svg xmlns="http://www.w3.org/2000/svg" viewBox="0 0 500 600">
  <!-- Background -->
  <rect x="0" y="0" width="100%" height="100%" fill="url(#bgGradient)"/>
  <defs>
    <!-- Gradients -->
    <linearGradient id="bodyGradient" x1="0%" y1="0%" x2="100%" y2="100%">
      <stop offset="0%" style="stop-color:rgb(255,255,255); stop-opacity:0.8"/>
      <stop offset="100%" style="stop-color:rgb(0,0,0)"/>
    </linearGradient>
    <linearGradient id="featherGradient" x1="0%" y1="0%" x2="100%" y2="100%">
      <stop offset="0%" style="stop-color:rgb(255,255,255); stop-opacity:0.8"/>
      <stop offset="100%" style="stop-color:rgb(139,69,19)"/>
    </linearGradient>
    <radialGradient id="eyeGradient" cx="50%" cy="50%" r="50%">
      <stop offset="0%" style="stop-color:rgb(255,255,255); stop-opacity:0.8"/>
      <stop offset="100%" style="stop-color:rgb(0,0,0)"/>
    </radialGradient>
  </defs>

  <!-- Body -->
  <path d="M200 50 Q250 100, 300 50 Q350 100, 400 50 L400 600 H200 Z" fill="url(#bodyGradient)"/>

  <!-- Feathers -->
  <polygon points="300,80 320,100 300,120" fill="url(#featherGradient)"/>
  <polygon points="250,90 270,110 250,130" fill="url(#featherGradient)"/>

  <!-- Head -->
  <circle cx="300" cy="80" r="40" fill="url(#bodyGradient)"/>
  <path d="M260 80 Q270 90, 300 80 Q310 90, 340 80" stroke="black" fill="transparent"/>

  <!-- Eyes -->
  <circle cx="260" cy="70" r="5" fill="url(#eyeGradient)"/>
  <circle cx="340" cy="70" r="5" fill="url(#eyeGradient)"/>

  <!-- Beak -->
  <path d="M300,60 L290,80 H310 Z" fill="#FFD700"/>

</svg>