<svg>` tag.

```xml
<svg width="200" height="200" xmlns="http://www.w3.org/2000/svg">
  <!-- Define linear gradient -->
  <defs>
    <linearGradient id="grad1" x1="0%" y1="0%" x2="100%" y2="100%">
      <stop offset="0%" style="stop-color:rgb(255,255,255);stop-opacity:1" />
      <stop offset="100%" style="stop-color:rgb(0,0,0);stop-opacity:1" />
    </linearGradient>
  </defs>

  <!-- Body -->
  <g id="penguin-body">
    <rect x="50" y="60" width="100" height="90" fill="url(#grad1)" rx="20"/>
    <clipPath id="body-clip">
      <circle cx="75" cy="75" r="30"/>
    </clipPath>
    <g clip-path="url(#body-clip)">
      <rect x="50" y="60" width="100" height="90" fill="url(#grad1)" rx="20"/>
    </g>
  </g>

  <!-- Head -->
  <circle cx="75" cy="40" r="40" fill="#000">
    <clipPath id="head-clip">
      <circle cx="75" cy="40" r="35"/>
    </clipPath>
    <g clip-path="url(#head-clip)">
      <circle cx="75" cy="40" r="40" fill="#fff"/>
    </g>
  </circle>

  <!-- Eyes -->
  <circle cx="65" cy="25" r="5" fill="#fff"/>
  <circle cx="85" cy="25" r="5" fill="#fff"/>

  <!-- Beak -->
  <path d="M70,45 L75,35 L80,45 Z" fill="#ff69b4"/>

  <!-- Flippers -->
  <g transform="translate(30,120) rotate(-45)">
    <rect width="20" height="50" fill="#007BFF" rx="10"/>
    <clipPath id="flipper-clip">
      <path d="M0,0 L20,50 Q10,60 0,50 Z"/>
    </clipPath>
    <g clip-path="url(#flipper-clip)">
      <rect width="20" height="50" fill="#fff" rx="10"/>
    </g>
  </g>

  <!-- Feet -->
  <circle cx="60" cy="170" r="30" fill="#007BFF"/>
  <circle cx="90" cy="170" r="30" fill="#007BFF"/>

</svg>