<svg width="200" height="200" viewBox="0 0 200 200" xmlns="http://www.w3.org/2000/svg">

  <!-- Define pattern colors -->
  <defs>
    <pattern id="p1" patternUnits="userSpaceOnUse" width="40" height="40">
      <rect x="0" y="0" width="40" height="40" fill="#FFF59D"/>
    </pattern>
    <pattern id="p2" patternUnits="userSpaceOnUse" width="40" height="40">
      <rect x="0" y="0" width="40" height="40" fill="#F4A460"/>
    </pattern>
  </defs>

  <!-- Draw quilt squares -->
  <rect x="20" y="20" width="40" height="40" fill="url(#p1)"/>
  <rect x="60" y="60" width="40" height="40" fill="url(#p2)"/>
  <rect x="20" y="60" width="40" height="40" fill="url(#p1)"/>
  <rect x="60" y="20" width="40" height="40" fill="url(#p2)"/>

  <!-- Draw stitching -->
  <polygon points="20,20 60,20 60,60 20,60" fill="none" stroke="#000"/>
  <polygon points="180,20 140,20 140,60 180,60" fill="none" stroke="#000"/>
  <polygon points="20,180 60,180 60,140 20,140" fill="none" stroke="#000"/>
  <polygon points="180,180 140,180 140,140 180,140" fill="none" stroke="#000"/>

</svg>